<svg xmlns="http://www.w3.org/2000/svg"><defs><font id="UniNeue-HeavyItalic" horiz-adv-x="0"><font-face font-family="Uni Neue Heavy" font-weight="850" font-style="italic" ascent="750" descent="-250" x-height="520" cap-height="715" bbox="-616 -291 1124 1037" underline-thickness="50" underline-position="-100" slope="-10" unicode-range="U+0020-25CA"/><glyph glyph-name=".notdef" horiz-adv-x="199"/><glyph glyph-name=".null"/><glyph glyph-name="nonmarkingreturn" horiz-adv-x="333"/><glyph glyph-name="space" horiz-adv-x="199"/><glyph glyph-name="exclam" unicode="!" horiz-adv-x="268" d="M67.5 225q-4.5 5-3.5 13l41 291 30 170q3 16 19 16h113q8 0 12.5-5.5T282 696l-29-170-61-291q-3-15-19-15H80q-8 0-12.5 5zM158 15.5Q131-13 90-13 55-13 33.5 9T12 66q0 43 27 70.5t68 27.5q35 0 56.5-21.5T185 86q0-42-27-70.5z"/><glyph glyph-name="quotedbl" unicode="&quot;" horiz-adv-x="389" d="M170 432H96q-9 0-13 5t-2 14l49 249q3 15 19 15h95q9 0 13-5.5t1-13.5l-68-250q-4-14-20-14zm169 0h-75q-18 0-15 19l49 249q3 15 19 15h95q9 0 13-5.5t1-13.5l-68-250q-3-14-19-14z"/><glyph glyph-name="numbersign" unicode="#" horiz-adv-x="754" d="M90 5.5Q86 11 89 19l58 162H31q-10 0-13.5 5.5T17 200l26 78q5 15 20 15h121l44 127H112q-9 0-13 5.5T98 439l26 79q5 14 20 14h121l61 169q5 14 20 14h91q10 0 13.5-5.5t.5-13.5l-58-164h120l60 169q5 14 20 14h92q9 0 13-5.5t1-13.5l-58-164h115q10 0 14-5.5t1-13.5l-26-79q-5-14-20-14H604l-45-127h115q10 0 14-5.5t1-14.5l-26-78q-4-14-20-14H522L463 14q-5-14-20-14h-92q-9 0-13 5.5T337 19l58 162H274L215 14q-5-14-20-14h-92q-9 0-13 5.5zM432 293l44 127H356l-45-127h121z"/><glyph glyph-name="dollar" unicode="$" horiz-adv-x="587" d="M173.5-98.5Q169-93 170-85l14 79Q89 12 9 84q-6 6-6 13 0 5 5 12l72 85q6 7 12 7 7 0 12-4 41-33 82-49.5t86-16.5q47 0 80 18.5t39 54.5q1 3 1 10 0 29-29 46t-91 35q-83 24-137 74T81 499q0 18 3 39 15 87 76 133t152 55l13 71q3 16 19 16h87q8 0 12.5-5.5T446 794l-12-72q89-15 160-70 7-4 7-12 0-5-5-12l-78-89q-6-6-12-6-5 0-12 4-73 49-152 49-92 0-103-63-1-3-1-10 0-28 26.5-44t81.5-32q87-27 146.5-72T552 232q0-18-5-46-19-95-84-141T305-10l-13-78q-3-16-19-16h-87q-8 0-12.5 5.5z"/><glyph glyph-name="percent" unicode="%" horiz-adv-x="812" d="M295.5 369Q252 333 186 333q-53 0-87.5 33T64 451q0 14 3 29l18 98q13 70 58 106.5T253 721q52 0 86-33t34-85q0-13-3-28l-18-98q-13-72-56.5-108zM93 3q-4 3-4 7t5 11l535 677q9 10 21 10h89q7 0 11-3t4-7-5-11L214 10q-9-10-21-10h-89q-7 0-11 3zm75 458q0-16 9-24t23-8q18 0 31 12.5t17 35.5l20 103q1 5 1 13 0 16-8 24t-23 8q-18 0-32-12.5T188 577l-19-103q-1-5-1-13zM704.5 29Q661-7 595-7q-53 0-87.5 33.5T473 112q0 13 3 28l18 98q12 69 57 105.5T661 380q53 0 87-33t34-85q0-13-3-27l-18-98q-13-72-56.5-108zM577 122q0-16 9-24.5t23-8.5q18 0 31.5 12.5T658 137l19 103q1 5 1 13 0 16-8 24t-23 8q-18 0-32-12.5T597 237l-19-103q-1-4-1-12z"/><glyph glyph-name="ampersand" unicode="&amp;" horiz-adv-x="598" d="M198-10q-48 0-90 21.5t-67.5 61T15 164q0 17 3 35 12 67 55 116.5T180 404q-35 63-35 121 0 17 3 33 14 76 71.5 123T359 728q45 0 79-20.5t52.5-55T509 576q0-18-2-28-11-61-52-107t-100-83q36-63 51-91 14 19 50 71 5 9 14 9 4 0 9-3l74-40q9-4 9-14 0-6-2-9-43-70-88-127 15-28 47-82 9-17 29-51 4-8 4-10 0-11-15-11H416q-13 0-21 12l-21 41q-81-63-176-63zm77 544q0-25 20-65 37 20 59 39.5t25 41.5l1 11q0 22-11 35.5T338 610q-25 0-41-16t-20-43q-2-10-2-17zm-99.5-394.5Q194 123 225 123q45 0 89 39l-71 129q-43-28-64.5-52.5T157 183q0-27 18.5-43.5z"/><glyph glyph-name="quotesingle" unicode="'" horiz-adv-x="221" d="M171 432H96q-9 0-13 5t-2 14l49 249q3 15 19 15h94q10 0 13.5-5.5T258 696l-68-250q-3-14-19-14z"/><glyph glyph-name="parenleft" unicode="(" horiz-adv-x="306" d="M96-102Q41 55 41 214q0 75 14 159 39 225 200 445 7 10 21 10h103q7 0 11-3t4-7-5-11Q224 581 185 357q-13-68-13-146 0-161 57-307 1-3 1-7 0-13-15-13h-99q-16 0-20 14z"/><glyph glyph-name="parenright" unicode=")" horiz-adv-x="306" d="M243 815q55-157 55-316 0-75-14-159-39-225-200-445-7-10-21-10H-40q-7 0-11 2.5t-4 7.5q0 4 5 11 165 226 204 450 13 68 13 146 0 161-57 307-1 3-1 7 0 13 15 13h99q16 0 20-14z"/><glyph glyph-name="asterisk" unicode="*" horiz-adv-x="450" d="M91 402q0 7 5 12l67 78-74 27q-12 5-12 14 0 6 2 9l40 82q3 7 9 9.5t13-.5l82-28 18 94q3 16 18 16h88q8 0 12.5-5.5T362 696l-16-90 89 27q2 1 7 1 11 0 14-14l12-82v-5q0-12-13-16l-94-30 41-72q3-4 3-9 0-9-9-15l-76-53q-4-3-10-3-8 0-13 9l-41 85-69-88q-7-7-13-7-4 0-11 5l-65 51q-7 6-7 12z"/><glyph glyph-name="plus" unicode="+" horiz-adv-x="630" d="M566 396q4-5 3-14l-18-98q-1-7-5.5-11.5T533 268H385l-29-164q-3-16-18-16H237q-9 0-13.5 5.5T221 107l29 161H103q-9 0-13.5 5.5T87 287l18 99q1 15 18 15h150l29 164q3 16 18 16h101q9 0 13-5t3-14l-29-161h145q9 0 13-5z"/><glyph glyph-name="comma" unicode="," horiz-adv-x="243" d="M39-140h-85q-10 0-13.5 5.5T-60-120L42 132q7 13 20 13h105q15 0 15-11 0-6-2-9L59-127q-6-13-20-13z"/><glyph glyph-name="hyphen" unicode="-" horiz-adv-x="386" d="M54.5 236.5Q50 242 52 250l18 102q3 16 18 16h244q8 0 12.5-5.5T347 349l-18-103q-3-15-18-15H67q-8 0-12.5 5.5z"/><glyph glyph-name="period" unicode="." horiz-adv-x="245" d="M153 18q-27-28-70-28-36 0-57.5 22.5T4 70q0 43 26.5 70.5T100 168q36 0 58-22.5T180 88q0-42-27-70z"/><glyph glyph-name="slash" unicode="/" horiz-adv-x="469" d="M111 0H-2q-15 0-15 11 0 4 3 10l388 682q6 12 20 12h111q7 0 11-3.5t4-8.5q0-4-3-9L131 12q-6-12-20-12z"/><glyph glyph-name="zero" unicode="0" horiz-adv-x="605" d="M452 51.5Q374-13 258-13q-60 0-108.5 25T73 84 45 195q0 32 5 57l39 220q22 128 100.5 192T384 728q60 0 108.5-24.5T569 632t28-110q0-22-5-54l-39-221Q530 116 452 51.5zM200 211q0-74 79-74 45 0 77.5 26t41.5 80l41 232q3 15 3 28 0 40-22 58t-59 18q-44 0-76-26t-42-80l-40-232q-3-16-3-30z"/><glyph glyph-name="one" unicode="1" horiz-adv-x="393" d="M131 6q-4 5-3 14l90 508-96-63q-6-4-9-4-9 0-14 11l-39 87q-3 6-3 10 0 7 9 13l193 126q11 7 22 7h104q8 0 12.5-5.5T401 696L281 16q-3-15-19-15H143q-8 0-12 5z"/><glyph glyph-name="two" unicode="2" horiz-adv-x="555" d="M-6 5q-4 5-3 14l15 92q3 12 12 20l193 171q100 87 139.5 131.5T397 518q1 5 1 14 0 51-67 51-39 0-75.5-18.5T183 514q-6-6-12-6-8 0-12 10l-50 88q-3 6-3 11 0 9 6 13 48 43 109 70.5T350 728q92 0 147-46t55-125q0-23-4-43-9-58-44-110T395 277q-79-76-159-135h241q9 0 13.5-5.5T493 123L474 16q-3-16-19-16H6Q-2 0-6 5z"/><glyph glyph-name="three" unicode="3" horiz-adv-x="555" d="M415.5 50Q339-12 224-12q-82 0-135 25T-3 82q-4 5-4 11 0 7 7 14l70 80q5 5 11 5t13-7q27-26 59-38.5t83-12.5q47 0 81 27.5t43 78.5q2 14 2 19 0 35-25 53.5T269 331q-31 0-66-9-2-1-6-1-12 0-15 13l-16 57-1 6q0 8 8 16l180 159H129q-8 0-12.5 5.5T113 591l20 108q2 16 18 16h403q8 0 12.5-5.5T570 696l-16-85q-1-13-10-20L358 430v-1q45 1 81-20.5t56.5-60.5 20.5-86q0-17-3-35-21-115-97.5-177z"/><glyph glyph-name="four" unicode="4" horiz-adv-x="581" d="M295.5 5.5Q291 11 293 19l19 106H18q-8 0-12.5 5.5T3 144l15 88q3 12 8 21l304 451q8 11 22 11h130q15 0 15-11 0-2-4-10L206 265h130l36 129q5 14 20 14h102q9 0 13-5t3-14l-22-124h54q8 0 12.5-5.5T557 246l-18-105q-3-16-19-16h-57L444 16q-3-16-18-16H309q-9 0-13.5 5.5z"/><glyph glyph-name="five" unicode="5" horiz-adv-x="568" d="M433 53q-76-65-200-65Q99-12 21 83q-4 5-4 11 0 7 6 13l66 78q6 6 13 6t12-5q56-52 141-52 51 0 83.5 30t41.5 81q2 16 2 22 0 70-88 70-69 0-122-36-7-4-13-4-3 0-11 2l-69 25q-15 5-12 21l75 354q3 16 19 16h390q9 0 13.5-5.5T567 696l-19-111q-3-15-19-15H261l-27-125q18 10 48 16t62 6q89 0 140-49.5T535 285q0-22-5-50-21-117-97-182z"/><glyph glyph-name="six" unicode="6" horiz-adv-x="585" d="M492.5 103q-40.5-55-102-85.5T254-13q-65 0-113 25T67 82 41 184q0 25 4 46l44 244q14 78 56 135.5t104 88T383 728q61 0 114-18t92-50q7-6 7-12 0-5-5-12l-72-91q-6-7-12-7-5 0-12 5-24 19-57.5 29.5T367 583q-50 0-83.5-28.5T242 475l-9-51q53 32 121 32 92 0 144-47.5T550 279q0-25-4-48-13-73-53.5-128zm-275 49q20.5-19 57.5-19 46 0 77.5 28t40.5 78q2 16 2 23 0 67-81 67-51 0-84-31.5T197 207q0-36 20.5-55z"/><glyph glyph-name="seven" unicode="7" horiz-adv-x="518" d="M42 3.5Q38 7 38 12t3 9l329 551H94q-9 0-13.5 5.5T78 591l19 108q1 16 18 16h443q8 0 12.5-5.5T573 696l-14-85q-1-10-7-20L207 12q-7-12-21-12H53q-7 0-11 3.5z"/><glyph glyph-name="eight" unicode="8" horiz-adv-x="605" d="M458.5 44Q382-13 256-13q-66 0-117 23T59 76.5 30 178q0 22 4 42 9 52 41 95.5t80 66.5q-50 45-50 115 0 16 3 34 9 56 46.5 101t96.5 70.5T382 728q64 0 111.5-22t73.5-61 26-90q0-17-3-35-8-43-32.5-81T494 378q31-20 47.5-53.5T558 250q0-17-3-37-20-112-96.5-169zM250 497q0-30 20.5-46.5T330 434q51 0 82 26.5t31 69.5q0 30-21 45.5T360 591q-44 0-73-20.5T251 513q-1-5-1-16zm-40-350.5q24-18.5 67-18.5 50 0 83.5 25t41.5 67q1 5 1 14 0 32-24 50t-69 18q-55 0-89.5-28.5T186 197q0-32 24-50.5z"/><glyph glyph-name="nine" unicode="9" horiz-adv-x="585" d="M430 50q-78-63-197-63-60 0-113 24T29 76q-6 6-6 12t6 12l69 83q6 6 12 6 5 0 13-6 26-23 59-36.5t71-13.5q49 0 81 28t41 78l9 51q-52-31-120-31-56 0-99.5 25t-68 68.5T72 451q0 24 4 45 19 107 96.5 169.5T363 728q100 0 157-53t57-141q0-22-5-52l-45-255q-19-114-97-177zM225 463q0-34 19.5-53t58.5-19q45 0 76.5 24t39.5 68l1 6q2 9 2 25 0 36-20.5 54.5T342 587q-46 0-76.5-26.5T227 487q-2-18-2-24z"/><glyph glyph-name="colon" unicode=":" horiz-adv-x="276" d="M230.5 383Q203 355 163 355q-36 0-58.5 22.5T82 435q0 43 27 71t67 28q37 0 59.5-22.5T258 454q0-43-27.5-71zm-66-365Q137-10 98-10q-37 0-59 22T17 70q0 42 26.5 70t66.5 28q37 0 59.5-22T192 88q0-42-27.5-70z"/><glyph glyph-name="semicolon" unicode=";" horiz-adv-x="275" d="M232 385q-27-28-69-28-35 0-56.5 22T85 436q0 43 27 70.5t68 27.5q36 0 57.5-22t21.5-58q0-41-27-69zM-44-134.5q-4 3.5-4 8.5l2 8L57 137q5 14 20 14h105q15 0 15-12 0-3-2-9L73-125q-7-13-21-13h-85q-7 0-11 3.5z"/><glyph glyph-name="less" unicode="&lt;" horiz-adv-x="630" d="M480 76.5q-3-3.5-8-3.5-4 0-10 3L96 282q-12 7-9 22l12 66q3 13 15 19l442 209q3 2 9 2 5 0 7.5-4.5T574 584l-22-122q-3-12-16-18L262 338l232-112q14-8 11-22L484 86q-1-6-4-9.5z"/><glyph glyph-name="equal" unicode="=" horiz-adv-x="630" d="M108.5 376.5Q104 382 106 390l18 104q3 15 19 15h429q9 0 13.5-5.5T588 490l-18-103q-3-16-19-16H121q-8 0-12.5 5.5zM69.5 166q-4.5 5-2.5 13l19 104q3 15 18 15h431q8 0 12-5t3-14l-18-103q-3-15-18-15H83q-9 0-13.5 5z"/><glyph glyph-name="greater" unicode="&gt;" horiz-adv-x="630" d="M93 75q-6 0-8.5 4.5T83 92l23 122q1 12 15 18l274 113-231 105q-13 7-12 22l21 117q3 13 13 13 5 0 9-3l366-206q11-7 10-22l-13-64q-1-13-14-19L102 77q-6-2-9-2z"/><glyph glyph-name="question" unicode="?" horiz-adv-x="497" d="M157 220q-4 5-2 14l6 38q7 40 25 67.5t39 44.5 56 38q41 26 61.5 46t26.5 53q2 12 2 18 0 27-19 43t-60 16-75-15-66-40q-5-5-11-5-8 0-12 10l-37 82q-2 6-2 10 0 7 7 13 94 75 216 75 84 0 142-43.5T512 557q0-24-4-45-7-43-25-72.5t-39.5-47T389 353q-41-27-62.5-49T297 245l-3-20q-1-10-17-10H170q-9 0-13 5zM261 18q-27-28-68-28-35 0-56.5 22T115 68q0 44 26.5 71.5T210 167q35 0 56.5-22T288 88q0-42-27-70z"/><glyph glyph-name="at" unicode="@" horiz-adv-x="851" d="M457.5-106.5Q399-121 343-121q-94 0-163.5 38T73 22.5 36 175q0 40 7 76l24 135q29 160 141.5 251T512 728q125 0 210.5-46.5T856 558q6-13 4-23l-44-257q-17-100-65.5-149.5T628 79q-65 0-92 38-30-21-63-30.5T397 77q-65 0-104.5 41T253 223q0 12 4 38l16 86q14 79 66.5 126T476 520q92 0 159-40 11-7 9-22l-39-222q-1-5-1-14 0-33 32-33 52 0 63 62l48 264q-26 46-92 77.5T504 624q-140 0-221-65.5T181 377l-23-129q-5-24-5-56 0-61 25-108t70.5-73.5T355-16q95 0 178 38 5 3 9 3 10 0 13-14l13-60 1-6q0-10-9-14-44-23-102.5-37.5zM374 239q0-26 12-38t36-12q32 0 62 17l33 192q-6 4-19.5 7.5T471 409q-33 0-54.5-19T389 336l-13-71q-2-10-2-26z"/><glyph glyph-name="A" unicode="A" horiz-adv-x="630" d="M426 16l-14 117H187L133 13q-4-13-20-13H-24q-15 0-15 11 0 4 3 10l333 681q6 13 20 13h146q16 0 19-16L585 18v-4q0-14-16-14H444q-17 0-18 16zm-78 484q-62-147-98-225h146l-27 266h-4z"/><glyph glyph-name="B" unicode="B" horiz-adv-x="623" d="M30.5 5.5Q26 11 28 19l120 680q3 16 18 16h246q91 0 142-47t51-122q0-18-3-38-8-44-31.5-77.5T511 378q35-18 53.5-50t18.5-76q0-17-3-37-18-105-88.5-160T296 0H44q-9 0-13.5 5.5zM352 436q38 0 61.5 19.5T443 510q2 12 2 18 0 50-68 50h-92l-25-142h92zm-39-295q43 0 72 22.5t36 66.5q1 6 1 16 0 61-77 61H236l-29-166h106z"/><glyph glyph-name="C" unicode="C" horiz-adv-x="570" d="M284-13q-110 0-174 59T46 210q0 30 6 63l35 203q21 122 105 187t209 65q57 0 108-18t89-50q7-4 7-12 0-5-5-12l-73-86q-4-7-12-7-7 0-12 4-52 36-116 36-59 0-95-33t-45-90l-35-202q-3-16-3-31 0-46 26.5-70t77.5-24q35 0 72.5 11.5T454 177q6 3 10 3 8 0 14-10l47-98q3-7 3-11 0-7-6-10-107-64-238-64z"/><glyph glyph-name="D" unicode="D" horiz-adv-x="647" d="M30.5 5.5Q26 11 28 19l120 680q1 7 5.5 11.5T166 715h235q102 0 167-55.5T633 496q0-31-6-67l-29-165Q574 122 494.5 61T282 0H43q-8 0-12.5 5.5zM307 145q54 0 86 30.5t44 95.5l31 178q4 20 4 40 0 42-22 61.5T383 570H283l-75-425h99z"/><glyph glyph-name="E" unicode="E" horiz-adv-x="572" d="M557 572H285l-25-139h238q8 0 12-5t3-14l-19-105q-3-16-18-16H235l-26-149h283q8 0 12.5-5.5T508 125L490 16q-3-16-19-16H44q-9 0-13 5t-3 14l121 680q3 16 18 16h411q9 0 13.5-5.5T594 696l-19-108q-3-16-18-16z"/><glyph glyph-name="F" unicode="F" horiz-adv-x="550" d="M560 571H286l-29-162h233q18 0 16-19l-20-109q-3-16-18-16H231L186 16q-2-16-18-16H44q-9 0-13.5 5.5T28 19l121 680q1 7 5.5 11.5T167 715h414q9 0 13.5-5.5T597 696l-19-109q-1-16-18-16z"/><glyph glyph-name="G" unicode="G" horiz-adv-x="629" d="M422.5 13.5Q351-12 276-12q-69 0-121 28.5t-80.5 79T46 211q0 22 5 52l36 214q21 120 105.5 185.5T399 728q65 0 123-19t101-53q7-6 7-13 0-5-5-12l-77-87q-6-7-13-7-5 0-11 3-60 43-141 43-55 0-91-32t-45-89l-36-210q-2-18-2-26 0-42 23.5-67t67.5-25q66 2 112 27l23 125H329q-8 0-12.5 5.5T314 305l17 95q1 7 5.5 11.5T349 416h242q8 0 12.5-5.5T606 397l-52-295q-3-13-10-19-50-44-121.5-69.5z"/><glyph glyph-name="H" unicode="H" horiz-adv-x="665" d="M518.5 710.5Q523 715 531 715h124q8 0 12.5-5.5T671 696L550 16q-2-16-18-16H408q-8 0-12.5 5.5T393 19l48 270H234L186 16q-3-16-19-16H44q-9 0-13.5 5.5T28 19l120 680q3 16 18 16h124q9 0 13-5t3-14l-46-262h206l47 265q1 7 5.5 11.5z"/><glyph glyph-name="I" unicode="I" horiz-adv-x="300" d="M168 0H44q-8 0-12.5 5.5T28 19l120 680q3 16 19 16h123q9 0 13.5-5.5T306 696L186 16q-3-16-18-16z"/><glyph glyph-name="J" unicode="J" horiz-adv-x="519" d="M353.5 50Q280-12 168-12 109-12 63 5t-86 52q-7 7-7 13 0 5 5 12l68 88q6 7 13 7t12-4q48-39 114-39 42 0 69 25t36 73l82 467q3 16 19 16h124q8 0 12.5-5.5T528 696l-81-470q-20-114-93.5-176z"/><glyph glyph-name="K" unicode="K" horiz-adv-x="627" d="M685 705q0-7-5-12L397 393 588 21q2-3 2-9 0-12-15-12H434q-16 0-20 13L283 283l-60-58-37-209q-3-16-19-16H44q-9 0-13.5 5.5T28 19l120 680q3 16 19 16h123q9 0 13-5t3-14l-44-248 226 257q8 10 21 10h161q15 0 15-10z"/><glyph glyph-name="L" unicode="L" horiz-adv-x="512" d="M463 145q9 0 13.5-5.5T479 126L460 16q-3-16-19-16H43q-8 0-12.5 5.5T28 19l120 680q1 7 5.5 11.5T166 715h124q9 0 13-5t3-14l-97-551h254z"/><glyph glyph-name="M" unicode="M" horiz-adv-x="841" d="M30.5 5.5Q26 11 28 19l119 680q3 16 18 16h141q16 0 20-15l50-171q36-139 50-205h3q75 133 122 207l112 173q7 11 21 11h146q9 0 13.5-5.5T846 696L727 16q-3-16-19-16H586q-8 0-12.5 5.5T570 19l22 127q17 100 63 317l-5 1q-39-74-118-203l-64-100q-7-12-20-12h-91q-15 0-20 15l-30 102-9 36q-32 118-39 157h-5q-13-105-46-310L185 16q-1-16-19-16H44q-9 0-13.5 5.5z"/><glyph glyph-name="N" unicode="N" horiz-adv-x="685" d="M30.5 5.5Q26 11 28 19l120 680q1 7 5.5 11.5T166 715h132q17 0 20-14l79-237q34-109 62-215l5 1q15 129 40 277l30 172q3 16 18 16h122q9 0 13.5-5.5T690 696L570 16q-3-16-19-16H420q-14 0-20 14l-79 212q-20 51-39.5 120.5T252 464l-4-2q-18-185-38-296L184 16q-3-16-18-16H43q-8 0-12.5 5.5z"/><glyph glyph-name="O" unicode="O" horiz-adv-x="656" d="M500 57q-85-70-220-70-110 0-171.5 63.5T47 221q0 32 6 68l31 177q22 123 107 192.5T407 728q111 0 174-61.5T644 498q0-31-6-66l-31-177Q585 127 500 57zM209 235q0-47 24-74.5t70-27.5q58 0 95 34.5t48 96.5l32 183q3 20 3 36 0 46-24 72.5T386 582q-58 0-94-33.5T245 452l-33-181q-3-19-3-36z"/><glyph glyph-name="P" unicode="P" horiz-adv-x="612" d="M563.5 658Q625 601 625 505q0-33-5-58-20-109-94.5-171.5T332 213H221L186 16q-3-16-19-16H43q-8 0-12.5 5.5T28 19l120 680q1 7 5.5 11.5T166 715h227q109 0 170.5-57zM420 382.5q32 26.5 40 77.5 2 10 2 27 0 41-23.5 62.5T371 571h-87l-38-215h89q53 0 85 26.5z"/><glyph glyph-name="Q" unicode="Q" horiz-adv-x="664" d="M492-78q-7 0-12 8l-60 82q-67-24-141-24-110 0-171 62T47 219q0 34 6 70l31 177q22 123 107 192.5T408 728q112 0 175-61.5T646 499q0-32-6-67l-30-177q-16-93-68-157l57-72q4-5 4-11 0-8-7-14l-93-74q-7-5-11-5zM210 235q0-47 24-73.5t70-26.5q58 0 95 34t48 95l32 183q3 20 3 36 0 47-24 73t-71 26q-58 0-94-33.5T246 452l-33-181q-3-19-3-36z"/><glyph glyph-name="R" unicode="R" horiz-adv-x="618" d="M30.5 5.5Q26 11 28 19l119 680q3 16 19 16h230q105 0 163-57t58-150q0-27-4-50-25-156-174-201L551 20q3-4 3-9 0-11-15-11H403q-16 0-20 13l-92 225h-66L187 16q-3-16-19-16H44q-9 0-13.5 5.5zM338 380q50 0 78.5 22t35.5 68q2 20 2 27 0 74-82 74h-89l-33-191h88z"/><glyph glyph-name="S" unicode="S" horiz-adv-x="600" d="M455 32.5Q375-13 263-13q-75 0-134.5 24.5T15 84q-7 7-7 13 0 5 5 12l72 89q6 7 13 7 5 0 12-5 42-33 83.5-49.5T280 134q46 0 78.5 18t38.5 52q1 3 1 10 0 29-28.5 46T280 295Q96 349 96 492q0 12 4 42 17 100 89.5 147T370 728q70 0 125.5-18.5T604 652q8-5 8-12 0-5-5-12l-70-90q-6-7-13-7-6 0-11 4-35 22-77 35.5T352 584q-40 0-65-17.5T256 518q-1-4-1-11 0-28 24-43t75-30q56-17 99.5-38.5t76-61.5T562 233q0-19-5-47Q535 78 455 32.5z"/><glyph glyph-name="T" unicode="T" horiz-adv-x="562" d="M623 710q4-5 3-14l-20-110q-2-16-18-16H415L317 16q-3-16-18-16H174q-8 0-12.5 5.5T159 19l98 551H86q-9 0-13 5t-3 14l20 110q3 16 18 16h502q9 0 13-5z"/><glyph glyph-name="U" unicode="U" horiz-adv-x="665" d="M497.5 55.5Q419-12 287-12q-106 0-165.5 59.5T62 213q0 34 6 71l74 415q3 16 18 16h126q9 0 13.5-5.5T302 696l-77-430q-3-19-3-37 0-46 23-70t65-24q51 0 84.5 31.5T439 259l76 440q3 16 18 16h126q8 0 12.5-5.5T675 696l-78-449q-21-124-99.5-191.5z"/><glyph glyph-name="V" unicode="V" horiz-adv-x="636" d="M180 16L80 697v4q0 14 16 14h127q18 0 19-16l36-305q15-124 21-214h6l10 26q52 127 74 176l148 320q7 13 21 13h138q15 0 15-11 0-4-3-10L369 13q-6-13-20-13H199q-16 0-19 16z"/><glyph glyph-name="W" unicode="W" horiz-adv-x="948" d="M142 16L82 697v2q0 7 4.5 11.5T99 715h128q8 0 13-4.5t5-12.5l10-226q3-66 3-184l-1-109h5q20 65 50.5 152.5T367 479l86 212q6 14 20 14h141q17 0 18-16l17-221q3-51 5.5-138t2.5-151h6q21 69 51.5 161.5T766 488l83 213q6 14 20 14h134q7 0 11.5-3.5t4.5-8.5q0-2-2-8L719 13q-6-13-21-13H553q-16 0-17 16l-13 197q-5 89-7 251v36h-6q-12-49-34.5-115.5T428 257L325 14q-6-14-20-14H160q-17 0-18 16z"/><glyph glyph-name="X" unicode="X" horiz-adv-x="605" d="M658 712.5q4-2.5 4-7.5 0-6-4-11L416 356 551 20q1-3 1-7 0-13-15-13H403q-14 0-19 14l-81 227L153 12q-7-12-21-12H-18q-7 0-11 3t-4 8 4 10l249 338-119 336q-1 3-1 7 0 6 4 9.5t11 3.5h130q15 0 20-14l69-227 148 229q8 12 21 12h144q7 0 11-2.5z"/><glyph glyph-name="Y" unicode="Y" horiz-adv-x="582" d="M170 5q-4 5-3 14l44 238L78 696q-1 2-1 6 0 6 4 9.5t11 3.5h130q15 0 18-15l73-295h2l170 298q8 12 20 12h138q14 0 14-11 0-4-3-10L371 254 326 16q-3-16-18-16H183q-9 0-13 5z"/><glyph glyph-name="Z" unicode="Z" horiz-adv-x="593" d="M-7.5 5.5Q-12 11-10 19l16 85q2 9 10 20l377 448H125q-8 0-12.5 5.5T110 591l19 108q3 16 18 16h464q9 0 13.5-5.5T627 696l-16-82q-3-12-9-21L231 143h289q8 0 12-5t3-14L516 16q-3-16-19-16H6Q-3 0-7.5 5.5z"/><glyph glyph-name="bracketleft" unicode="[" horiz-adv-x="307" d="M215 9q9 0 13-5t3-14l-16-91q-3-15-19-15H17q-9 0-13 5T1-97l160 909q3 16 19 16h179q9 0 13-5t3-14l-16-90q-3-16-19-16h-65L153 9h62z"/><glyph glyph-name="backslash" unicode="\" horiz-adv-x="452" d="M255 15L98 696l-1 5q0 7 4.5 10.5T114 715h96q15 0 19-15L388 19v-4q0-7-4.5-11T372 0h-97q-15 0-20 15z"/><glyph glyph-name="bracketright" unicode="]" horiz-adv-x="306" d="M125 703q-9 0-13 5t-3 14l16 91q3 15 19 15h179q9 0 13-5t3-14L179-100q-3-16-19-16H-19q-9 0-13 5t-3 14l16 90Q-16 9 0 9h65l122 694h-62z"/><glyph glyph-name="asciicircum" unicode="^" horiz-adv-x="630" d="M105 559q0 4 5 11l227 243q11 9 22 9h108q14 0 21-12l142-240q3-6 3-10 0-11-15-11H512q-12 0-20 12l-91 160-142-163q-8-9-22-9H120q-15 0-15 10z"/><glyph glyph-name="underscore" unicode="_" horiz-adv-x="555" d="M445.5-136.5Q441-141 433-141H-13q-8 0-12.5 5.5T-28-122l16 93q1 16 18 16h446q9 0 13-5t3-14l-17-93q-1-7-5.5-11.5z"/><glyph glyph-name="grave" unicode="`" horiz-adv-x="245" d="M281 606q0-11-14-11h-69q-14 0-21 11L92 737q-4 5-4 10t4 8 11 3h93q13 0 20-13l63-130q2-3 2-9z"/><glyph glyph-name="a" unicode="a" horiz-adv-x="505" d="M198-13q-91 0-142.5 42T4 141q0 17 3 35 25 140 227 140 45 0 85-8l2 16q2 9 2 24 0 26-16 39t-54 13q-33 0-64.5-6T134 377q-6-3-10-3-8 0-13 11l-31 82q-2 8-2 10 0 8 5 10 36 22 90 34.5T287 534q88 0 136.5-47.5T472 354q0-28-6-60L421 41q-3-15-15-19-100-35-208-35zm19 125q33 0 69 8l14 87q-33 7-64 7-81 0-81-58 0-44 62-44z"/><glyph glyph-name="b" unicode="b" horiz-adv-x="538" d="M344 534q49 0 87-22.5t59.5-63.5 21.5-94q0-26-4-47l-18-104Q472 98 403 42.5T224-13q-51 0-103.5 13T26 36q-13 7-10 22l115 641q1 7 5.5 11.5T149 715h116q18 0 16-19l-33-184q42 22 96 22zm17-187q0 29-17 44.5T297 407q-39 0-72-20l-45-257q25-12 60-12 82 0 99 96l19 110q3 12 3 23z"/><glyph glyph-name="c" unicode="c" horiz-adv-x="451" d="M223-13q-90 0-143 49.5T27 170q0 26 4 49l22 124q16 92 83.5 141.5T302 534q86 0 152-48 7-4 7-13 0-6-4-11l-59-76q-6-7-13-7-6 0-11 4-36 21-77 21-39 0-63-20t-31-57l-21-118q-3-15-3-27 0-32 18-48.5t49-16.5q45 0 94 29 6 3 11 3 9 0 13-9l39-86q3-4 3-10 0-8-11-14-77-43-172-43z"/><glyph glyph-name="d" unicode="d" horiz-adv-x="539" d="M334.5-3Q281-13 231-13q-63 0-109.5 24T50 77.5 25 175q0 24 4 44l21 115q16 90 79 145t152 55q57 0 97-21l33 186q3 16 18 16h116q9 0 13.5-5.5T561 696L446 42q-1-13-15-18-43-17-96.5-27zM178 178q0-30 16.5-44t50.5-14q41 0 66 11l45 258q-25 17-66 17-74 0-90-91l-19-107q-3-16-3-30z"/><glyph glyph-name="e" unicode="e" horiz-adv-x="519" d="M139.5 485Q208 534 303 534q89 0 143-42t54-124q0-19-5-49l-17-97q-3-15-18-15H182l-3-14q-2-16-2-22 0-57 71-57 63 0 130 40 5 4 11 4 8 0 12-9l41-77q2-8 2-10 0-10-8-14-89-61-209-61-90 0-146.5 46T24 158q0 11 4 39l26 145q17 94 85.5 143zM353 349q0 26-16 42t-47 16q-33 0-55.5-19T205 334l-5-27h146l5 25q2 12 2 17z"/><glyph glyph-name="f" unicode="f" horiz-adv-x="328" d="M327 596q-62 0-75-70l-3-20h88q8 0 12.5-5t3.5-14l-16-92q-3-16-19-16h-92L161 16q-2-16-18-16H27q-9 0-13.5 5.5T11 19l93 521q17 93 72.5 140.5T325 728q40 0 63-4 17-3 14-21l-17-95q-1-17-16-15-18 3-42 3z"/><glyph glyph-name="g" unicode="g" horiz-adv-x="539" d="M402-97q-31-54-85.5-79.5T175-202q-59 0-102 14.5T-6-142q-7 6-7 12 0 5 5 12l61 78q6 8 13 8 4 0 11-5 48-31 111-31 46 0 72.5 23.5T297 29q-47-15-89-15-84 0-132 46.5T28 186q0 22 5 50l17 95q18 102 88 152.5T310 534q108 0 201-42 14-8 11-22L449 49q-16-92-47-146zM182 199q0-56 63-56 21 0 41.5 5.5T318 162l39 228q-19 12-60 12-39 0-63.5-19T202 326l-18-103q-2-9-2-24z"/><glyph glyph-name="h" unicode="h" horiz-adv-x="545" d="M346 534q76 0 119.5-46.5T509 358q0-28-6-61L453 16q-1-7-5.5-11.5T435 0H320q-9 0-13.5 5.5T304 19l51 296q3 15 3 29 0 59-65 59-33 0-67-17L161 16q-3-16-19-16H27q-8 0-12.5 5.5T11 19l121 680q2 16 18 16h115q8 0 12.5-5.5T280 696l-32-183q44 21 98 21z"/><glyph glyph-name="i" unicode="i" horiz-adv-x="258" d="M256.5 619.5Q231 593 192 593q-33 0-54 21t-21 53q0 40 25.5 66t64.5 26q34 0 54.5-21t20.5-54q0-38-25.5-64.5zm-243-614Q9 11 11 19l86 486q2 15 18 15h116q9 0 13.5-5t2.5-13L161 16q-3-16-19-16H26q-8 0-12.5 5.5z"/><glyph glyph-name="j" unicode="j" horiz-adv-x="266" d="M263.5 619.5Q238 593 199 593q-33 0-54 21t-21 53q0 40 25.5 66t64.5 26q34 0 54.5-21t20.5-54q0-38-25.5-64.5zM92-157q-55-45-138-45-21 0-47 4-16 3-13 21l18 102q3 15 15 15l27-1q52 0 65 78l85 488q3 15 19 15h116q8 0 12-5t3-13L167-1q-20-111-75-156z"/><glyph glyph-name="k" unicode="k" horiz-adv-x="506" d="M533 517.5q4-2.5 4-7.5t-6-11L335 298 464 20l2-8q0-12-15-12H324q-16 0-20 14l-75 177-44-42-24-133q-1-7-5.5-11.5T143 0H27q-8 0-12.5 5.5T11 19l121 680q3 16 18 16h116q9 0 13.5-5.5T282 696l-60-340 142 155q6 9 21 9h137q7 0 11-2.5z"/><glyph glyph-name="l" unicode="l" horiz-adv-x="298" d="M181-13q-69 0-108 43.5T34 149q0 21 5 53l88 497q3 16 18 16h116q8 0 12.5-5.5T276 696l-88-502q-3-15-3-28 0-47 42-47h23q16 0 13-16L247 8q-3-15-13-16-23-5-53-5z"/><glyph glyph-name="m" unicode="m" horiz-adv-x="800" d="M574 534q89 0 139-52t50-139q0-23-5-53L708 16q-1-7-5.5-11.5T690 0H577q-9 0-13 5t-3 14l51 292q3 17 3 29 0 63-63 63-35 0-67-18 4-26 4-43 0-22-5-52L435 16q-1-7-5.5-11.5T417 0H304q-9 0-13.5 5.5T288 19l51 292q3 17 3 30 0 62-58 62-34 0-58-12L158 16q-3-16-18-16H25q-8 0-12 5t-3 14l83 457q3 13 15 18 44 19 95.5 29.5T302 534q74 0 124-40 75 40 148 40z"/><glyph glyph-name="n" unicode="n" horiz-adv-x="546" d="M12.5 5.5Q8 11 10 19l82 457q3 13 15 18 48 18 101.5 29T310 534q96 0 147.5-49T509 351q0-23-5-55L454 16q-3-16-19-16H320q-8 0-12.5 5.5T304 19l50 292q3 17 3 30 0 62-66 62-38 0-64-12L161 16q-3-16-19-16H26q-9 0-13.5 5.5z"/><glyph glyph-name="o" unicode="o" horiz-adv-x="535" d="M398 38.5Q331-13 221-13q-58 0-102.5 24t-69 66T25 172q0 23 4 42l21 124q17 91 86 143.5T309 534q60 0 105-24.5t69.5-66.5 24.5-94q0-18-3-38l-23-126q-17-95-84-146.5zM177 178q0-28 15.5-44t45.5-16q39 0 62.5 19.5T330 193l23 128q2 12 2 18 0 29-16.5 46.5T292 403q-36 0-60-20.5T202 328l-23-129q-2-14-2-21z"/><glyph glyph-name="p" unicode="p" horiz-adv-x="539" d="M202 522q54 11 105 11 95 0 150-52t55-136q0-24-4-44l-20-115q-15-89-78.5-144T257-13q-58 0-97 22l-33-183q-1-7-5.5-11.5T109-190H-7q-9 0-13 5t-2 14L91 474q3 13 14 18 43 19 97 30zm158-179q0 31-16.5 45T293 402q-38 0-66-15l-45-254q12-9 29-14t35-5q77 0 93 92l18 106q3 18 3 31z"/><glyph glyph-name="q" unicode="q" horiz-adv-x="538" d="M259.5-185q-4.5 5-3.5 14L289 8q-42-21-97-21-47 0-85.5 22.5T46 73t-22 93q0 20 5 48l19 105q19 103 87 159t174 56q53 0 106.5-13t95.5-35q13-7 10-23L407-174q-3-16-19-16H272q-8 0-12.5 5zM177 176q0-30 17-46t45-16q39 0 72 18l47 260q-27 11-63 11-78 0-96-96l-20-110q-2-14-2-21z"/><glyph glyph-name="r" unicode="r" horiz-adv-x="359" d="M13.5 5.5Q9 11 11 19l79 454q3 13 15 19 90 42 185 42 40 0 83-9 8-1 12-6.5t2-13.5l-18-98q-2-17-20-15-28 5-58 5-36 0-65-12L161 16q-3-16-18-16H27q-9 0-13.5 5.5z"/><glyph glyph-name="s" unicode="s" horiz-adv-x="482" d="M361 26q-61-39-158-39Q82-13 0 54q-7 6-7 13 0 6 4 11l57 78q6 8 13 8 3 0 11-4 58-43 130-43 39 0 58.5 12t19.5 34q0 16-17 24t-52 16q-71 15-114.5 53T59 355q0 19 4 35 15 74 73.5 109T289 534q51 0 93-11t83-35q9-4 9-13 0-4-5-11l-59-79q-6-8-13-8-5 0-11 3-47 27-111 27-29 0-45-7.5T211 374q-4-21 13.5-30.5T285 324q64-14 109.5-50T440 174q0-15-3-32-15-77-76-116z"/><glyph glyph-name="t" unicode="t" horiz-adv-x="328" d="M187 188q-2-14-2-21 0-48 51-48h30q17 0 13-17L263 9q-3-16-17-17-25-5-51-5-74 0-117.5 39.5T34 143q0 32 5 57l75 429q3 16 19 16h98q9 0 13.5-5t3.5-13l-6-119h80q9 0 13.5-5.5T338 489l-16-92q-3-16-19-16h-82z"/><glyph glyph-name="u" unicode="u" horiz-adv-x="541" d="M532 502L451 45q-3-13-15-18-46-18-99.5-28.5T235-12q-95 0-146 48.5T38 169q0 23 5 55l50 281q3 15 18 15h116q8 0 12-5t3-13l-50-293q-3-15-3-29 0-62 64-62 36 0 62 11l67 376q2 15 18 15h117q18 0 15-18z"/><glyph glyph-name="v" unicode="v" horiz-adv-x="510" d="M126 16L49 502v2q0 16 17 16h116q17 0 18-16l24-215q7-63 12-132h2q14 36 22 53 13 35 32 80l95 217q7 13 21 13h124q15 0 15-11 0-4-3-9L297 13q-6-13-20-13H145q-18 0-19 16z"/><glyph glyph-name="w" unicode="w" horiz-adv-x="742" d="M96 16L52 502v2q0 16 17 16h115q18 0 18-17l4-164q2-88 2-168h4q30 95 58 167l64 162q6 13 20 13h119q17 0 17-16l8-160q4-107 3-166h4q13 43 49 140l11 30 61 166q6 13 20 13h115q15 0 15-11 0-5-2-8L560 13q-6-13-21-13H414q-16 0-18 17l-7 166-3 147h-3q-10-33-24.5-73.5T331 183L260 14q-5-14-19-14H114Q97 0 96 16z"/><glyph glyph-name="x" unicode="x" horiz-adv-x="491" d="M511 517.5q4-2.5 4-7.5t-4-10L341 259l93-239q2-6 2-8 0-5-4.5-8.5T420 0H297q-14 0-19 15l-45 145L133 12q-7-12-21-12H-18q-7 0-11.5 3t-4.5 8 4 10l183 249-85 231q-1 3-1 7 0 12 14 12h121q15 0 19-14l40-149 93 152q6 11 20 11h126q7 0 11-2.5z"/><glyph glyph-name="y" unicode="y" horiz-adv-x="539" d="M396 520h115q8 0 12.5-5t3.5-13L447 49q-16-91-48.5-145.5t-86-80T176-202q-59 0-102.5 14.5T-4-144q-6 4-6 12 0 7 4 12l62 79q5 8 13 8 7 0 12-4 45-32 107-32 48 0 73.5 23T295 29q-45-15-85-15-80 0-125.5 47.5T39 189q0 27 4 51l48 265q2 15 18 15h115q9 0 13.5-5t2.5-13l-50-276q-3-13-3-26 0-29 16.5-43.5T249 142q39 0 67 17l61 346q3 15 19 15z"/><glyph glyph-name="z" unicode="z" horiz-adv-x="480" d="M-10 5q-4 5-3 14l12 65q3 11 10 20l253 288H85q-8 0-12 5t-3 13l18 95q2 15 18 15h365q8 0 12-5t3-13l-10-61q-3-11-10-20L213 130h196q8 0 12-5t3-14l-18-95q-1-7-5.5-11.5T388 0H3q-9 0-13 5z"/><glyph glyph-name="braceleft" unicode="{" horiz-adv-x="332" d="M86-86Q55-56 55 1q0 22 4 42l28 161q5 23 5 39 0 48-39 56-18 3-15 19l12 79q1 13 18 16 31 7 50 37t25 69l28 160q14 81 51 115t109 34h53q8 0 12.5-5t3.5-14l-16-93q-3-15-19-15h-17q-19 0-33-13.5T297 650l-29-161q-8-49-36-86t-66-51q23-9 39.5-40t16.5-70q0-15-3-30L191 51q-2-12-2-16 0-13 6.5-18.5T217 11h24q8 0 12.5-5.5T256-8l-17-93q-1-15-18-15h-48q-56 0-87 30z"/><glyph glyph-name="bar" unicode="|" horiz-adv-x="268" d="M-.5-133.5Q-5-128-3-120l170 965q3 16 19 16h105q8 0 12.5-5.5T306 842L136-123q-3-16-18-16H13q-9 0-13.5 5.5z"/><glyph glyph-name="braceright" unicode="}" horiz-adv-x="331" d="M279 799q31-30 31-87 0-22-4-42l-28-161q-5-23-5-39 0-48 39-56 18-3 15-19l-12-79q-1-13-18-16-31-7-50-37t-25-69L194 34q-14-81-51-115T34-115h-53q-8 0-12.5 5T-35-96l16 93q3 15 19 15h17q19 0 33 13.5T68 63l29 161q8 49 36 86t66 51q-23 9-39.5 40T143 471q0 15 3 30l28 161q2 12 2 16 0 13-6.5 18.5T148 702h-24q-8 0-12.5 5.5T109 721l17 93q2 15 18 15h48q56 0 87-30z"/><glyph glyph-name="asciitilde" unicode="~" horiz-adv-x="630" d="M493.5 248Q461 233 422 233q-30 0-53 6.5T319 259q-25 11-40 15.5t-34 4.5q-22 0-42-8t-34-21q-6-6-13-6-6 0-12 7l-56 70q-5 7-5 12 0 6 6 12 27 34 62.5 50.5T227 412q29 0 52.5-7t51.5-19q27-11 42-15.5t32-4.5q19 0 39.5 7.5T479 394q6 6 13 6 6 0 12-7l55-70q4-5 4-11 0-8-7-16-30-33-62.5-48z"/><glyph glyph-name="exclamdown" unicode="¡" horiz-adv-x="259" d="M223.5 384Q197 357 155 357q-35 0-56.5 21.5T77 435q0 42 27 70.5t68 28.5q35 0 56.5-22.5T250 454q0-43-26.5-70zM-16-188q-4 5-3 14L11-5l61 288q2 16 19 16h91q9 0 13.5-5t2.5-13L158-5l-31-172q-3-16-18-16H-3q-9 0-13 5z"/><glyph glyph-name="cent" unicode="¢" horiz-adv-x="478" d="M153.5-101.5Q149-96 151-88l14 83q-61 16-96 62T34 170q0 21 5 49l22 124q14 78 66.5 126.5T258 530l14 81q3 15 18 15h74q8 0 12.5-5t3.5-13l-14-80q53-10 96-42 8-5 8-12 0-5-5-12l-58-76q-6-7-13-7t-12 4q-36 21-76 21t-64-20-31-57l-21-118q-2-9-2-25 0-33 17.5-50t48.5-17q46 0 95 29 6 3 11 3 9 0 12-9l40-86q2-6 2-9 0-9-9-14-63-36-133-42l-14-80q-1-7-5.5-11.5T240-107h-74q-8 0-12.5 5.5z"/><glyph glyph-name="sterling" unicode="£" horiz-adv-x="538" d="M2.5 5Q-2 10-1 19l16 91q2 12 18 17 61 14 76 107l11 64H68q-9 0-13 5t-3 14l17 93q3 16 18 16h57l18 93q17 99 77 154t155 55q105 0 169-60 6-6 6-12 0-5-5-12l-64-73q-6-6-13-6t-12 4q-40 28-90 28-35 0-57-23.5T299 508l-15-82h125q9 0 13.5-5.5T425 407l-17-93q-3-16-18-16H263l-12-67q-15-75-65-103h277q8 0 12.5-5.5T478 109l-17-93q-2-16-18-16H15Q7 0 2.5 5z"/><glyph glyph-name="currency" unicode="¤" horiz-adv-x="614" d="M279 105q-66 0-113 29l-66-58q-5-5-11-5-7 0-14 7l-43 56q-5 7-5 12 0 7 7 13l64 56q-15 36-15 81 0 21 5 53 12 69 52 123l-40 51q-5 7-5 12 0 6 7 12l67 59q6 6 12 6 7 0 13-7l39-50q59 31 126 31 72 0 121-35l64 56q5 5 12 5t13-7l44-55q4-5 4-12t-6-13l-69-60q12-31 12-70 0-22-5-52-12-72-52-125l47-59q5-5 5-11 0-7-8-13l-66-59q-7-5-12-5-7 0-13 7l-45 58q-60-31-126-31zm-48.5 147.5Q256 228 298 228q36 0 66.5 19t49 51.5T432 370q0 43-25 68.5T339 464q-36 0-67-19.5T223 392t-18-73q0-42 25.5-66.5z"/><glyph glyph-name="yen" unicode="¥" horiz-adv-x="622" d="M192.5 5.5Q188 11 190 19l13 69H95q-8 0-12 5t-3 14l12 70q3 15 18 15h111l10 50H122q-8 0-12.5 5.5T107 261l11 70q3 15 19 15h65L101 696q-1 2-1 6 0 13 15 13h127q16 0 19-15l69-314h3l167 316q6 13 20 13h139q15 0 15-11 0-4-3-10L452 346h56q8 0 12-5t3-13l-12-70q-3-16-18-16H387l-9-50h103q8 0 12-5t3-13l-12-70q-1-7-5.5-11.5T466 88H360l-15-72q-1-16-18-16H205q-8 0-12.5 5.5z"/><glyph glyph-name="brokenbar" unicode="¦" horiz-adv-x="271" d="M98.5 419.5Q94 425 96 433l73 412q3 16 18 16h105q9 0 13.5-5.5T308 842l-73-412q-3-16-18-16H111q-8 0-12.5 5.5zM1-134q-4 5-3 14l74 413q2 16 18 16h105q8 0 12.5-5.5T211 290l-73-413q-3-16-18-16H14q-9 0-13 5z"/><glyph glyph-name="section" unicode="§" horiz-adv-x="498" d="M334.5-127Q273-175 185-175q-66 0-115.5 28.5T-6-72q-3 4-3 9 0 8 8 14l78 61q5 4 10 4 8 0 14-9 16-23 40.5-35.5T193-41q30 0 52.5 16.5T273 20q4 24-17 39.5T187 96q-46 20-76 37.5T59.5 181 38 254q0 56 28.5 99.5T142 421q-16 20-25.5 47t-9.5 57q0 15 3 31 9 55 42 94t80 58.5 99 19.5q88 0 150-59 6-6 6-12t-7-13l-69-63q-5-5-11-5-5 0-13 5-31 20-72 20-32 0-52.5-17T242 538q0-27 22-43.5t69-39.5q43-20 69.5-36.5t45.5-44 19-67.5q0-16-3-34-7-39-30.5-72.5T374 143q42-37 42-96 0-21-4-41-16-85-77.5-133zM173 281q0-28 25-45.5t81-31.5q19 11 32.5 30t17.5 38q4 26-19 44t-81 37q-46-23-55-60-1-4-1-12z"/><glyph glyph-name="dieresis" unicode="¨" horiz-adv-x="349" d="M185.5 619Q164 600 133 600q-27 0-43.5 16.5T73 660q0 39 23.5 62.5T156 746q26 0 42.5-16t16.5-42q0-5-2-17-6-33-27.5-52zm208.5 0q-21-19-52-19-27 0-44 16.5T281 660q0 39 23.5 62.5T364 746q26 0 42.5-16t16.5-42q0-5-2-17-6-33-27-52z"/><glyph glyph-name="copyright" unicode="©" horiz-adv-x="779" d="M675.5 153Q616 72 530.5 29.5T348-13q-83 0-151.5 35.5T88.5 124 49 279q0 39 7 75 20 116 80.5 200.5t148 129T470 728q82 0 148-37t104.5-105.5T761 425q0-41-7-79-19-112-78.5-193zM123 285q0-108 65.5-166.5T361 60q75 0 142.5 34T619 193.5 682 350q6 39 6 72 0 112-63.5 172T458 654q-78 0-147-35T193 516t-64-164q-6-36-6-67zm254-137q-60 0-100.5 34T236 276q0 16 3 32l16 87q14 77 66 117t124 40q69 0 115-43 6-4 6-11t-6-13l-49-57q-6-6-12-6-7 0-12 4-24 21-57 21-25 0-42-14.5T366 390l-14-79q-2-12-2-16 0-21 13-31t34-10q37 0 71 23 5 4 11 4 8 0 12-10l28-55q3-6 3-10 0-7-7-13-57-45-138-45z"/><glyph glyph-name="guillemotleft" unicode="«" horiz-adv-x="558" d="M126 84L35 278q-3 6-3 11 0 6 5 13l162 199q8 10 21 10h110q15 0 15-10 0-7-5-12L174 291l94-199q2-6 2-9 0-12-16-12H147q-14 0-21 13zm225 0l-91 194q-3 6-3 11 0 6 5 13l162 199q8 10 21 10h110q15 0 15-10 0-7-5-12L399 291l94-199q2-6 2-9 0-12-16-12H372q-14 0-21 13z"/><glyph glyph-name="logicalnot" unicode="¬" horiz-adv-x="630" d="M391 133q-4 5-3 14l25 138H97q-8 0-12.5 5.5T82 304l17 97q1 15 18 15h430q8 0 12-5t3-14l-45-253q-1-7-5.5-11.5T499 128h-96q-8 0-12 5z"/><glyph glyph-name="registered" unicode="®" horiz-adv-x="475" d="M400.5 366Q335 312 244 312q-45 0-83 21t-61 60-23 90q0 22 4 42 18 94 84 148.5T319 728q46 0 84.5-20.5t61-59.5 22.5-91q0-22-4-42-17-95-82.5-149zM124 484q0-61 36-94.5t94-33.5q67 0 118 44t65 121q4 28 4 39 0 60-36 92.5T311 685q-66 0-118-43.5T128 522q-4-28-4-38zm73-56l33 191q1 7 8 7h71q29 0 47-13.5t18-38.5q0-33-17.5-53T313 496l38-68q4-6-4-6h-34q-6 0-9 5l-33 66h-21l-11-65q-1-6-8-6h-28q-7 0-6 6zm93 104q39 0 39 33 0 21-27 21h-36l-9-54h33z"/><glyph glyph-name="macron" unicode="¯" horiz-adv-x="303" d="M85.5 711.5Q90 716 98 716h263q8 0 12.5-5.5T376 697l-13-69q-3-16-18-16H83q-9 0-13.5 5.5T67 631l13 69q1 7 5.5 11.5z"/><glyph glyph-name="degree" unicode="°" horiz-adv-x="375" d="M333.5 447.5Q283 405 212 405q-59 0-95.5 35.5T80 535q0 16 3 34 13 74 64 114t122 40q59 0 95-33.5t36-92.5q0-16-3-34-13-73-63.5-115.5zM175 550q0-26 15-38.5t40-12.5q28 0 48.5 17t26.5 50q1 5 1 14 0 25-14.5 37T253 629q-29 0-50-16t-27-47q-1-6-1-16z"/><glyph glyph-name="plusminus" unicode="±" horiz-adv-x="630" d="M243.5 212.5Q239 218 241 226l24 135H117q-8 0-12.5 5.5T102 380l19 102q3 15 18 15h149l25 140q3 16 19 16h98q9 0 13-5t2-14l-24-137h147q8 0 12-5t3-14l-18-102q-3-15-18-15H397l-24-138q-1-7-5.5-11.5T355 207h-98q-9 0-13.5 5.5zM49 35q-4 5-2 14l16 91q3 16 18 16h430q9 0 13-5t3-14l-16-91q-3-16-18-16H62q-9 0-13 5z"/><glyph glyph-name="two.sups" unicode="²" horiz-adv-x="320" d="M51.5 415.5Q47 421 49 429l9 54q3 12 12 20l124 98q36 29 53.5 50.5T265 690q0 22-29 22-34 0-74-27-7-5-12-5-9 0-13 10l-23 43q-2 6-2 9 0 9 8 15 64 46 134 46 54 0 84-28.5t30-72.5q0-38-21-70t-73-80q-28-25-64-47h112q8 0 12-5t3-14l-11-60q-1-7-5.5-11.5T308 410H65q-9 0-13.5 5.5z"/><glyph glyph-name="three.sups" unicode="³" horiz-adv-x="328" d="M298.5 439Q253 405 184 405q-82 0-129 55-5 7-5 11 0 7 6 13l42 45q6 6 12 6t13-7q29-27 69-27 27 0 43.5 12.5T257 549q1 3 1 9 0 16-12.5 24.5T211 591q-8 0-24-2h-5q-13 0-16 13l-5 20-1 5q0 10 9 17l24 24q31 28 53 42H129q-8 0-12 5t-3 14l10 53q2 16 18 16h226q9 0 13-5t3-14l-6-36q-2-11-13-20l-92-76q10 0 21-2 29-7 46-28.5t17-56.5q0-17-2-26-11-61-56.5-95z"/><glyph glyph-name="acute" unicode="´" horiz-adv-x="272" d="M73 605q0 4 5 11l107 132q9 10 22 10h104q7 0 11-2.5t4-7.5q0-6-6-12L187 604q-8-9-21-9H88q-15 0-15 10z"/><glyph glyph-name="paragraph" unicode="¶" horiz-adv-x="723" d="M202.5-133.5Q198-128 200-120l59 330q-62 0-108 26t-70.5 73T56 416q0 22 5 54 13 69 53.5 125T219 683t142 32h348q8 0 12.5-5.5T725 696L581-123q-2-16-18-16H457q-8 0-12.5 5.5T442-120l121 692H461L339-123q-3-16-18-16H216q-9 0-13.5 5.5z"/><glyph glyph-name="periodcentered" unicode="·" horiz-adv-x="251" d="M193 256q-27-28-70-28-36 0-57.5 22.5T44 308q0 43 26.5 70.5T140 406q36 0 58-22.5t22-57.5q0-42-27-70z"/><glyph glyph-name="cedilla" unicode="¸" horiz-adv-x="177" d="M98.5-185.5Q62-210-4-210q-35 0-59 8-15 3-13 20l4 33q3 16 21 11 14-3 28-3 56 0 56 34 0 9-7.5 14.5T0-85q-15 2-21 13v1q0 2 6 13L13-7Q19 5 34 5h35Q84 5 84-7q0-5-3-9L63-45q32-3 52-22t20-48q0-46-36.5-70.5z"/><glyph glyph-name="one.sups" unicode="¹" horiz-adv-x="240" d="M131 415q-4 5-3 14l44 249-37-23q-6-3-10-3-8 0-13 9l-25 50q-2 6-2 9 0 10 9 14l95 58q11 6 22 6h63q9 0 13-5t3-14l-63-353q-3-16-19-16h-64q-9 0-13 5z"/><glyph glyph-name="guillemotright" unicode="»" horiz-adv-x="557" d="M217 498l91-194q3-6 3-11 0-6-5-13L144 81q-8-10-21-10H13Q-2 71-2 81q0 7 5 12l166 198-94 199q-2 6-2 9 0 12 16 12h107q14 0 21-13zm225 0l91-194q3-6 3-11 0-6-5-13L369 81q-8-10-21-10H238q-15 0-15 10 0 7 5 12l166 198-94 199q-2 6-2 9 0 12 16 12h107q14 0 21-13z"/><glyph glyph-name="onequarter" unicode="¼" horiz-adv-x="866" d="M135 332q-4 5-2 14l44 249-38-23q-5-3-10-3-8 0-13 9l-24 50q-2 3-2 9 0 9 8 14l96 58q10 6 21 6h63q9 0 13.5-5.5T294 696l-63-353q-2-16-19-16h-64q-9 0-13 5zM179 0h-69q-7 0-11 3t-4 7q0 6 4 11l524 683q8 11 21 11h68q7 0 11-2.5t4-7.5q0-6-4-11L200 11q-8-11-21-11zm636 151.5q4-5.5 2-13.5l-10-57q-3-16-19-16h-22l-8-49q-3-16-19-16h-66q-8 0-12.5 5.5T658 19l8 46H507q-9 0-13.5 5.5T491 84l9 52q1 9 8 21l149 220q7 11 22 11h68q7 0 11-2.5t4-7.5q0-6-4-11L617 157h67l15 59q3 14 19 14h59q8 0 12.5-5.5T793 211l-10-54h21q7 0 11-5.5z"/><glyph glyph-name="onehalf" unicode="½" horiz-adv-x="823" d="M134 332q-4 5-2 14l44 249-38-23q-5-3-10-3-8 0-13 9l-24 50q-2 3-2 9 0 9 8 14l96 58q10 6 21 6h63q9 0 13.5-5.5T293 696l-63-353q-2-16-19-16h-64q-9 0-13 5zM167 0H98q-7 0-11 3t-4 7q0 6 4 11l524 683q8 11 21 11h68q7 0 11-2.5t4-7.5q0-6-4-11L188 11q-8-11-21-11zm300.5 5.5Q463 11 465 19l9 54q3 12 12 20l124 98q36 29 53.5 50.5T681 280q0 22-29 22-34 0-74-27-7-5-12-5-9 0-13 10l-23 43q-2 8-2 10 0 9 8 14 64 46 134 46 54 0 84-28.5t30-72.5q0-38-21-70t-73-80q-33-28-64-47h111q9 0 13-5t3-14l-11-60q-3-16-19-16H481q-9 0-13.5 5.5z"/><glyph glyph-name="threequarters" unicode="¾" horiz-adv-x="933" d="M298.5 356.5Q253 322 184 322q-81 0-129 56-5 7-5 11 0 7 6 13l42 44q6 6 12 6 5 0 13-6 28-28 69-28 27 0 43.5 12.5T257 466q1 3 1 9 0 33-47 33-16 0-24-2h-5q-13 0-16 13l-5 20-1 5q0 9 9 18l72 66H129q-18 0-15 19l10 53q2 15 18 15h226q9 0 13-5t3-14l-6-35q-3-13-13-20l-92-76q10 0 21-3 29-7 46-28.5t17-55.5q0-17-2-26-11-61-56.5-95.5zM256 0h-69q-7 0-11 3t-4 7q0 6 4 11l524 683q8 11 21 11h68q7 0 11-2.5t4-7.5q0-6-4-11L277 11q-8-11-21-11zm629 151.5q4-5.5 2-13.5l-10-57q-3-16-19-16h-22l-8-49q-3-16-19-16h-66q-8 0-12.5 5.5T728 19l8 46H577q-9 0-13.5 5.5T561 84l9 52q1 9 8 21l149 220q7 11 22 11h68q7 0 11-2.5t4-7.5q0-6-4-11L687 157h67l15 59q3 14 19 14h59q8 0 12.5-5.5T863 211l-10-54h21q7 0 11-5.5z"/><glyph glyph-name="questiondown" unicode="¿" horiz-adv-x="492" d="M233 506q27 28 68 28 35 0 56.5-22t21.5-56q0-44-26.5-71.5T284 357q-35 0-56.5 22T206 436q0 42 27 70zm104-202q4-5 2-14l-6-38q-7-40-25-67.5T269 140t-56-38q-41-26-61.5-46T125 3q-2-12-2-18 0-27 19-43t60-16 75 15 66 40q5 5 11 5 8 0 12-10l37-82q2-6 2-10 0-7-7-13-94-75-216-75-84 0-142 43.5T-18-33q0 24 4 45 7 43 25 72.5t39.5 47T105 171q41 27 62.5 49t29.5 59l3 20q1 10 17 10h107q9 0 13-5z"/><glyph glyph-name="Agrave" unicode="À" horiz-adv-x="630" d="M426 16l-14 117H187L133 13q-4-13-20-13H-24q-15 0-15 11 0 4 3 10l333 681q6 13 20 13h146q16 0 19-16L585 18v-4q0-14-16-14H444q-17 0-18 16zm-78 484q-62-147-98-225h146l-27 266h-4zm-4 283l-93 132q-5 7-5 11t4 7 11 3h106q15 0 21-12l71-130q3-4 3-9t-4-8.5-11-3.5h-82q-14 0-21 10z"/><glyph glyph-name="Aacute" unicode="Á" horiz-adv-x="630" d="M426 16l-14 117H187L133 13q-4-13-20-13H-24q-15 0-15 11 0 4 3 10l333 681q6 13 20 13h146q16 0 19-16L585 18v-4q0-14-16-14H444q-17 0-18 16zm-78 484q-62-147-98-225h146l-27 266h-4zm-22 283q0 5 5 12l115 131q9 10 21 10h112q7 0 11-2.5t4-7.5q0-6-6-12L446 781q-10-8-20-8h-85q-15 0-15 10z"/><glyph glyph-name="Acircumflex" unicode="Â" horiz-adv-x="630" d="M426 16l-14 117H187L133 13q-4-13-20-13H-24q-15 0-15 11 0 4 3 10l333 681q6 13 20 13h146q16 0 19-16L585 18v-4q0-14-16-14H444q-17 0-18 16zm-78 484q-62-147-98-225h146l-27 266h-4zM224 770q-4 3-4 7 0 6 6 12l134 132q9 9 21 9h93q14 0 21-11l85-131q3-6 3-10 0-11-14-11H469q-14 0-21 12l-35 64-59-66q-10-10-21-10h-98q-7 0-11 3z"/><glyph glyph-name="Atilde" unicode="Ã" horiz-adv-x="630" d="M426 16l-14 117H187L133 13q-4-13-20-13H-24q-15 0-15 11 0 4 3 10l333 681q6 13 20 13h146q16 0 19-16L585 18v-4q0-14-16-14H444q-17 0-18 16zm-78 484q-62-147-98-225h146l-27 266h-4zm183.5 291Q500 764 465 764q-15 0-30.5 5t-28 10.5T390 787q-38 16-52 16-20 0-38-22-6-8-15-8-5 0-9 3l-50 32q-10 5-10 14 0 5 3 9 19 35 50 61t67 26q18 0 34-5.5t40-16.5q15-7 29-12t23-5q19 0 38 22 6 8 15 8 5 0 9-3l51-32q9-4 9-13 0-5-2-8-19-35-50.5-62z"/><glyph glyph-name="Adieresis" unicode="Ä" horiz-adv-x="630" d="M427 16l-14 117H188L134 13q-4-13-20-13H-23q-15 0-15 11 0 4 3 10l333 681q6 13 20 13h146q16 0 19-16L586 18v-4q0-14-16-14H445q-17 0-18 16zm-78 484q-62-147-98-225h146l-27 266h-4zm-1 285q-23-20-55-20-30 0-46 17.5T231 827q0 37 24.5 61.5T316 913q29 0 45.5-17.5T378 852q0-9-1-14-6-33-29-53zm217.5 4Q541 765 505 765q-30 0-46 17t-16 43q0 39 24 63.5t61 24.5q29 0 45.5-17.5T590 851q0-38-24.5-62z"/><glyph glyph-name="Aring" unicode="Å" horiz-adv-x="630" d="M501.5 784.5Q461 755 397 755q-49 0-81 28.5T284 856q0 14 2 22 11 52 51.5 81.5T443 989q48 0 80-29t32-73q0-6-2-20-11-53-51.5-82.5zM412 830q24 0 39.5 14t15.5 37q0 16-10.5 24t-29.5 8q-24 0-40-14t-16-37q0-32 41-32zm14-814l-14 117H187L133 13q-4-13-20-13H-24q-15 0-15 11 0 4 3 10l333 681q6 13 20 13h146q16 0 19-16L585 18v-4q0-14-16-14H444q-17 0-18 16zm-78 484q-62-147-98-225h146l-27 266h-4z"/><glyph glyph-name="AE" unicode="Æ" horiz-adv-x="883" d="M867 573H609l-25-142h225q8 0 12.5-5.5T824 412l-17-104q-3-16-18-16H561l-26-150h269q9 0 13-5t3-14L800 16q-1-16-18-16H370q-9 0-13 5t-3 14l22 119H207L132 12q-7-12-21-12H-32q-14 0-14 11 0 4 3 10l428 683q7 11 21 11h482q9 0 13.5-5.5T904 696l-19-107q-3-16-18-16zm-417-20h-4L288 280h113z"/><glyph glyph-name="Ccedilla" unicode="Ç" horiz-adv-x="570" d="M310-12l-22-40q38-4 57-25.5t15-53.5q-10-88-143-88-34 0-57 8-14 3-12 20l5 35q1 12 13 12 5 0 8-1 13-3 28-3 47 0 54 29 5 23-34 27-15 2-21 13v1q0 2 6 13l29 55Q147 2 96 59T45 209q0 31 6 64l35 203q21 122 105 187t209 65q57 0 108-18t89-50q7-4 7-12 0-5-5-12l-73-86q-4-7-12-7-7 0-12 4-52 36-116 36-59 0-95-33t-45-90l-35-202q-3-16-3-31 0-46 26.5-70t77.5-24q35 0 72.5 11.5T453 177q6 3 10 3 8 0 14-10l47-98q3-7 3-11 0-7-6-10-95-58-211-63z"/><glyph glyph-name="Egrave" unicode="È" horiz-adv-x="572" d="M557 572H285l-25-139h238q8 0 12-5t3-14l-19-105q-3-16-18-16H235l-26-149h283q8 0 12.5-5.5T508 125L490 16q-3-16-19-16H44q-9 0-13 5t-3 14l121 680q3 16 18 16h411q9 0 13.5-5.5T594 696l-19-108q-3-16-18-16zM333 783l-93 132q-5 7-5 11t4 7 11 3h106q15 0 21-12l71-130q3-4 3-9t-4-8.5-11-3.5h-82q-14 0-21 10z"/><glyph glyph-name="Eacute" unicode="É" horiz-adv-x="572" d="M557 572H285l-25-139h238q8 0 12-5t3-14l-19-105q-3-16-18-16H235l-26-149h283q8 0 12.5-5.5T508 125L490 16q-3-16-19-16H44q-9 0-13 5t-3 14l121 680q3 16 18 16h411q9 0 13.5-5.5T594 696l-19-108q-3-16-18-16zM308 773q0 5 5 12l115 131q9 10 21 10h112q7 0 11-2.5t4-7.5q0-6-6-12L428 771q-10-8-20-8h-85q-15 0-15 10z"/><glyph glyph-name="Ecircumflex" unicode="Ê" horiz-adv-x="572" d="M557 572H285l-25-139h238q8 0 12-5t3-14l-19-105q-3-16-18-16H235l-26-149h283q8 0 12.5-5.5T508 125L490 16q-3-16-19-16H44q-9 0-13 5t-3 14l121 680q3 16 18 16h411q9 0 13.5-5.5T594 696l-19-108q-3-16-18-16zM204 772q-4 3-4 7 0 6 6 12l134 132q9 9 21 9h93q14 0 21-11l85-131q3-6 3-10 0-11-14-11H449q-14 0-21 12l-35 64-59-66q-10-10-21-10h-98q-7 0-11 3z"/><glyph glyph-name="Edieresis" unicode="Ë" horiz-adv-x="572" d="M557 572H285l-25-139h238q8 0 12-5t3-14l-19-105q-3-16-18-16H235l-26-149h283q8 0 12.5-5.5T508 125L490 16q-3-16-19-16H44q-9 0-13 5t-3 14l121 680q3 16 18 16h411q9 0 13.5-5.5T594 696l-19-108q-3-16-18-16zM335 785q-23-20-55-20-30 0-46 17.5T218 827q0 37 24.5 61.5T303 913q29 0 45.5-17.5T365 852q0-9-1-14-6-33-29-53zm217.5 4Q528 765 492 765q-30 0-46 17t-16 43q0 39 24 63.5t61 24.5q29 0 45.5-17.5T577 851q0-38-24.5-62z"/><glyph glyph-name="Igrave" unicode="Ì" horiz-adv-x="300" d="M168 0H44q-8 0-12.5 5.5T28 19l120 680q3 16 19 16h123q9 0 13.5-5.5T306 696L186 16q-3-16-18-16zm27 774l-93 132q-5 7-5 11t4 7 11 3h106q15 0 21-12l71-130q3-4 3-9t-4-8.5-11-3.5h-82q-14 0-21 10z"/><glyph glyph-name="Iacute" unicode="Í" horiz-adv-x="300" d="M168 0H44q-8 0-12.5 5.5T28 19l120 680q3 16 19 16h123q9 0 13.5-5.5T306 696L186 16q-3-16-18-16zm0 775q0 5 5 12l115 131q9 10 21 10h112q7 0 11-2.5t4-7.5q0-6-6-12L288 773q-10-8-20-8h-85q-15 0-15 10z"/><glyph glyph-name="Icircumflex" unicode="Î" horiz-adv-x="300" d="M77 762q-4 3-4 7 0 6 6 12l131 137q9 9 21 9h70q13 0 20-12l81-135q3-4 3-10 0-5-3.5-8t-10.5-3h-93q-15 0-21 13l-24 50-48-53q-9-10-21-10H88q-7 0-11 3zM168 0H44q-9 0-13 5t-3 14l120 680q3 16 19 16h123q9 0 13.5-5.5T306 696L186 16q-3-16-18-16z"/><glyph glyph-name="Idieresis" unicode="Ï" horiz-adv-x="300" d="M198 785q-23-20-55-20-30 0-46 17.5T81 827q0 37 24.5 61.5T166 913q29 0 45.5-17.5T228 852q0-9-1-14-6-33-29-53zm206 4.5Q380 765 343 765q-30 0-46 17.5T281 827q0 9 1 13 6 33 29 53t55 20q29 0 45.5-17t16.5-43q0-39-24-63.5zM168 0H44q-8 0-12.5 5.5T28 19l120 680q3 16 19 16h123q9 0 13.5-5.5T306 696L186 16q-3-16-18-16z"/><glyph glyph-name="Eth" unicode="Ð" horiz-adv-x="662" d="M582 659.5Q647 604 647 497q0-32-6-68l-28-165Q589 122 509 61T296 0H57q-8 0-12.5 5.5T42 19l52 298H34q-8 0-12 5t-3 13l11 62q3 15 19 15h61l52 287q2 16 18 16h236q101 0 166-55.5zM486 489q0 42-22 61.5T398 570H297l-28-158h91q8 0 12-5t3-14l-11-61q-1-15-18-15h-93l-31-172h100q53 0 85 30t44 96l31 178q4 20 4 40z"/><glyph glyph-name="Ntilde" unicode="Ñ" horiz-adv-x="685" d="M30.5 5.5Q26 11 28 19l120 680q1 7 5.5 11.5T166 715h132q17 0 20-14l79-237q34-109 62-215l5 1q15 129 40 277l30 172q3 16 18 16h122q9 0 13.5-5.5T690 696L570 16q-3-16-19-16H420q-14 0-20 14l-79 212q-20 51-39.5 120.5T252 464l-4-2q-18-185-38-296L184 16q-3-16-18-16H43q-8 0-12.5 5.5zm541 791.5Q540 770 505 770q-15 0-30.5 5t-28 10.5T430 793q-38 16-52 16-20 0-38-22-6-8-15-8-5 0-9 3l-50 32q-10 5-10 14 0 5 3 9 19 35 50 61t67 26q18 0 34-5.5t40-16.5q15-7 29-12t23-5q19 0 38 22 6 8 15 8 5 0 9-3l51-32q9-4 9-13 0-5-2-8-19-35-50.5-62z"/><glyph glyph-name="Ograve" unicode="Ò" horiz-adv-x="656" d="M500 57q-85-70-220-70-110 0-171.5 63.5T47 221q0 32 6 68l31 177q22 123 107 192.5T407 728q111 0 174-61.5T644 498q0-31-6-66l-31-177Q585 127 500 57zM209 235q0-47 24-74.5t70-27.5q58 0 95 34.5t48 96.5l32 183q3 20 3 36 0 46-24 72.5T386 582q-58 0-94-33.5T245 452l-33-181q-3-19-3-36zm164 548l-93 132q-5 7-5 11t4 7 11 3h106q15 0 21-12l71-130q3-4 3-9t-4-8.5-11-3.5h-82q-14 0-21 10z"/><glyph glyph-name="Oacute" unicode="Ó" horiz-adv-x="656" d="M500 57q-85-70-220-70-110 0-171.5 63.5T47 221q0 32 6 68l31 177q22 123 107 192.5T407 728q111 0 174-61.5T644 498q0-31-6-66l-31-177Q585 127 500 57zM209 235q0-47 24-74.5t70-27.5q58 0 95 34.5t48 96.5l32 183q3 20 3 36 0 46-24 72.5T386 582q-58 0-94-33.5T245 452l-33-181q-3-19-3-36zm134 549q0 5 5 12l115 131q9 10 21 10h112q7 0 11-2.5t4-7.5q0-6-6-12L463 782q-10-8-20-8h-85q-15 0-15 10z"/><glyph glyph-name="Ocircumflex" unicode="Ô" horiz-adv-x="656" d="M500 57q-85-70-220-70-110 0-171.5 63.5T47 221q0 32 6 68l31 177q22 123 107 192.5T407 728q111 0 174-61.5T644 498q0-31-6-66l-31-177Q585 127 500 57zM209 235q0-47 24-74.5t70-27.5q58 0 95 34.5t48 96.5l32 183q3 20 3 36 0 46-24 72.5T386 582q-58 0-94-33.5T245 452l-33-181q-3-19-3-36zm32 533q-4 3-4 7 0 6 6 12l134 132q9 9 21 9h93q14 0 21-11l85-131q3-6 3-10 0-11-14-11H486q-14 0-21 12l-35 64-59-66q-10-10-21-10h-98q-7 0-11 3z"/><glyph glyph-name="Otilde" unicode="Õ" horiz-adv-x="656" d="M500 57q-85-70-220-70-110 0-171.5 63.5T47 221q0 32 6 68l31 177q22 123 107 192.5T407 728q111 0 174-61.5T644 498q0-31-6-66l-31-177Q585 127 500 57zM209 235q0-47 24-74.5t70-27.5q58 0 95 34.5t48 96.5l32 183q3 20 3 36 0 46-24 72.5T386 582q-58 0-94-33.5T245 452l-33-181q-3-19-3-36zm344.5 566Q522 774 487 774q-15 0-30.5 5t-28 10.5T412 797q-38 16-52 16-20 0-38-22-6-8-15-8-5 0-9 3l-50 32q-10 5-10 14 0 5 3 9 19 35 50 61t67 26q18 0 34-5.5t40-16.5q15-7 29-12t23-5q19 0 38 22 6 8 15 8 5 0 9-3l51-32q9-4 9-13 0-5-2-8-19-35-50.5-62z"/><glyph glyph-name="Odieresis" unicode="Ö" horiz-adv-x="656" d="M500 57q-85-70-220-70-110 0-171.5 63.5T47 221q0 32 6 68l31 177q22 123 107 192.5T407 728q111 0 174-61.5T644 498q0-31-6-66l-31-177Q585 127 500 57zM209 235q0-47 24-74.5t70-27.5q58 0 95 34.5t48 96.5l32 183q3 20 3 36 0 46-24 72.5T386 582q-58 0-94-33.5T245 452l-33-181q-3-19-3-36zm158 559q-23-20-55-20-30 0-46 17.5T250 836q0 37 24.5 61.5T335 922q29 0 45.5-17.5T397 861q0-9-1-14-6-33-29-53zm217.5 4Q560 774 524 774q-30 0-46 17t-16 43q0 39 24 63.5t61 24.5q29 0 45.5-17.5T609 860q0-38-24.5-62z"/><glyph glyph-name="multiply" unicode="×" horiz-adv-x="630" d="M601 496q0-7-7-13L423 331l115-147q5-7 5-12 0-6-7-12l-84-74q-6-6-12-6-8 0-12 7L313 234 145 86q-5-5-12-5t-13 7l-59 72q-4 5-4 11 0 7 7 14l170 150-116 148q-5 7-5 12 0 7 7 13l84 74q7 5 12 5 6 0 12-7l116-148 169 150q5 5 12 5t13-7l58-73q5-7 5-11z"/><glyph glyph-name="Oslash" unicode="Ø" horiz-adv-x="656" d="M500 57q-85-70-220-70-59 0-111 21l-39-60q-6-12-21-12H23q-7 0-11 2.5T8-54q0 4 5 11L88 74q-41 59-41 146 0 33 6 69l31 177q22 123 107 192.5T407 728q61 0 109-20l34 51q6 12 21 12h86q7 0 11-2.5t4-7.5q0-4-5-11l-69-104q46-58 46-149 0-30-6-65l-31-177Q585 127 500 57zM209 235q0-47 24-74.5t70-27.5q58 0 95 34.5t48 96.5l32 183q3 20 3 36 0 46-24 72.5T386 582q-58 0-94-33.5T245 452l-33-181q-3-19-3-36z"/><glyph glyph-name="Ugrave" unicode="Ù" horiz-adv-x="665" d="M497.5 55.5Q419-12 287-12q-106 0-165.5 59.5T62 213q0 34 6 71l74 415q3 16 18 16h126q9 0 13.5-5.5T302 696l-77-430q-3-19-3-37 0-46 23-70t65-24q51 0 84.5 31.5T439 259l76 440q3 16 18 16h126q8 0 12.5-5.5T675 696l-78-449q-21-124-99.5-191.5zM371 783l-93 132q-5 7-5 11t4 7 11 3h106q15 0 21-12l71-130q3-4 3-9t-4-8.5-11-3.5h-82q-14 0-21 10z"/><glyph glyph-name="Uacute" unicode="Ú" horiz-adv-x="665" d="M497.5 55.5Q419-12 287-12q-106 0-165.5 59.5T62 213q0 34 6 71l74 415q3 16 18 16h126q9 0 13.5-5.5T302 696l-77-430q-3-19-3-37 0-46 23-70t65-24q51 0 84.5 31.5T439 259l76 440q3 16 18 16h126q8 0 12.5-5.5T675 696l-78-449q-21-124-99.5-191.5zM346 779q0 5 5 12l115 131q9 10 21 10h112q7 0 11-2.5t4-7.5q0-6-6-12L466 777q-10-8-20-8h-85q-15 0-15 10z"/><glyph glyph-name="Ucircumflex" unicode="Û" horiz-adv-x="665" d="M497.5 55.5Q419-12 287-12q-106 0-165.5 59.5T62 213q0 34 6 71l74 415q3 16 18 16h126q9 0 13.5-5.5T302 696l-77-430q-3-19-3-37 0-46 23-70t65-24q51 0 84.5 31.5T439 259l76 440q3 16 18 16h126q8 0 12.5-5.5T675 696l-78-449q-21-124-99.5-191.5zM244 776q-4 3-4 7 0 6 6 12l134 132q9 9 21 9h93q14 0 21-11l85-131q3-6 3-10 0-11-14-11H489q-14 0-21 12l-35 64-59-66q-10-10-21-10h-98q-7 0-11 3z"/><glyph glyph-name="Udieresis" unicode="Ü" horiz-adv-x="665" d="M497.5 55.5Q419-12 287-12q-106 0-165.5 59.5T62 213q0 34 6 71l74 415q3 16 18 16h126q9 0 13.5-5.5T302 696l-77-430q-3-19-3-37 0-46 23-70t65-24q51 0 84.5 31.5T439 259l76 440q3 16 18 16h126q8 0 12.5-5.5T675 696l-78-449q-21-124-99.5-191.5zM373 804q-23-20-55-20-30 0-46 17.5T256 846q0 37 24.5 61.5T341 932q29 0 45.5-17.5T403 871q0-9-1-14-6-33-29-53zm217.5 4Q566 784 530 784q-30 0-46 17t-16 43q0 39 24 63.5t61 24.5q29 0 45.5-17.5T615 870q0-38-24.5-62z"/><glyph glyph-name="Yacute" unicode="Ý" horiz-adv-x="582" d="M170 5q-4 5-3 14l44 238L78 696q-1 2-1 6 0 6 4 9.5t11 3.5h130q15 0 18-15l73-295h2l170 298q8 12 20 12h138q14 0 14-11 0-4-3-10L371 254 326 16q-3-16-18-16H183q-9 0-13 5zm128 770q0 5 5 12l115 131q9 10 21 10h112q7 0 11-2.5t4-7.5q0-6-6-12L418 773q-10-8-20-8h-85q-15 0-15 10z"/><glyph glyph-name="Thorn" unicode="Þ" horiz-adv-x="621" d="M546 557.5Q606 500 606 406q0-23-5-55-19-110-93.5-173T315 115H202l-17-99q-3-16-18-16H44q-9 0-13 5t-3 14l120 680q1 7 5.5 11.5T166 715h125q8 0 12.5-5.5T306 696l-14-81h86q108 0 168-57.5zm-143.5-271Q434 314 442 366q2 10 2 27 0 78-90 78h-88l-38-212h90q53 0 84.5 27.5z"/><glyph glyph-name="germandbls" unicode="ß" horiz-adv-x="567" d="M462 703.5q44-24.5 67.5-67T553 543q0-22-4-41-7-40-33-75t-66-51q37-20 57-54.5t20-80.5q0-24-4-44-17-97-81.5-151T282-8q-40 0-70 8-16 4-13 21l17 94q1 8 7 12t14 2q22-5 40-5 41 0 70 29.5t29 80.5q0 31-19.5 46.5T303 296h-35q-9 0-13 5t-3 14l17 96q3 15 19 15h37q32 0 55.5 30t23.5 75q0 31-16.5 48T342 596q-78 0-96-100L160 16q-3-16-18-16H26q-8 0-12 5t-3 14l88 490q19 107 88 163t171 56q60 0 104-24.5z"/><glyph glyph-name="agrave" unicode="à" horiz-adv-x="505" d="M198-13q-91 0-142.5 42T4 141q0 17 3 35 25 140 227 140 45 0 85-8l2 16q2 9 2 24 0 26-16 39t-54 13q-33 0-64.5-6T134 377q-6-3-10-3-8 0-13 11l-31 82q-2 8-2 10 0 8 5 10 36 22 90 34.5T287 534q88 0 136.5-47.5T472 354q0-28-6-60L421 41q-3-15-15-19-100-35-208-35zm19 125q33 0 69 8l14 87q-33 7-64 7-81 0-81-58 0-44 62-44zm141 487q0-11-14-11h-69q-14 0-21 11l-85 131q-4 5-4 10t4 8 11 3h93q13 0 20-13l63-130q2-3 2-9z"/><glyph glyph-name="aacute" unicode="á" horiz-adv-x="505" d="M198-13q-91 0-142.5 42T4 141q0 17 3 35 25 140 227 140 45 0 85-8l2 16q2 9 2 24 0 26-16 39t-54 13q-33 0-64.5-6T134 377q-6-3-10-3-8 0-13 11l-31 82q-2 8-2 10 0 8 5 10 36 22 90 34.5T287 534q88 0 136.5-47.5T472 354q0-28-6-60L421 41q-3-15-15-19-100-35-208-35zm19 125q33 0 69 8l14 87q-33 7-64 7-81 0-81-58 0-44 62-44zm2 483q0 4 5 11l107 132q9 10 22 10h104q7 0 11-2.5t4-7.5q0-6-6-12L333 594q-8-9-21-9h-78q-15 0-15 10z"/><glyph glyph-name="acircumflex" unicode="â" horiz-adv-x="505" d="M198-13q-91 0-142.5 42T4 141q0 17 3 35 25 140 227 140 45 0 85-8l2 16q2 9 2 24 0 26-16 39t-54 13q-33 0-64.5-6T134 377q-6-3-10-3-8 0-13 11l-31 82q-2 8-2 10 0 8 5 10 36 22 90 34.5T287 534q88 0 136.5-47.5T472 354q0-28-6-60L421 41q-3-15-15-19-100-35-208-35zm19 125q33 0 69 8l14 87q-33 7-64 7-81 0-81-58 0-44 62-44zm254 484q0-11-15-11h-85q-16 0-21 12l-37 65-63-68q-9-9-22-9h-90q-15 0-15 10 0 5 6 11l133 133q9 9 21 9h81q14 0 21-12l83-130q3-6 3-10z"/><glyph glyph-name="atilde" unicode="ã" horiz-adv-x="505" d="M198-13q-91 0-142.5 42T4 141q0 17 3 35 25 140 227 140 45 0 85-8l2 16q2 9 2 24 0 26-16 39t-54 13q-33 0-64.5-6T134 377q-6-3-10-3-8 0-13 11l-31 82q-2 8-2 10 0 8 5 10 36 22 90 34.5T287 534q88 0 136.5-47.5T472 354q0-28-6-60L421 41q-3-15-15-19-100-35-208-35zm19 125q33 0 69 8l14 87q-33 7-64 7-81 0-81-58 0-44 62-44zm225 495q-29-25-64-25-30 0-76 23-16 7-29.5 11.5T249 621q-23 0-42-22-8-8-15-8-4 0-9 3l-47 31q-9 6-9 15 0 6 2 9 21 34 50.5 58.5T247 732q29 0 73-22 18-9 30-13t22-4q19 0 39 22 6 8 14 8 3 0 11-4l47-32q9-4 9-13 0-5-2-8-19-34-48-59z"/><glyph glyph-name="adieresis" unicode="ä" horiz-adv-x="505" d="M198-13q-91 0-142.5 42T4 141q0 17 3 35 25 140 227 140 45 0 85-8l2 16q2 9 2 24 0 26-16 39t-54 13q-33 0-64.5-6T134 377q-6-3-10-3-8 0-13 11l-31 82q-2 8-2 10 0 8 5 10 36 22 90 34.5T287 534q88 0 136.5-47.5T472 354q0-28-6-60L421 41q-3-15-15-19-100-35-208-35zm19 125q33 0 69 8l14 87q-33 7-64 7-81 0-81-58 0-44 62-44zm26.5 494Q222 587 191 587q-27 0-43.5 16.5T131 647q0 39 23.5 62.5T214 733q26 0 42.5-16t16.5-42q0-5-2-17-6-33-27.5-52zm208.5 0q-21-19-52-19-27 0-44 16.5T339 647q0 39 23.5 62.5T422 733q26 0 42.5-16t16.5-42q0-5-2-17-6-33-27-52z"/><glyph glyph-name="aring" unicode="å" horiz-adv-x="505" d="M390 602.5Q351 574 293 574q-44 0-75.5 26.5T186 664q0 4 2 16 9 50 48.5 78.5T337 787q44 0 74.5-26.5T442 696q0-6-2-16-11-49-50-77.5zM277.5 648q10.5-9 28.5-9 20 0 34 11t19 30q1 4 1 11 0 14-10 22t-28 8q-23 0-39-13.5T267 672q0-15 10.5-24zM198-13q-91 0-142.5 42T4 141q0 17 3 35 25 140 227 140 45 0 85-8l2 16q2 9 2 24 0 26-16 39t-54 13q-33 0-64.5-6T134 377q-6-3-10-3-8 0-13 11l-31 82q-2 8-2 10 0 8 5 10 36 22 90 34.5T287 534q88 0 136.5-47.5T472 354q0-28-6-60L421 41q-3-15-15-19-100-35-208-35zm19 125q33 0 69 8l14 87q-33 7-64 7-81 0-81-58 0-44 62-44z"/><glyph glyph-name="ae" unicode="æ" horiz-adv-x="781" d="M208-12q-94 0-149.5 41T3 138q0 10 4 34 14 71 75 106.5T241 314q43 0 81-7l3 19q2 8 2 22 0 57-74 57-31 0-62-8t-57-21q-3-2-10-2-10 0-14 11l-33 81-2 8q0 9 10 16 86 44 193 44 47 0 81-15t59-45q32 30 72.5 45t83.5 15q84 0 135.5-47T761 359q0-20-5-48l-16-90q-1-7-5.5-11.5T722 205H447l-3-19q-1-6-1-17 0-29 16.5-43t53.5-14q71 0 134 39 5 4 11 4 9 0 13-9l37-70q3-6 3-10 0-8-9-14-44-30-99-47T489-12q-75 0-125 40-80-40-156-40zm406 316l4 24q2 14 2 20 0 28-17 43.5T556 407q-35 0-59-20.5T467 329l-5-25h152zM153 155q0-21 17.5-33t46.5-12q24 0 47 5.5t39 12.5q-3 18-3 36t1 28l3 14q-30 6-66 6-34 0-56-11.5T154 166q-1-4-1-11z"/><glyph glyph-name="ccedilla" unicode="ç" horiz-adv-x="451" d="M236-13l-15-32q32-3 52-22t20-48q0-46-36.5-70.5T154-210q-35 0-59 8-15 3-13 20l4 33q3 16 21 11 13-3 28-3 56 0 56 34 0 9-7.5 14.5T158-85q-15 2-21 13v1q0 2 6 13l24 51Q102 7 64 53T26 169q0 22 5 50l22 124q16 92 83.5 141.5T302 534q86 0 152-48 7-4 7-13 0-6-4-11l-59-76q-6-7-13-7-6 0-11 4-36 21-77 21-39 0-63-20t-31-57l-21-118q-3-15-3-27 0-32 18-48.5t49-16.5q45 0 94 29 6 3 11 3 9 0 13-9l39-86q3-4 3-10 0-8-11-14-71-40-159-43z"/><glyph glyph-name="egrave" unicode="è" horiz-adv-x="519" d="M139.5 485Q208 534 303 534q89 0 143-42t54-124q0-19-5-49l-17-97q-3-15-18-15H182l-3-14q-2-16-2-22 0-57 71-57 63 0 130 40 5 4 11 4 8 0 12-9l41-77q2-8 2-10 0-10-8-14-89-61-209-61-90 0-146.5 46T24 158q0 11 4 39l26 145q17 94 85.5 143zM353 349q0 26-16 42t-47 16q-33 0-55.5-19T205 334l-5-27h146l5 25q2 12 2 17zm22 247q0-11-14-11h-69q-14 0-21 11l-85 131q-4 5-4 10t4 8 11 3h93q13 0 20-13l63-130q2-3 2-9z"/><glyph glyph-name="eacute" unicode="é" horiz-adv-x="519" d="M139.5 485Q208 534 303 534q89 0 143-42t54-124q0-19-5-49l-17-97q-3-15-18-15H182l-3-14q-2-16-2-22 0-57 71-57 63 0 130 40 5 4 11 4 8 0 12-9l41-77q2-8 2-10 0-10-8-14-89-61-209-61-90 0-146.5 46T24 158q0 11 4 39l26 145q17 94 85.5 143zM353 349q0 26-16 42t-47 16q-33 0-55.5-19T205 334l-5-27h146l5 25q2 12 2 17zM239 595q0 4 5 11l107 132q9 10 22 10h104q7 0 11-2.5t4-7.5q0-6-6-12L353 594q-8-9-21-9h-78q-15 0-15 10z"/><glyph glyph-name="ecircumflex" unicode="ê" horiz-adv-x="519" d="M139.5 485Q208 534 303 534q89 0 143-42t54-124q0-19-5-49l-17-97q-3-15-18-15H182l-3-14q-2-16-2-22 0-57 71-57 63 0 130 40 5 4 11 4 8 0 12-9l41-77q2-8 2-10 0-10-8-14-89-61-209-61-90 0-146.5 46T24 158q0 11 4 39l26 145q17 94 85.5 143zM353 349q0 26-16 42t-47 16q-33 0-55.5-19T205 334l-5-27h146l5 25q2 12 2 17zm137 237q0-11-15-11h-85q-16 0-21 12l-37 65-63-68q-9-9-22-9h-90q-15 0-15 10 0 5 6 11l133 133q9 9 21 9h81q14 0 21-12l83-130q3-6 3-10z"/><glyph glyph-name="edieresis" unicode="ë" horiz-adv-x="519" d="M139.5 485Q208 534 303 534q89 0 143-42t54-124q0-19-5-49l-17-97q-3-15-18-15H182l-3-14q-2-16-2-22 0-57 71-57 63 0 130 40 5 4 11 4 8 0 12-9l41-77q2-8 2-10 0-10-8-14-89-61-209-61-90 0-146.5 46T24 158q0 11 4 39l26 145q17 94 85.5 143zM353 349q0 26-16 42t-47 16q-33 0-55.5-19T205 334l-5-27h146l5 25q2 12 2 17zm-85.5 250Q246 580 215 580q-27 0-43.5 16.5T155 640q0 39 23.5 62.5T238 726q26 0 42.5-16t16.5-42q0-5-2-17-6-33-27.5-52zm208.5 0q-21-19-52-19-27 0-44 16.5T363 640q0 39 23.5 62.5T446 726q26 0 42.5-16t16.5-42q0-5-2-17-6-33-27-52z"/><glyph glyph-name="igrave" unicode="ì" horiz-adv-x="258" d="M14.5 5.5Q10 11 11 19l86 486q3 15 19 15h116q8 0 12.5-5t3.5-13L161 16q-3-16-18-16H27q-8 0-12.5 5.5zM241 592q0-11-14-11h-69q-14 0-21 11L52 723q-4 5-4 10t4 8 11 3h93q13 0 20-13l63-130q2-3 2-9z"/><glyph glyph-name="iacute" unicode="í" horiz-adv-x="258" d="M14.5 5.5Q10 11 11 19l86 486q3 15 19 15h116q8 0 12.5-5t3.5-13L161 16q-3-16-18-16H27q-8 0-12.5 5.5zM109 589q0 4 5 11l107 132q9 10 22 10h104q7 0 11-2.5t4-7.5q0-6-6-12L223 588q-8-9-21-9h-78q-15 0-15 10z"/><glyph glyph-name="icircumflex" unicode="î" horiz-adv-x="255" d="M22 576q-4 3-4 7 0 6 6 12l130 136q8 9 22 9h79q12 0 21-12l79-134q3-4 3-9t-4-8.5-11-3.5h-91q-14 0-20 12l-32 64-58-66q-9-10-21-10H33q-7 0-11 3zM13.5 5.5Q9 11 11 19l86 483q2 16 18 16h113q8 0 12.5-5.5T244 499L158 16q-3-16-19-16H27q-9 0-13.5 5.5z"/><glyph glyph-name="idieresis" unicode="ï" horiz-adv-x="258" d="M143.5 597Q122 578 91 578q-27 0-43.5 16.5T31 638q0 39 23.5 62.5T114 724q26 0 42.5-16t16.5-42q0-5-2-17-6-33-27.5-52zm197.5 0q-21-19-52-19-27 0-44 16.5T228 638q0 39 23.5 62.5T311 724q26 0 42.5-16t16.5-42q0-5-2-17-6-33-27-52zM14.5 5.5Q10 11 11 19l86 486q3 15 19 15h116q8 0 12.5-5t3.5-13L161 16q-3-16-18-16H27q-8 0-12.5 5.5z"/><glyph glyph-name="eth" unicode="ð" horiz-adv-x="546" d="M524 434q0-43-9-93l-26-144q-17-99-87.5-154.5T221-13q-54 0-99 22T50 72t-27 97q0 23 4 43l15 83q9 51 40.5 92.5t80 65T268 476q39 0 70.5-14t52.5-38q1 76-47 128l-67-49q-7-5-11-5-6 0-13 9l-18 27q-4 8-4 11 0 8 9 14l45 33q-44 18-93 18-19 0-17 19l16 89q3 16 18 16 115 0 196-54l65 48q5 4 10 4 8 0 14-9l17-27q4-8 4-11 0-6-9-14l-49-36q67-78 67-201zM175 174q0-56 65-56 38 0 62.5 19.5T334 194l12 69q2 8 2 23 0 28-16.5 44T284 346q-39 0-63.5-21T189 268l-12-73q-2-14-2-21z"/><glyph glyph-name="ntilde" unicode="ñ" horiz-adv-x="546" d="M12.5 5.5Q8 11 10 19l82 457q3 13 15 18 48 18 101.5 29T310 534q96 0 147.5-49T509 351q0-23-5-55L454 16q-3-16-19-16H320q-8 0-12.5 5.5T304 19l50 292q3 17 3 30 0 62-66 62-38 0-64-12L161 16q-3-16-19-16H26q-9 0-13.5 5.5zM467 609q-29-25-64-25-30 0-76 23-16 7-29.5 11.5T274 623q-23 0-42-22-8-8-15-8-4 0-9 3l-47 31q-9 6-9 15 0 6 2 9 21 34 50.5 58.5T272 734q29 0 73-22 18-9 30-13t22-4q19 0 39 22 6 8 14 8 3 0 11-4l47-32q9-4 9-13 0-5-2-8-19-34-48-59z"/><glyph glyph-name="ograve" unicode="ò" horiz-adv-x="535" d="M398 38.5Q331-13 221-13q-58 0-102.5 24t-69 66T25 172q0 23 4 42l21 124q17 91 86 143.5T309 534q60 0 105-24.5t69.5-66.5 24.5-94q0-18-3-38l-23-126q-17-95-84-146.5zM177 178q0-28 15.5-44t45.5-16q39 0 62.5 19.5T330 193l23 128q2 12 2 18 0 29-16.5 46.5T292 403q-36 0-60-20.5T202 328l-23-129q-2-14-2-21zm200 418q0-11-14-11h-69q-14 0-21 11l-85 131q-4 5-4 10t4 8 11 3h93q13 0 20-13l63-130q2-3 2-9z"/><glyph glyph-name="oacute" unicode="ó" horiz-adv-x="535" d="M398 38.5Q331-13 221-13q-58 0-102.5 24t-69 66T25 172q0 23 4 42l21 124q17 91 86 143.5T309 534q60 0 105-24.5t69.5-66.5 24.5-94q0-18-3-38l-23-126q-17-95-84-146.5zM177 178q0-28 15.5-44t45.5-16q39 0 62.5 19.5T330 193l23 128q2 12 2 18 0 29-16.5 46.5T292 403q-36 0-60-20.5T202 328l-23-129q-2-14-2-21zm65 417q0 4 5 11l107 132q9 10 22 10h104q7 0 11-2.5t4-7.5q0-6-6-12L356 594q-8-9-21-9h-78q-15 0-15 10z"/><glyph glyph-name="ocircumflex" unicode="ô" horiz-adv-x="535" d="M398 38.5Q331-13 221-13q-58 0-102.5 24t-69 66T25 172q0 23 4 42l21 124q17 91 86 143.5T309 534q60 0 105-24.5t69.5-66.5 24.5-94q0-18-3-38l-23-126q-17-95-84-146.5zM177 178q0-28 15.5-44t45.5-16q39 0 62.5 19.5T330 193l23 128q2 12 2 18 0 29-16.5 46.5T292 403q-36 0-60-20.5T202 328l-23-129q-2-14-2-21zm316 408q0-11-15-11h-85q-16 0-21 12l-37 65-63-68q-9-9-22-9h-90q-15 0-15 10 0 5 6 11l133 133q9 9 21 9h81q14 0 21-12l83-130q3-6 3-10z"/><glyph glyph-name="otilde" unicode="õ" horiz-adv-x="535" d="M398 38.5Q331-13 221-13q-58 0-102.5 24t-69 66T25 172q0 23 4 42l21 124q17 91 86 143.5T309 534q60 0 105-24.5t69.5-66.5 24.5-94q0-18-3-38l-23-126q-17-95-84-146.5zM177 178q0-28 15.5-44t45.5-16q39 0 62.5 19.5T330 193l23 128q2 12 2 18 0 29-16.5 46.5T292 403q-36 0-60-20.5T202 328l-23-129q-2-14-2-21zm282 423q-29-25-64-25-30 0-76 23-16 7-29.5 11.5T266 615q-23 0-42-22-8-8-15-8-4 0-9 3l-47 31q-9 6-9 15 0 6 2 9 21 34 50.5 58.5T264 726q29 0 73-22 18-9 30-13t22-4q19 0 39 22 6 8 14 8 3 0 11-4l47-32q9-4 9-13 0-5-2-8-19-34-48-59z"/><glyph glyph-name="odieresis" unicode="ö" horiz-adv-x="535" d="M398 38.5Q331-13 221-13q-58 0-102.5 24t-69 66T25 172q0 23 4 42l21 124q17 91 86 143.5T309 534q60 0 105-24.5t69.5-66.5 24.5-94q0-18-3-38l-23-126q-17-95-84-146.5zM177 178q0-28 15.5-44t45.5-16q39 0 62.5 19.5T330 193l23 128q2 12 2 18 0 29-16.5 46.5T292 403q-36 0-60-20.5T202 328l-23-129q-2-14-2-21zm95.5 421Q251 580 220 580q-27 0-43.5 16.5T160 640q0 39 23.5 62.5T243 726q26 0 42.5-16t16.5-42q0-5-2-17-6-33-27.5-52zm208.5 0q-21-19-52-19-27 0-44 16.5T368 640q0 39 23.5 62.5T451 726q26 0 42.5-16t16.5-42q0-5-2-17-6-33-27-52z"/><glyph glyph-name="divide" unicode="÷" horiz-adv-x="630" d="M427 482q-28-28-70-28-37 0-59 21.5T276 532q0 45 27 73.5t69 28.5q38 0 60.5-22t22.5-58q0-44-28-72zM89 269q-4 5-3 13l19 107q3 16 18 16h431q8 0 12.5-5.5T569 386l-19-107q-1-15-18-15H101q-8 0-12 5zM355 61.5Q327 33 285 33q-37 0-59 21.5T204 112q0 45 27 73t70 28q37 0 59.5-21.5T383 134q0-44-28-72.5z"/><glyph glyph-name="oslash" unicode="ø" horiz-adv-x="536" d="M400 38.5Q333-13 223-13q-42 0-84 15L98-55q-9-10-22-10H5q-15 0-15 8 0 4 5 12L65 55q-39 47-39 115 0 24 4 44l22 124q17 91 86.5 143.5T313 534q46 0 82-15l43 59q9 10 22 10h71q15 0 15-8 0-4-5-12l-71-101q41-49 41-117 0-13-4-39l-23-126q-17-95-84-146.5zM179 178q0-28 16-44t45-16q39 0 62.5 19.5T332 193l23 128q2 14 2 19 0 28-16.5 45.5T294 403q-36 0-60-20.5T204 328l-23-129q-2-14-2-21z"/><glyph glyph-name="ugrave" unicode="ù" horiz-adv-x="541" d="M532 502L451 45q-3-13-15-18-46-18-99.5-28.5T235-12q-95 0-146 48.5T38 169q0 23 5 55l50 281q3 15 18 15h116q8 0 12-5t3-13l-50-293q-3-15-3-29 0-62 64-62 36 0 62 11l67 376q2 15 18 15h117q18 0 15-18zm-156 94q0-11-14-11h-69q-14 0-21 11l-85 131q-4 5-4 10t4 8 11 3h93q13 0 20-13l63-130q2-3 2-9z"/><glyph glyph-name="uacute" unicode="ú" horiz-adv-x="541" d="M532 502L451 45q-3-13-15-18-46-18-99.5-28.5T235-12q-95 0-146 48.5T38 169q0 23 5 55l50 281q3 15 18 15h116q8 0 12-5t3-13l-50-293q-3-15-3-29 0-62 64-62 36 0 62 11l67 376q2 15 18 15h117q18 0 15-18zm-276 91q0 4 5 11l107 132q9 10 22 10h104q7 0 11-2.5t4-7.5q0-6-6-12L370 592q-8-9-21-9h-78q-15 0-15 10z"/><glyph glyph-name="ucircumflex" unicode="û" horiz-adv-x="541" d="M532 502L451 45q-3-13-15-18-46-18-99.5-28.5T235-12q-95 0-146 48.5T38 169q0 23 5 55l50 281q3 15 18 15h116q8 0 12-5t3-13l-50-293q-3-15-3-29 0-62 64-62 36 0 62 11l67 376q2 15 18 15h117q18 0 15-18zm-35 94q0-11-15-11h-85q-16 0-21 12l-37 65-63-68q-9-9-22-9h-90q-15 0-15 10 0 5 6 11l133 133q9 9 21 9h81q14 0 21-12l83-130q3-6 3-10z"/><glyph glyph-name="udieresis" unicode="ü" horiz-adv-x="541" d="M532 502L451 45q-3-13-15-18-46-18-99.5-28.5T235-12q-95 0-146 48.5T38 169q0 23 5 55l50 281q3 15 18 15h116q8 0 12-5t3-13l-50-293q-3-15-3-29 0-62 64-62 36 0 62 11l67 376q2 15 18 15h117q18 0 15-18zm-256.5 99Q254 582 223 582q-27 0-43.5 16.5T163 642q0 39 23.5 62.5T246 728q26 0 42.5-16t16.5-42q0-5-2-17-6-33-27.5-52zm208.5 0q-21-19-52-19-27 0-44 16.5T371 642q0 39 23.5 62.5T454 728q26 0 42.5-16t16.5-42q0-5-2-17-6-33-27-52z"/><glyph glyph-name="yacute" unicode="ý" horiz-adv-x="539" d="M396 520h115q8 0 12.5-5t3.5-13L447 49q-16-91-48.5-145.5t-86-80T176-202q-59 0-102.5 14.5T-4-144q-6 4-6 12 0 7 4 12l62 79q5 8 13 8 7 0 12-4 45-32 107-32 48 0 73.5 23T295 29q-45-15-85-15-80 0-125.5 47.5T39 189q0 27 4 51l48 265q2 15 18 15h115q9 0 13.5-5t2.5-13l-50-276q-3-13-3-26 0-29 16.5-43.5T249 142q39 0 67 17l61 346q3 15 19 15zm-147 66q0 4 5 11l107 132q9 10 22 10h104q7 0 11-2.5t4-7.5q0-6-6-12L363 585q-8-9-21-9h-78q-15 0-15 10z"/><glyph glyph-name="thorn" unicode="þ" horiz-adv-x="539" d="M327 533q54 0 96-23.5t65.5-66.5 23.5-97q0-24-4-45l-20-115q-15-89-78.5-144T257-13q-56 0-97 22l-33-185q-1-7-5.5-11.5T109-192H-7q-9 0-13 5t-3 14l154 872q3 16 19 16h116q8 0 12.5-5.5T282 696l-32-177q39 14 77 14zm33-187q0 31-16.5 46T293 407q-18 0-35.5-5T227 388l-45-255q12-9 29-14t35-5q77 0 93 92l18 111q3 17 3 29z"/><glyph glyph-name="ydieresis" unicode="ÿ" horiz-adv-x="539" d="M396 520h115q8 0 12.5-5t3.5-13L447 49q-16-91-48.5-145.5t-86-80T176-202q-59 0-102.5 14.5T-4-144q-6 4-6 12 0 7 4 12l62 79q5 8 13 8 7 0 12-4 45-32 107-32 48 0 73.5 23T295 29q-45-15-85-15-80 0-125.5 47.5T39 189q0 27 4 51l48 265q2 15 18 15h115q9 0 13.5-5t2.5-13l-50-276q-3-13-3-26 0-29 16.5-43.5T249 142q39 0 67 17l61 346q3 15 19 15zm-122.5 85Q252 586 221 586q-27 0-43.5 16.5T161 646q0 39 23.5 62.5T244 732q26 0 42.5-16t16.5-42q0-5-2-17-6-33-27.5-52zm208.5 0q-21-19-52-19-27 0-44 16.5T369 646q0 39 23.5 62.5T452 732q26 0 42.5-16t16.5-42q0-5-2-17-6-33-27-52z"/><glyph glyph-name="Amacron" unicode="Ā" horiz-adv-x="630" d="M426 16l-14 117H187L133 13q-4-13-20-13H-24q-15 0-15 11 0 4 3 10l333 681q6 13 20 13h146q16 0 19-16L585 18v-4q0-14-16-14H444q-17 0-18 16zm-78 484q-62-147-98-225h146l-27 266h-4zM242.5 791.5Q238 797 240 805l14 74q3 16 18 16h284q8 0 12.5-5.5T571 876l-14-74q-2-16-18-16H255q-8 0-12.5 5.5z"/><glyph glyph-name="amacron" unicode="ā" horiz-adv-x="505" d="M198-13q-91 0-142.5 42T4 141q0 17 3 35 25 140 227 140 45 0 85-8l2 16q2 9 2 24 0 26-16 39t-54 13q-33 0-64.5-6T134 377q-6-3-10-3-8 0-13 11l-31 82q-2 8-2 10 0 8 5 10 36 22 90 34.5T287 534q88 0 136.5-47.5T472 354q0-28-6-60L421 41q-3-15-15-19-100-35-208-35zm19 125q33 0 69 8l14 87q-33 7-64 7-81 0-81-58 0-44 62-44zm-49.5 581.5Q172 698 180 698h263q8 0 12.5-5.5T458 679l-13-69q-3-16-18-16H165q-9 0-13.5 5.5T149 613l13 69q1 7 5.5 11.5z"/><glyph glyph-name="Abreve" unicode="Ă" horiz-adv-x="630" d="M426 16l-14 117H187L133 13q-4-13-20-13H-24q-15 0-15 11 0 4 3 10l333 681q6 13 20 13h146q16 0 19-16L585 18v-4q0-14-16-14H444q-17 0-18 16zm-78 484q-62-147-98-225h146l-27 266h-4zm174.5 297.5Q475 764 392 764q-65 0-106.5 38T242 897v2q0 12 15 17l84 19 5 1q5 0 8-4t6-12q5-40 51-40 49 0 69 43 8 16 21 12l75-19q8-2 12-6.5t1-11.5q-19-67-66.5-100.5z"/><glyph glyph-name="abreve" unicode="ă" horiz-adv-x="505" d="M198-13q-91 0-142.5 42T4 141q0 17 3 35 25 140 227 140 45 0 85-8l2 16q2 9 2 24 0 26-16 39t-54 13q-33 0-64.5-6T134 377q-6-3-10-3-8 0-13 11l-31 82q-2 8-2 10 0 8 5 10 36 22 90 34.5T287 534q88 0 136.5-47.5T472 354q0-28-6-60L421 41q-3-15-15-19-100-35-208-35zm19 125q33 0 69 8l14 87q-33 7-64 7-81 0-81-58 0-44 62-44zm194 503q-44-33-123-33-41 0-72 18t-48 48.5-17 64.5q0 20 16 23l72 12h4q11 0 14-16 4-46 50-46 48 0 66 49 5 15 21 13l68-12q8-2 11.5-7t1.5-12q-20-69-64-102z"/><glyph glyph-name="Aogonek" unicode="Ą" horiz-adv-x="631" d="M462-204q-46 0-72 21t-26 59q0 5 2 19 5 29 30.5 58T462 0h-18q-17 0-18 16l-14 117H187L133 13q-4-13-20-13H-23q-15 0-15 12 0 3 2 9l334 681q6 13 20 13h145q16 0 19-16L586 18q1-11-5.5-14.5T557 0q-32-12-54-33.5T481-73q0-21 31-21 14 0 38 6 3 1 8 1 12 0 13-13l5-56v-3q0-12-11-18-51-27-103-27zM348 500q-62-147-98-225h146l-27 266h-4z"/><glyph glyph-name="aogonek" unicode="ą" horiz-adv-x="509" d="M289-201q-47 0-73 20.5T190-125q0 31 20.5 62.5T272-9q-46-4-70-4-93 0-146 42T3 142q0 17 3 35 14 70 72 104.5T232 316q46 0 88-8l3 16q3 14 3 25 0 26-17 38.5T254 400q-61 0-115-25-3-2-9-2-10 0-14 11l-34 81q-2 6-2 9 0 8 7 12 37 22 89.5 35T283 534q91 0 140.5-46T473 357q0-28-6-60L421 36q-1-12-15-19-42-17-69-39t-31-46q-2-25 31-25 19 0 39 6 3 1 7 1 11 0 13-14l6-55v-3q0-12-12-18-50-25-101-25zM170.5 123q17.5-11 47.5-11 29 0 69 7l15 86q-33 7-63 7-42 0-64-15t-22-42q0-21 17.5-32z"/><glyph glyph-name="Cacute" unicode="Ć" horiz-adv-x="570" d="M284-13q-110 0-174 59T46 210q0 30 6 63l35 203q21 122 105 187t209 65q57 0 108-18t89-50q7-4 7-12 0-5-5-12l-73-86q-4-7-12-7-7 0-12 4-52 36-116 36-59 0-95-33t-45-90l-35-202q-3-16-3-31 0-46 26.5-70t77.5-24q35 0 72.5 11.5T454 177q6 3 10 3 8 0 14-10l47-98q3-7 3-11 0-7-6-10-107-64-238-64zm44 806q0 5 5 12l115 131q9 10 21 10h112q7 0 11-2.5t4-7.5q0-6-6-12L448 791q-10-8-20-8h-85q-15 0-15 10z"/><glyph glyph-name="cacute" unicode="ć" horiz-adv-x="451" d="M223-13q-90 0-143 49.5T27 170q0 26 4 49l22 124q16 92 83.5 141.5T302 534q86 0 152-48 7-4 7-13 0-6-4-11l-59-76q-6-7-13-7-6 0-11 4-36 21-77 21-39 0-63-20t-31-57l-21-118q-3-15-3-27 0-32 18-48.5t49-16.5q45 0 94 29 6 3 11 3 9 0 13-9l39-86q3-4 3-10 0-8-11-14-77-43-172-43zm-3 608q0 4 5 11l107 132q9 10 22 10h104q7 0 11-2.5t4-7.5q0-6-6-12L334 594q-8-9-21-9h-78q-15 0-15 10z"/><glyph glyph-name="Cdotaccent" unicode="Ċ" horiz-adv-x="570" d="M284-13q-110 0-174 59T46 210q0 30 6 63l35 203q21 122 105 187t209 65q57 0 108-18t89-50q7-4 7-12 0-5-5-12l-73-86q-4-7-12-7-7 0-12 4-52 36-116 36-59 0-95-33t-45-90l-35-202q-3-16-3-31 0-46 26.5-70t77.5-24q35 0 72.5 11.5T454 177q6 3 10 3 8 0 14-10l47-98q3-7 3-11 0-7-6-10-107-64-238-64zm192.5 819.5Q450 780 405 780q-34 0-53.5 20T332 851q0 39 27 66t67 27q35 0 56-20.5t21-51.5q0-39-26.5-65.5z"/><glyph glyph-name="cdotaccent" unicode="ċ" horiz-adv-x="451" d="M223-13q-90 0-143 49.5T27 170q0 26 4 49l22 124q16 92 83.5 141.5T302 534q86 0 152-48 7-4 7-13 0-6-4-11l-59-76q-6-7-13-7-6 0-11 4-36 21-77 21-39 0-63-20t-31-57l-21-118q-3-15-3-27 0-32 18-48.5t49-16.5q45 0 94 29 6 3 11 3 9 0 13-9l39-86q3-4 3-10 0-8-11-14-77-43-172-43zm145 626q-25-27-65-27-30 0-49 18.5T235 652q0 38 26 63.5t64 25.5q30 0 49-17.5t19-45.5q0-38-25-65z"/><glyph glyph-name="Ccaron" unicode="Č" horiz-adv-x="570" d="M606 941q4-3 4-7 0-6-6-12L470 790q-9-9-21-9h-93q-14 0-21 11l-85 131q-3 6-3 10 0 11 14 11h100q14 0 21-12l35-64 59 66q10 10 21 10h98q7 0 11-3zM284-13q-110 0-174 59T46 210q0 30 6 63l35 203q21 122 105 187t209 65q57 0 108-18t89-50q7-4 7-12 0-5-5-12l-73-86q-4-7-12-7-7 0-12 4-52 36-116 36-59 0-95-33t-45-90l-35-202q-3-16-3-31 0-46 26.5-70t77.5-24q35 0 72.5 11.5T454 177q6 3 10 3 8 0 14-10l47-98q3-7 3-11 0-7-6-10-107-64-238-64z"/><glyph glyph-name="ccaron" unicode="č" horiz-adv-x="451" d="M148 730q0 11 15 11h85q16 0 21-12l37-65 63 68q9 9 22 9h90q15 0 15-10 0-5-6-11L357 587q-9-9-21-9h-81q-14 0-21 12l-83 130q-3 6-3 10zm75-743q-90 0-143 49.5T27 170q0 26 4 49l22 124q16 92 83.5 141.5T302 534q86 0 152-48 7-4 7-13 0-6-4-11l-59-76q-6-7-13-7-6 0-11 4-36 21-77 21-39 0-63-20t-31-57l-21-118q-3-15-3-27 0-32 18-48.5t49-16.5q45 0 94 29 6 3 11 3 9 0 13-9l39-86q3-4 3-10 0-8-11-14-77-43-172-43z"/><glyph glyph-name="Dcaron" unicode="Ď" horiz-adv-x="647" d="M587 924.5q4-2.5 4-7.5 0-6-6-12L451 773q-9-9-21-9h-93q-14 0-21 11l-85 131q-3 6-3 10 0 11 14 11h100q14 0 21-12l35-64 59 66q10 10 21 10h98q7 0 11-2.5zM30.5 5.5Q26 11 28 19l120 680q1 7 5.5 11.5T166 715h235q102 0 167-55.5T633 496q0-31-6-67l-29-165Q574 122 494.5 61T282 0H43q-8 0-12.5 5.5zM307 145q54 0 86 30.5t44 95.5l31 178q4 20 4 40 0 42-22 61.5T383 570H283l-75-425h99z"/><glyph glyph-name="dcaron" unicode="ď" horiz-adv-x="622" d="M333-3q-53-10-102-10-94 0-149.5 51.5T26 174q0 24 4 45l20 115q16 90 79 145t151 55q56 0 95-22l34 187q2 16 18 16h116q8 0 12.5-5.5T559 696L444 42q-3-14-15-18-43-17-96-27zm233 516.5q-4 3.5-4 8.5l2 8 63 171q5 14 20 14h83q15 0 15-11 0-4-3-10l-80-171q-6-13-20-13h-65q-7 0-11 3.5zM178 179q0-30 16.5-44.5T244 120q39 0 64 11l46 257q-26 18-66 18-35 0-57.5-23T200 315l-19-107q-3-16-3-29z"/><glyph glyph-name="Dcroat" unicode="Đ" horiz-adv-x="662" d="M582 659.5Q647 604 647 497q0-32-6-68l-28-165Q589 122 509 61T296 0H57q-8 0-12.5 5.5T42 19l52 298H34q-8 0-12 5t-3 13l11 62q3 15 19 15h61l52 287q2 16 18 16h236q101 0 166-55.5zM486 489q0 42-22 61.5T398 570H297l-28-158h91q8 0 12-5t3-14l-11-61q-1-15-18-15h-93l-31-172h100q53 0 85 30t44 96l31 178q4 20 4 40z"/><glyph glyph-name="dcroat" unicode="đ" horiz-adv-x="538" d="M333.5-3Q280-13 230-13q-63 0-109.5 24.5T49 79t-25 97q0 23 4 43l18 95q17 87 79.5 141T276 509q56 0 97-22l14 85H274q-8 0-12.5 5.5T259 591l8 44q3 15 18 15h116l9 49q3 16 18 16h116q9 0 13.5-5.5T560 696l-8-46h55q9 0 13.5-5t2.5-13l-8-44q-3-16-18-16h-59L445 42q-1-13-15-18-43-17-96.5-27zM177 179q0-31 16.5-45t50.5-14q41 0 66 11l40 232q-26 18-66 18-36 0-59-21.5T195 295l-15-87q-3-16-3-29z"/><glyph glyph-name="Emacron" unicode="Ē" horiz-adv-x="572" d="M557 572H285l-25-139h238q8 0 12-5t3-14l-19-105q-3-16-18-16H235l-26-149h283q8 0 12.5-5.5T508 125L490 16q-3-16-19-16H44q-9 0-13 5t-3 14l121 680q3 16 18 16h411q9 0 13.5-5.5T594 696l-19-108q-3-16-18-16zM229.5 791.5Q225 797 227 805l14 74q3 16 18 16h284q8 0 12.5-5.5T558 876l-14-74q-2-16-18-16H242q-8 0-12.5 5.5z"/><glyph glyph-name="emacron" unicode="ē" horiz-adv-x="519" d="M139.5 485Q208 534 303 534q89 0 143-42t54-124q0-19-5-49l-17-97q-3-15-18-15H182l-3-14q-2-16-2-22 0-57 71-57 63 0 130 40 5 4 11 4 8 0 12-9l41-77q2-8 2-10 0-10-8-14-89-61-209-61-90 0-146.5 46T24 158q0 11 4 39l26 145q17 94 85.5 143zM353 349q0 26-16 42t-47 16q-33 0-55.5-19T205 334l-5-27h146l5 25q2 12 2 17zM189.5 692.5Q194 697 202 697h263q8 0 12.5-5.5T480 678l-13-69q-3-16-18-16H187q-9 0-13.5 5.5T171 612l13 69q1 7 5.5 11.5z"/><glyph glyph-name="Edotaccent" unicode="Ė" horiz-adv-x="572" d="M557 572H285l-25-139h238q8 0 12-5t3-14l-19-105q-3-16-18-16H235l-26-149h283q8 0 12.5-5.5T508 125L490 16q-3-16-19-16H44q-9 0-13 5t-3 14l121 680q3 16 18 16h411q9 0 13.5-5.5T594 696l-19-108q-3-16-18-16zM451.5 796.5Q425 770 380 770q-34 0-53.5 20T307 841q0 39 27 66t67 27q35 0 56-20.5t21-51.5q0-39-26.5-65.5z"/><glyph glyph-name="edotaccent" unicode="ė" horiz-adv-x="519" d="M139.5 485Q208 534 303 534q89 0 143-42t54-124q0-19-5-49l-17-97q-3-15-18-15H182l-3-14q-2-16-2-22 0-57 71-57 63 0 130 40 5 4 11 4 8 0 12-9l41-77q2-8 2-10 0-10-8-14-89-61-209-61-90 0-146.5 46T24 158q0 11 4 39l26 145q17 94 85.5 143zM353 349q0 26-16 42t-47 16q-33 0-55.5-19T205 334l-5-27h146l5 25q2 12 2 17zm28 265q-25-27-65-27-30 0-49 18.5T248 653q0 38 26 63.5t64 25.5q30 0 49-17.5t19-45.5q0-38-25-65z"/><glyph glyph-name="Eogonek" unicode="Ę" horiz-adv-x="572" d="M557 572H285l-25-139h238q8 0 12-5t3-14l-19-105q-3-16-18-16H235l-26-149h283q9 0 13-5t3-14L490 14q-3-13-16-19-29-13-48.5-30.5T403-69q-1-26 31-26 19 0 36 6 3 1 8 1 11 0 12-13l6-57v-3q0-13-11-18-21-12-48.5-18t-55.5-6q-45 0-71 20.5T284-125q0 38 27.5 71T391 0H44q-9 0-13 5t-3 14l120 680q3 16 19 16h412q8 0 12.5-5.5T594 696l-19-108q-3-16-18-16z"/><glyph glyph-name="eogonek" unicode="ę" horiz-adv-x="514" d="M249-201q-46 0-72 20t-26 57q0 6 2 20 4 23 21.5 47.5T219-13h-7q-83 3-135.5 49T24 158q0 11 4 39l26 146q17 93 84.5 142T299 534q89 0 142.5-42T495 369q0-20-5-48l-17-99q-3-16-19-16H179l-2-12q-2-14-2-21 0-59 69-59 62 0 129 40 5 4 11 4 9 0 13-9l39-73q3-6 3-10 0-9-8-15-37-25-89-45-33-14-54-35.5T267-71q0-22 32-22 18 0 38 6 3 1 7 1 11 0 13-14l6-55v-3q0-12-12-18-50-25-102-25zm89 506l5 29q2 12 2 18 0 25-14.5 41T287 409q-33 0-56-20t-29-54l-5-30h141z"/><glyph glyph-name="Ecaron" unicode="Ě" horiz-adv-x="572" d="M588 925q4-3 4-7 0-6-6-12L452 774q-9-9-21-9h-93q-14 0-21 11l-85 131q-3 6-3 10 0 11 14 11h100q14 0 21-12l35-64 59 66q10 10 21 10h98q7 0 11-3zm-31-353H285l-25-139h238q8 0 12-5t3-14l-19-105q-3-16-18-16H235l-26-149h283q8 0 12.5-5.5T508 125L490 16q-3-16-19-16H44q-9 0-13 5t-3 14l121 680q3 16 18 16h411q9 0 13.5-5.5T594 696l-19-108q-3-16-18-16z"/><glyph glyph-name="ecaron" unicode="ě" horiz-adv-x="519" d="M168 736q0 11 15 11h85q16 0 21-12l37-65 63 68q9 9 22 9h90q15 0 15-10 0-5-6-11L377 593q-9-9-21-9h-81q-14 0-21 12l-83 130q-3 6-3 10zm-28.5-251Q208 534 303 534q89 0 143-42t54-124q0-19-5-49l-17-97q-3-15-18-15H182l-3-14q-2-16-2-22 0-57 71-57 63 0 130 40 5 4 11 4 8 0 12-9l41-77q2-8 2-10 0-10-8-14-89-61-209-61-90 0-146.5 46T24 158q0 11 4 39l26 145q17 94 85.5 143zM353 349q0 26-16 42t-47 16q-33 0-55.5-19T205 334l-5-27h146l5 25q2 12 2 17z"/><glyph glyph-name="Gbreve" unicode="Ğ" horiz-adv-x="629" d="M422.5 13.5Q351-12 276-12q-69 0-121 28.5t-80.5 79T46 211q0 22 5 52l36 214q21 120 105.5 185.5T399 728q65 0 123-19t101-53q7-6 7-13 0-5-5-12l-77-87q-6-7-13-7-5 0-11 3-60 43-141 43-55 0-91-32t-45-89l-36-210q-2-18-2-26 0-42 23.5-67t67.5-25q66 2 112 27l23 125H329q-8 0-12.5 5.5T314 305l17 95q1 7 5.5 11.5T349 416h242q8 0 12.5-5.5T606 397l-52-295q-3-13-10-19-50-44-121.5-69.5zm103 795Q478 775 395 775q-65 0-106.5 38T245 908v2q0 12 15 17l84 19 5 1q5 0 8-4t6-12q5-40 51-40 49 0 69 43 8 16 21 12l75-19q8-2 12-6.5t1-11.5q-19-67-66.5-100.5z"/><glyph glyph-name="gbreve" unicode="ğ" horiz-adv-x="539" d="M402-97q-31-54-85.5-79.5T175-202q-59 0-102 14.5T-6-142q-7 6-7 12 0 5 5 12l61 78q6 8 13 8 4 0 11-5 48-31 111-31 46 0 72.5 23.5T297 29q-47-15-89-15-84 0-132 46.5T28 186q0 22 5 50l17 95q18 102 88 152.5T310 534q108 0 201-42 14-8 11-22L449 49q-16-92-47-146zM182 199q0-56 63-56 21 0 41.5 5.5T318 162l39 228q-19 12-60 12-39 0-63.5-19T202 326l-18-103q-2-9-2-24zm266 417q-44-33-123-33-41 0-72 18t-48 48.5-17 64.5q0 20 16 23l72 12h4q11 0 14-16 4-46 50-46 48 0 66 49 5 15 21 13l68-12q8-2 11.5-7t1.5-12q-20-69-64-102z"/><glyph glyph-name="Gdotaccent" unicode="Ġ" horiz-adv-x="629" d="M422.5 13.5Q351-12 276-12q-69 0-121 28.5t-80.5 79T46 211q0 22 5 52l36 214q21 120 105.5 185.5T399 728q65 0 123-19t101-53q7-6 7-13 0-5-5-12l-77-87q-6-7-13-7-5 0-11 3-60 43-141 43-55 0-91-32t-45-89l-36-210q-2-18-2-26 0-42 23.5-67t67.5-25q66 2 112 27l23 125H329q-8 0-12.5 5.5T314 305l17 95q1 7 5.5 11.5T349 416h242q8 0 12.5-5.5T606 397l-52-295q-3-13-10-19-50-44-121.5-69.5zm50 795Q446 782 401 782q-34 0-53.5 20T328 853q0 39 27 66t67 27q35 0 56-20.5t21-51.5q0-39-26.5-65.5z"/><glyph glyph-name="gdotaccent" unicode="ġ" horiz-adv-x="539" d="M402-97q-31-54-85.5-79.5T175-202q-59 0-102 14.5T-6-142q-7 6-7 12 0 5 5 12l61 78q6 8 13 8 4 0 11-5 48-31 111-31 46 0 72.5 23.5T297 29q-47-15-89-15-84 0-132 46.5T28 186q0 22 5 50l17 95q18 102 88 152.5T310 534q108 0 201-42 14-8 11-22L449 49q-16-92-47-146zM182 199q0-56 63-56 21 0 41.5 5.5T318 162l39 228q-19 12-60 12-39 0-63.5-19T202 326l-18-103q-2-9-2-24zm214 417q-25-27-65-27-30 0-49 18.5T263 655q0 38 26 63.5t64 25.5q30 0 49-17.5t19-45.5q0-38-25-65z"/><glyph glyph-name="uni0122" unicode="Ģ" horiz-adv-x="629" d="M422.5 13.5Q351-12 276-12q-69 0-121 28.5t-80.5 79T46 211q0 22 5 52l36 214q21 120 105.5 185.5T399 728q65 0 123-19t101-53q7-6 7-13 0-5-5-12l-77-87q-6-7-13-7-5 0-11 3-60 43-141 43-55 0-91-32t-45-89l-36-210q-2-18-2-26 0-42 23.5-67t67.5-25q66 2 112 27l23 125H329q-8 0-12.5 5.5T314 305l17 95q1 7 5.5 11.5T349 416h242q8 0 12.5-5.5T606 397l-52-295q-3-13-10-19-50-44-121.5-69.5zM139.5-240q-4.5 5-.5 12l76 156q4 13 22 13h109q17 0 17-9 0-3-4-9l-99-157q-8-11-24-11h-81q-11 0-15.5 5z"/><glyph glyph-name="uni0123" unicode="ģ" horiz-adv-x="539" d="M262 595q0 4 3 8l90 148q9 10 24 10h70q11 0 15-4.5t0-12.5l-72-147q-5-12-22-12h-92q-16 0-16 10zM402-97q-31-54-85.5-79.5T175-202q-59 0-102 14.5T-6-142q-7 6-7 12 0 5 5 12l61 78q6 8 13 8 4 0 11-5 48-31 111-31 46 0 72.5 23.5T297 29q-47-15-89-15-84 0-132 46.5T28 186q0 22 5 50l17 95q18 102 88 152.5T310 534q108 0 201-42 14-8 11-22L449 49q-16-92-47-146zM182 199q0-56 63-56 21 0 41.5 5.5T318 162l39 228q-19 12-60 12-39 0-63.5-19T202 326l-18-103q-2-9-2-24z"/><glyph glyph-name="Hbar" unicode="Ħ" horiz-adv-x="692" d="M738 625q4-5 3-14l-12-61q-2-16-18-16h-55L564 16q-2-16-18-16H422q-8 0-12.5 5.5T407 19l48 270H248L200 16q-3-16-19-16H58q-9 0-13.5 5.5T42 19l91 515H66q-18 0-15 19l11 61q3 16 18 16h70l12 69q3 16 19 16h123q9 0 13.5-5.5T320 696l-12-66h207l12 69q3 16 18 16h124q8 0 12.5-5.5T685 696l-12-66h52q9 0 13-5zm-241-91H291l-17-100h206z"/><glyph glyph-name="hbar" unicode="ħ" horiz-adv-x="546" d="M345 509q75 0 118.5-46T507 335q0-29-6-62L453 16q-3-16-18-16H319q-8 0-12.5 5.5T304 19l49 271q3 17 3 29 0 59-64 59-19 0-38-5t-33-14L161 16q-3-16-19-16H27q-9 0-13 5t-3 14l98 553H55q-9 0-13.5 5.5T39 591l9 44q3 15 18 15h57l8 49q3 16 19 16h114q9 0 13.5-5.5T280 696l-8-46h105q18 0 16-18l-9-44q-1-16-18-16H258l-15-85q42 22 102 22z"/><glyph glyph-name="Imacron" unicode="Ī" horiz-adv-x="302" d="M110.5 790.5Q106 796 108 804l13 74q3 16 18 16h238q9 0 13-5t3-14l-14-74q-1-16-18-16H123q-8 0-12.5 5.5zm-80-785Q26 11 28 19l120 680q3 16 18 16h126q8 0 12.5-5.5T308 696L187 16q-2-16-18-16H43q-8 0-12.5 5.5z"/><glyph glyph-name="imacron" unicode="ī" horiz-adv-x="255" d="M51 598q-4 5-3 14l13 69q3 16 18 16h240q8 0 12.5-5.5T334 678l-13-69q-2-16-18-16H64q-9 0-13 5zM13.5 5.5Q9 11 11 19l86 483q2 16 18 16h113q8 0 12.5-5.5T244 499L158 16q-3-16-19-16H27q-9 0-13.5 5.5z"/><glyph glyph-name="Iogonek" unicode="Į" horiz-adv-x="304" d="M63-202q-47 0-73 20.5T-36-124q0 7 2 19 5 31 30 59T61 0H44q-9 0-13.5 5.5T28 19l120 680q2 16 18 16h128q9 0 13-5t3-14L190 16q-1-12-8.5-14.5T156-1q-31-13-52-34T83-73q0-21 30-21 14 0 38 6 3 1 8 1 12 0 13-13l5-56v-4q0-12-11-17-52-25-103-25z"/><glyph glyph-name="iogonek" unicode="į" horiz-adv-x="255" d="M251.5 615Q223 586 184 586q-33 0-53.5 20T110 656q0 42 28.5 70t70.5 28q32 0 51.5-19t19.5-50q0-41-28.5-70zM36-202q-48 0-74 21t-26 59q0 6 2 22 5 28 29 54.5T30 0H20q-6 0-8.5 5.5T11 19l86 483q2 16 18 16h113q8 0 12.5-5.5T244 499L158 16q-2-10-7.5-13T134 0Q99-14 77-35.5T53-76q-4-22 32-22 18 0 36 5l9 2q10 0 12-14l5-56v-3q0-12-12-18-48-20-99-20z"/><glyph glyph-name="Idotaccent" unicode="İ" horiz-adv-x="300" d="M168 0H44q-8 0-12.5 5.5T28 19l120 680q3 16 19 16h123q9 0 13.5-5.5T306 696L186 16q-3-16-18-16zm149.5 816.5Q291 790 246 790q-34 0-53.5 20T173 861q0 39 27 66t67 27q35 0 56-20.5t21-51.5q0-39-26.5-65.5z"/><glyph glyph-name="dotlessi" unicode="ı" horiz-adv-x="258" d="M14.5 5.5Q10 11 11 19l86 486q3 15 19 15h116q8 0 12.5-5t3.5-13L161 16q-3-16-18-16H27q-8 0-12.5 5.5z"/><glyph glyph-name="IJ" unicode="Ĳ" horiz-adv-x="823" d="M168 0H44q-8 0-12.5 5.5T28 19l120 680q3 16 19 16h123q9 0 13.5-5.5T306 696L186 16q-3-16-18-16zm489.5 50Q584-12 472-12q-59 0-105 17t-86 52q-7 7-7 13 0 5 5 12l68 88q6 7 13 7t12-4q48-39 114-39 42 0 69 25t36 73l82 467q3 16 19 16h124q8 0 12.5-5.5T832 696l-81-470q-20-114-93.5-176z"/><glyph glyph-name="ij" unicode="ĳ" horiz-adv-x="552" d="M256.5 619.5Q231 593 192 593q-33 0-54 21t-21 53q0 40 25.5 66t64.5 26q34 0 54.5-21t20.5-54q0-38-25.5-64.5zm-243-614Q9 11 11 19l86 486q2 15 18 15h116q9 0 13.5-5t2.5-13L161 16q-3-16-19-16H26q-8 0-12.5 5.5zm536 614Q524 593 485 593q-33 0-54 21t-21 53q0 40 25.5 66t64.5 26q34 0 54.5-21t20.5-54q0-38-25.5-64.5zM378-157q-55-45-138-45-21 0-47 4-16 3-13 21l18 102q3 15 15 15l27-1q52 0 65 78l85 488q3 15 19 15h116q8 0 12-5t3-13L453-1q-20-111-75-156z"/><glyph glyph-name="uni0136" unicode="Ķ" horiz-adv-x="627" d="M685 705q0-7-5-12L397 393 588 21q2-3 2-9 0-12-15-12H434q-16 0-20 13L283 283l-60-58-37-209q-3-16-19-16H44q-9 0-13.5 5.5T28 19l120 680q3 16 19 16h123q9 0 13-5t3-14l-44-248 226 257q8 10 21 10h161q15 0 15-10zM149.5-235q-4.5 5-.5 12l76 159q6 13 23 13h110q8 0 12.5-3t4.5-7q0-2-4-8L271-229q-8-11-24-11h-82q-11 0-15.5 5z"/><glyph glyph-name="uni0137" unicode="ķ" horiz-adv-x="506" d="M533 517.5q4-2.5 4-7.5t-6-11L335 298 464 20l2-8q0-12-15-12H324q-16 0-20 14l-75 177-44-42-24-133q-1-7-5.5-11.5T143 0H27q-8 0-12.5 5.5T11 19l121 680q3 16 18 16h116q9 0 13.5-5.5T282 696l-60-340 142 155q6 9 21 9h137q7 0 11-2.5zM86-219l72 149q8 12 22 12h93q8 0 12.5-3t4.5-7-3-8l-92-149q-8-11-22-11h-71q-22 0-16 17z"/><glyph glyph-name="Lacute" unicode="Ĺ" horiz-adv-x="512" d="M463 145q9 0 13.5-5.5T479 126L460 16q-3-16-19-16H43q-8 0-12.5 5.5T28 19l120 680q1 7 5.5 11.5T166 715h124q9 0 13-5t3-14l-97-551h254zM164 775q0 5 5 12l115 131q9 10 21 10h112q7 0 11-2.5t4-7.5q0-6-6-12L284 773q-10-8-20-8h-85q-15 0-15 10z"/><glyph glyph-name="lacute" unicode="ĺ" horiz-adv-x="298" d="M181-13q-69 0-108 43.5T34 149q0 21 5 53l88 497q3 16 18 16h116q8 0 12.5-5.5T276 696l-88-502q-3-15-3-28 0-47 42-47h23q16 0 13-16L247 8q-3-15-13-16-23-5-53-5zm-35 790q0 5 5 12l115 131q9 10 21 10h112q7 0 11-2.5t4-7.5q0-6-6-12L266 775q-10-8-20-8h-85q-15 0-15 10z"/><glyph glyph-name="uni013B" unicode="Ļ" horiz-adv-x="512" d="M463 145q9 0 13.5-5.5T479 126L460 16q-3-16-19-16H43q-8 0-12.5 5.5T28 19l120 680q1 7 5.5 11.5T166 715h124q9 0 13-5t3-14l-97-551h254zM93.5-241q-4.5 5-.5 13l73 157q5 12 22 12h106q17 0 17-9 0-2-4-8l-97-158q-7-12-23-12h-79q-10 0-14.5 5z"/><glyph glyph-name="uni013C" unicode="ļ" horiz-adv-x="298" d="M181-13q-69 0-108 43.5T34 149q0 21 5 53l88 497q3 16 18 16h116q8 0 12.5-5.5T276 696l-88-502q-3-15-3-28 0-47 42-47h23q16 0 13-16L247 8q-3-15-13-16-23-5-53-5zM-11-239q-4 5 0 13L60-76q6 12 21 12h91q16 0 16-10 0-5-2-8L96-233q-8-11-22-11H4q-11 0-15 5z"/><glyph glyph-name="Lcaron" unicode="Ľ" horiz-adv-x="514" d="M30.5 5.5Q26 11 28 19l120 680q1 7 5.5 11.5T166 715h124q9 0 13-5t3-14l-97-551h254q9 0 13.5-5.5T479 126L460 16q-3-16-19-16H43q-8 0-12.5 5.5zm320 505Q346 514 346 519q0 2 2 8l65 174q5 14 20 14h95q7 0 11-3.5t4-8.5q0-4-3-9l-84-175q-6-12-20-12h-74q-7 0-11.5 3.5z"/><glyph glyph-name="lcaron" unicode="ľ" horiz-adv-x="360" d="M181-12q-70 0-108.5 42.5T34 148q0 23 5 55l87 496q3 16 19 16h115q9 0 13-5t3-14l-89-500q-2-9-2-25 0-49 42-49 12 0 20 1 19 0 16-17L246 9q-2-14-12-16-25-5-53-5zm121 530.5q-4 3.5-4 8.5l2 8 65 166q5 14 20 14h83q15 0 15-11 0-4-3-10l-82-166q-6-13-20-13h-65q-7 0-11 3.5z"/><glyph glyph-name="Ldot" unicode="Ŀ" horiz-adv-x="514" d="M463 145q9 0 13.5-5.5T479 126L460 16q-3-16-19-16H43q-8 0-12.5 5.5T28 19l120 680q1 7 5.5 11.5T166 715h124q9 0 13-5t3-14l-97-551h254zm-11 154q-27-28-70-28-36 0-57.5 22.5T303 351q0 43 26.5 70.5T399 449q36 0 58-22.5t22-57.5q0-42-27-70z"/><glyph glyph-name="ldot" unicode="ŀ" horiz-adv-x="400" d="M182-12q-69 0-108 42.5T35 147q0 23 5 56l87 496q3 16 19 16h115q9 0 13-5t3-14l-89-500q-2-9-2-25 0-49 42-49 12 0 20 1 19 0 16-17L247 9q-2-14-12-16-25-5-53-5zm219 340.5Q377 303 338 303q-32 0-51 20.5T268 376q0 40 24.5 65t62.5 25q32 0 51-20t19-52q0-40-24-65.5z"/><glyph glyph-name="Lslash" unicode="Ł" horiz-adv-x="535" d="M487 145q8 0 12.5-5.5T502 126L483 16q-1-7-5.5-11.5T465 0H67q-9 0-13.5 5.5T51 19l39 224-70-42q-6-3-10-3-5 0-7.5 4.5T1 215l16 96q3 11 14 20l84 48 56 320q3 16 19 16h124q8 0 12-5t3-14l-37-212 107 63q8 4 10 4 5 0 7.5-5t1.5-12l-16-96q-3-13-14-20l-121-71-35-202h255z"/><glyph glyph-name="lslash" unicode="ł" horiz-adv-x="375" d="M232 194q-4-17-4-35 0-20 10-30t33-10h23q16 0 13-16L291 8q-3-14-17-17-19-4-49-4Q76-13 76 129q0 30 6 66l8 46-58-39q-5-4-11-4-11 0-9 17l17 96q3 12 13 19l72 47 57 322q1 7 5.5 11.5T189 715h116q8 0 12.5-5.5T320 696l-36-208 88 57q5 4 10 4 11 0 9-17l-17-96q-1-11-13-19l-101-66z"/><glyph glyph-name="Nacute" unicode="Ń" horiz-adv-x="685" d="M30.5 5.5Q26 11 28 19l120 680q1 7 5.5 11.5T166 715h132q17 0 20-14l79-237q34-109 62-215l5 1q15 129 40 277l30 172q3 16 18 16h122q9 0 13.5-5.5T690 696L570 16q-3-16-19-16H420q-14 0-20 14l-79 212q-20 51-39.5 120.5T252 464l-4-2q-18-185-38-296L184 16q-3-16-18-16H43q-8 0-12.5 5.5zM348 773q0 5 5 12l115 131q9 10 21 10h112q7 0 11-2.5t4-7.5q0-6-6-12L468 771q-10-8-20-8h-85q-15 0-15 10z"/><glyph glyph-name="nacute" unicode="ń" horiz-adv-x="546" d="M12.5 5.5Q8 11 10 19l82 457q3 13 15 18 48 18 101.5 29T310 534q96 0 147.5-49T509 351q0-23-5-55L454 16q-3-16-19-16H320q-8 0-12.5 5.5T304 19l50 292q3 17 3 30 0 62-66 62-38 0-64-12L161 16q-3-16-19-16H26q-9 0-13.5 5.5zM246 595q0 4 5 11l107 132q9 10 22 10h104q7 0 11-2.5t4-7.5q0-6-6-12L360 594q-8-9-21-9h-78q-15 0-15 10z"/><glyph glyph-name="uni0145" unicode="Ņ" horiz-adv-x="685" d="M30.5 5.5Q26 11 28 19l120 680q1 7 5.5 11.5T166 715h132q17 0 20-14l79-237q34-109 62-215l5 1q15 129 40 277l30 172q3 16 18 16h122q9 0 13.5-5.5T690 696L570 16q-3-16-19-16H420q-14 0-20 14l-79 212q-20 51-39.5 120.5T252 464l-4-2q-18-185-38-296L184 16q-3-16-18-16H43q-8 0-12.5 5.5zm120-244.5q-4.5 5-1.5 12l76 159q6 13 23 13h109q17 0 17-10 0-4-3-8L271-233q-8-11-24-11h-82q-10 0-14.5 5z"/><glyph glyph-name="uni0146" unicode="ņ" horiz-adv-x="546" d="M12.5 5.5Q8 11 10 19l82 457q3 13 15 18 48 18 101.5 29T310 534q96 0 147.5-49T509 351q0-23-5-55L454 16q-3-16-19-16H320q-8 0-12.5 5.5T304 19l50 292q3 17 3 30 0 62-66 62-38 0-64-12L161 16q-3-16-19-16H26q-9 0-13.5 5.5zm80.5-237q-4 4.5 0 12.5l72 149q8 12 22 12h93q17 0 17-10 0-5-2-8l-93-149q-8-11-22-11h-72q-11 0-15 4.5z"/><glyph glyph-name="Ncaron" unicode="Ň" horiz-adv-x="685" d="M623 923.5q4-2.5 4-7.5 0-6-6-12L487 772q-9-9-21-9h-93q-14 0-21 11l-85 131q-3 6-3 10 0 11 14 11h100q14 0 21-12l35-64 59 66q10 10 21 10h98q7 0 11-2.5zM30.5 5.5Q26 11 28 19l120 680q1 7 5.5 11.5T166 715h132q17 0 20-14l79-237q34-109 62-215l5 1q15 129 40 277l30 172q3 16 18 16h122q9 0 13.5-5.5T690 696L570 16q-3-16-19-16H420q-14 0-20 14l-79 212q-20 51-39.5 120.5T252 464l-4-2q-18-185-38-296L184 16q-3-16-18-16H43q-8 0-12.5 5.5z"/><glyph glyph-name="ncaron" unicode="ň" horiz-adv-x="546" d="M175 736q0 11 15 11h85q16 0 21-12l37-65 63 68q9 9 22 9h90q15 0 15-10 0-5-6-11L384 593q-9-9-21-9h-81q-14 0-21 12l-83 130q-3 6-3 10zM12.5 5.5Q8 11 10 19l82 457q3 13 15 18 48 18 101.5 29T310 534q96 0 147.5-49T509 351q0-23-5-55L454 16q-3-16-19-16H320q-8 0-12.5 5.5T304 19l50 292q3 17 3 30 0 62-66 62-38 0-64-12L161 16q-3-16-19-16H26q-9 0-13.5 5.5z"/><glyph glyph-name="Eng" unicode="Ŋ" horiz-adv-x="687" d="M500.5-160Q451-206 362-206q-32 0-57 5-16 3-14 21l16 96q1 8 5 12t9 3l17-1q33 0 51.5 16T416-4L316 252q-17 43-35 102.5T251 463h-5q-5-74-14-154t-20-139L185 16q-3-16-18-16H44q-9 0-13.5 5.5T28 19l120 680q1 7 5.5 11.5T166 715h132q16 0 19-14l92-274q39-117 55-187h5q14 164 38 288l30 171q3 16 18 16h122q9 0 13.5-5.5T693 696L568-11q-18-103-67.5-149z"/><glyph glyph-name="eng" unicode="ŋ" horiz-adv-x="541" d="M375.5-151.5Q322-202 233-202q-20 0-42 4-16 3-14 21l18 97q2 14 14 14l25-1q52 0 66 82l51 296q3 15 3 28 0 64-66 64-36 0-62-12L160 16q-3-16-19-16H26q-9 0-13.5 5.5T10 19l82 457q3 12 15 18 48 18 100.5 29t98.5 11q95 0 146-49t51-133q0-24-5-56L448 5q-19-106-72.5-156.5z"/><glyph glyph-name="Omacron" unicode="Ō" horiz-adv-x="656" d="M500 57q-85-70-220-70-110 0-171.5 63.5T47 221q0 32 6 68l31 177q22 123 107 192.5T407 728q111 0 174-61.5T644 498q0-31-6-66l-31-177Q585 127 500 57zM209 235q0-47 24-74.5t70-27.5q58 0 95 34.5t48 96.5l32 183q3 20 3 36 0 46-24 72.5T386 582q-58 0-94-33.5T245 452l-33-181q-3-19-3-36zm51.5 565.5Q256 806 258 814l14 74q3 16 18 16h284q8 0 12.5-5.5T589 885l-14-74q-2-16-18-16H273q-8 0-12.5 5.5z"/><glyph glyph-name="omacron" unicode="ō" horiz-adv-x="535" d="M398 38.5Q331-13 221-13q-58 0-102.5 24t-69 66T25 172q0 23 4 42l21 124q17 91 86 143.5T309 534q60 0 105-24.5t69.5-66.5 24.5-94q0-18-3-38l-23-126q-17-95-84-146.5zM177 178q0-28 15.5-44t45.5-16q39 0 62.5 19.5T330 193l23 128q2 12 2 18 0 29-16.5 46.5T292 403q-36 0-60-20.5T202 328l-23-129q-2-14-2-21zm20.5 520.5Q202 703 210 703h263q8 0 12.5-5.5T488 684l-13-69q-3-16-18-16H195q-9 0-13.5 5.5T179 618l13 69q1 7 5.5 11.5z"/><glyph glyph-name="Ohungarumlaut" unicode="Ő" horiz-adv-x="656" d="M500 57q-85-70-220-70-110 0-171.5 63.5T47 221q0 32 6 68l31 177q22 123 107 192.5T407 728q111 0 174-61.5T644 498q0-31-6-66l-31-177Q585 127 500 57zM209 235q0-47 24-74.5t70-27.5q58 0 95 34.5t48 96.5l32 183q3 20 3 36 0 46-24 72.5T386 582q-58 0-94-33.5T245 452l-33-181q-3-19-3-36zm24 548q0 6 5 11l113 132q7 10 21 10h107q7 0 11-2.5t4-7.5q0-6-6-12L351 782q-9-9-21-9h-82q-15 0-15 10zm216 0q0 7 5 12l123 131q9 10 22 10h110q15 0 15-10 0-6-7-12L571 781q-9-8-22-8h-85q-15 0-15 10z"/><glyph glyph-name="ohungarumlaut" unicode="ő" horiz-adv-x="535" d="M179 585.5q-4 2.5-4 6.5 0 5 4 10l89 114q8 9 21 9h79q15 0 15-9 0-3-5-10L268 592q-7-9-21-9h-57q-7 0-11 2.5zm179 .5q-4 3-4 7 0 5 4 9l92 114q9 9 22 9h78q15 0 15-9 0-3-5-10L446 591q-8-8-22-8h-55q-7 0-11 3zm40-547.5Q331-13 221-13q-58 0-102.5 24t-69 66T25 172q0 23 4 42l21 124q17 91 86 143.5T309 534q60 0 105-24.5t69.5-66.5 24.5-94q0-18-3-38l-23-126q-17-95-84-146.5zM177 178q0-28 15.5-44t45.5-16q39 0 62.5 19.5T330 193l23 128q2 12 2 18 0 29-16.5 46.5T292 403q-36 0-60-20.5T202 328l-23-129q-2-14-2-21z"/><glyph glyph-name="OE" unicode="Œ" horiz-adv-x="928" d="M910 572H647l-24-139h229q8 0 12.5-5.5T868 414l-19-106q-3-15-18-15H598l-26-148h276q18 0 15-19L843 16q-1-7-5.5-11.5T825 0H420q-9 0-13.5 5.5T404 19l3 15q-60-47-148-47-63 0-111.5 29T72 98 45 220q0 32 6 66l34 185q14 81 57 139t105.5 88T384 728q81 0 133-50l4 21q3 16 18 16h394q8 0 12.5-5t3.5-14l-20-108q-3-16-19-16zm-442-85q0 43-25 67.5T373 579q-49 0-84-32t-45-90l-33-185q-3-19-3-35 0-46 22.5-72.5T292 138q48 0 88 26t48 72l38 224q2 9 2 27z"/><glyph glyph-name="oe" unicode="œ" horiz-adv-x="820" d="M220-13q-57 0-101.5 24t-69 65.5T25 171q0 23 4 43l23 124q17 91 84.5 143.5T304 534q44 0 79.5-15t60.5-42q33 28 74 42.5t86 14.5q89 0 142.5-42.5T800 367q0-25-4-48l-17-97q-3-16-19-16H484l-4-21q-1-6-1-16 0-27 18-41t51-14q65 0 130 40 7 4 12 4 8 0 12-9l40-77q3-6 3-11 0-8-8-13-89-61-210-61-44 0-82 14t-64 41q-63-55-161-55zm426 318l5 27q2 12 2 19 0 26-15.5 42T591 409q-33 0-56-20t-29-55l-5-29h145zM177 178q0-28 15.5-44t45.5-16q38 0 61.5 19.5T330 193l24 135 1 12q0 28-16.5 45.5T292 403q-36 0-60-20.5T202 328l-23-129q-2-14-2-21z"/><glyph glyph-name="Racute" unicode="Ŕ" horiz-adv-x="618" d="M30.5 5.5Q26 11 28 19l119 680q3 16 19 16h230q105 0 163-57t58-150q0-27-4-50-25-156-174-201L551 20q3-4 3-9 0-11-15-11H403q-16 0-20 13l-92 225h-66L187 16q-3-16-19-16H44q-9 0-13.5 5.5zM338 380q50 0 78.5 22t35.5 68q2 20 2 27 0 74-82 74h-89l-33-191h88zm-36 393q0 5 5 12l115 131q9 10 21 10h112q7 0 11-2.5t4-7.5q0-6-6-12L422 771q-10-8-20-8h-85q-15 0-15 10z"/><glyph glyph-name="racute" unicode="ŕ" horiz-adv-x="359" d="M13.5 5.5Q9 11 11 19l79 454q3 13 15 19 90 42 185 42 40 0 83-9 8-1 12-6.5t2-13.5l-18-98q-2-17-20-15-28 5-58 5-36 0-65-12L161 16q-3-16-18-16H27q-9 0-13.5 5.5zM180 595q0 4 5 11l107 132q9 10 22 10h104q7 0 11-2.5t4-7.5q0-6-6-12L294 594q-8-9-21-9h-78q-15 0-15 10z"/><glyph glyph-name="uni0156" unicode="Ŗ" horiz-adv-x="618" d="M30.5 5.5Q26 11 28 19l119 680q3 16 19 16h230q105 0 163-57t58-150q0-27-4-50-25-156-174-201L551 20q3-4 3-9 0-11-15-11H403q-16 0-20 13l-92 225h-66L187 16q-3-16-19-16H44q-9 0-13.5 5.5zM338 380q50 0 78.5 22t35.5 68q2 20 2 27 0 74-82 74h-89l-33-191h88zM137.5-232q-4.5 5-1.5 13l77 157q5 12 23 12h110q8 0 12.5-2.5T363-59t-3-8L259-225q-9-12-24-12h-83q-10 0-14.5 5z"/><glyph glyph-name="uni0157" unicode="ŗ" horiz-adv-x="359" d="M13.5 5.5Q9 11 11 19l79 454q3 13 15 19 90 42 185 42 40 0 83-9 8-1 12-6.5t2-13.5l-18-98q-2-17-20-15-28 5-58 5-36 0-65-12L161 16q-3-16-18-16H27q-9 0-13.5 5.5zM-50-220L23-70q8 12 22 12h93q8 0 13-2.5t5-7.5q0-4-3-8L60-227q-6-11-22-11h-72q-23 0-16 18z"/><glyph glyph-name="Rcaron" unicode="Ř" horiz-adv-x="618" d="M581 925.5q4-2.5 4-7.5 0-6-6-12L445 774q-9-9-21-9h-93q-14 0-21 11l-85 131q-3 6-3 10 0 11 14 11h100q14 0 21-12l35-64 59 66q10 10 21 10h98q7 0 11-2.5zM30.5 5.5Q26 11 28 19l119 680q3 16 19 16h230q105 0 163-57t58-150q0-27-4-50-25-156-174-201L551 20q3-4 3-9 0-11-15-11H403q-16 0-20 13l-92 225h-66L187 16q-3-16-19-16H44q-9 0-13.5 5.5zM338 380q50 0 78.5 22t35.5 68q2 20 2 27 0 74-82 74h-89l-33-191h88z"/><glyph glyph-name="rcaron" unicode="ř" horiz-adv-x="359" d="M109 736q0 11 15 11h85q16 0 21-12l37-65 63 68q9 9 22 9h90q15 0 15-10 0-5-6-11L318 593q-9-9-21-9h-81q-14 0-21 12l-83 130q-3 6-3 10zM13.5 5.5Q9 11 11 19l79 454q3 13 15 19 90 42 185 42 40 0 83-9 8-1 12-6.5t2-13.5l-18-98q-2-17-20-15-28 5-58 5-36 0-65-12L161 16q-3-16-18-16H27q-9 0-13.5 5.5z"/><glyph glyph-name="Sacute" unicode="Ś" horiz-adv-x="600" d="M455 32.5Q375-13 263-13q-75 0-134.5 24.5T15 84q-7 7-7 13 0 5 5 12l72 89q6 7 13 7 5 0 12-5 42-33 83.5-49.5T280 134q46 0 78.5 18t38.5 52q1 3 1 10 0 29-28.5 46T280 295Q96 349 96 492q0 12 4 42 17 100 89.5 147T370 728q70 0 125.5-18.5T604 652q8-5 8-12 0-5-5-12l-70-90q-6-7-13-7-6 0-11 4-35 22-77 35.5T352 584q-40 0-65-17.5T256 518q-1-4-1-11 0-28 24-43t75-30q56-17 99.5-38.5t76-61.5T562 233q0-19-5-47Q535 78 455 32.5zM304 790q0 5 5 12l115 131q9 10 21 10h112q7 0 11-2.5t4-7.5q0-6-6-12L424 788q-10-8-20-8h-85q-15 0-15 10z"/><glyph glyph-name="sacute" unicode="ś" horiz-adv-x="482" d="M361 26q-61-39-158-39Q82-13 0 54q-7 6-7 13 0 6 4 11l57 78q6 8 13 8 3 0 11-4 58-43 130-43 39 0 58.5 12t19.5 34q0 16-17 24t-52 16q-71 15-114.5 53T59 355q0 19 4 35 15 74 73.5 109T289 534q51 0 93-11t83-35q9-4 9-13 0-4-5-11l-59-79q-6-8-13-8-5 0-11 3-47 27-111 27-29 0-45-7.5T211 374q-4-21 13.5-30.5T285 324q64-14 109.5-50T440 174q0-15-3-32-15-77-76-116zM220 595q0 4 5 11l107 132q9 10 22 10h104q7 0 11-2.5t4-7.5q0-6-6-12L334 594q-8-9-21-9h-78q-15 0-15 10z"/><glyph glyph-name="Scedilla" unicode="Ş" horiz-adv-x="600" d="M470 43.5Q403-3 307-11l-23-40q38-4 57-25.5t15-53.5q-10-88-143-88-34 0-57 8-14 3-12 20l5 35q1 12 13 12 5 0 8-1 13-3 28-3 47 0 54 29 5 23-34 27-15 2-21 13v1q0 2 6 13l29 52q-64 5-116.5 29T15 84q-7 7-7 13 0 5 5 12l72 89q6 7 13 7 5 0 12-5 42-33 83.5-49.5T280 134q46 0 78.5 18t38.5 52q1 3 1 10 0 29-28.5 46T280 295Q96 349 96 492q0 12 4 42 17 100 89.5 147T370 728q70 0 125.5-18.5T604 652q8-5 8-12 0-5-5-12l-70-90q-6-7-13-7-6 0-11 4-35 22-77 35.5T352 584q-40 0-65-17.5T256 518q-1-4-1-11 0-28 24-43t75-30q56-17 99.5-38.5t76-61.5T562 233q0-19-5-47-20-96-87-142.5z"/><glyph glyph-name="scedilla" unicode="ş" horiz-adv-x="482" d="M370 32Q317-6 232-12l-22-39q32-3 52-22t20-48q0-46-36.5-70.5T143-216q-35 0-59 8-15 3-13 20l4 33q3 16 21 11 13-3 28-3 56 0 56 34 0 10-9 16t-32 9q-14 1-14 8 0 3 5 13l30 56Q66-1 0 54q-7 6-7 13 0 6 4 11l57 78q6 8 13 8 3 0 11-4 58-43 130-43 39 0 58.5 12t19.5 34q0 16-17 24t-52 16q-71 15-114.5 53T59 355q0 19 4 35 15 74 73.5 109T289 534q51 0 93-11t83-35q9-4 9-13 0-4-5-11l-59-79q-6-8-13-8-5 0-11 3-47 27-111 27-29 0-45-7.5T211 374q-4-21 13.5-30.5T285 324q64-14 109.5-50T440 174q0-15-3-32-14-72-67-110z"/><glyph glyph-name="Scaron" unicode="Š" horiz-adv-x="600" d="M584 933.5q4-2.5 4-7.5 0-6-6-12L448 782q-9-9-21-9h-93q-14 0-21 11l-85 131q-3 6-3 10 0 11 14 11h100q14 0 21-12l35-64 59 66q10 10 21 10h98q7 0 11-2.5zm-129-901Q375-13 263-13q-75 0-134.5 24.5T15 84q-7 7-7 13 0 5 5 12l72 89q6 7 13 7 5 0 12-5 42-33 83.5-49.5T280 134q46 0 78.5 18t38.5 52q1 3 1 10 0 29-28.5 46T280 295Q96 349 96 492q0 12 4 42 17 100 89.5 147T370 728q70 0 125.5-18.5T604 652q8-5 8-12 0-5-5-12l-70-90q-6-7-13-7-6 0-11 4-35 22-77 35.5T352 584q-40 0-65-17.5T256 518q-1-4-1-11 0-28 24-43t75-30q56-17 99.5-38.5t76-61.5T562 233q0-19-5-47Q535 78 455 32.5z"/><glyph glyph-name="scaron" unicode="š" horiz-adv-x="482" d="M143 728q0 11 15 11h85q16 0 21-12l37-65 63 68q9 9 22 9h90q15 0 15-10 0-5-6-11L352 585q-9-9-21-9h-81q-14 0-21 12l-83 130q-3 6-3 10zM361 26q-61-39-158-39Q82-13 0 54q-7 6-7 13 0 6 4 11l57 78q6 8 13 8 3 0 11-4 58-43 130-43 39 0 58.5 12t19.5 34q0 16-17 24t-52 16q-71 15-114.5 53T59 355q0 19 4 35 15 74 73.5 109T289 534q51 0 93-11t83-35q9-4 9-13 0-4-5-11l-59-79q-6-8-13-8-5 0-11 3-47 27-111 27-29 0-45-7.5T211 374q-4-21 13.5-30.5T285 324q64-14 109.5-50T440 174q0-15-3-32-15-77-76-116z"/><glyph glyph-name="uni0162" unicode="Ţ" horiz-adv-x="562" d="M623 710q4-5 3-14l-20-110q-2-16-18-16H415L317 16q-3-16-18-16H174q-8 0-12.5 5.5T159 19l98 551H86q-9 0-13 5t-3 14l20 110q3 16 18 16h502q9 0 13-5zM91-237q-4 5-1 13l73 155q4 12 21 12h105q7 0 11.5-2.5T305-66t-3-8l-96-157q-8-11-23-11h-78q-10 0-14 5z"/><glyph glyph-name="uni0163" unicode="ţ" horiz-adv-x="328" d="M187 188q-2-14-2-21 0-48 51-48h30q17 0 13-17L263 9q-3-16-17-17-25-5-51-5-74 0-117.5 39.5T34 143q0 32 5 57l75 429q3 16 19 16h98q9 0 13.5-5t3.5-13l-6-119h80q9 0 13.5-5.5T338 489l-16-92q-3-16-19-16h-82zM0-238q-4 5 0 13L71-73q6 13 21 13h91q16 0 16-10 0-5-2-8l-90-154q-8-11-22-11H15q-11 0-15 5z"/><glyph glyph-name="Tcaron" unicode="Ť" horiz-adv-x="562" d="M564 923q4-3 4-7 0-6-6-12L428 772q-9-9-21-9h-93q-14 0-21 11l-85 131q-3 6-3 10 0 11 14 11h100q14 0 21-12l35-64 59 66q10 10 21 10h98q7 0 11-3zm59-213q4-5 3-14l-20-110q-2-16-18-16H415L317 16q-3-16-18-16H174q-8 0-12.5 5.5T159 19l98 551H86q-9 0-13 5t-3 14l20 110q3 16 18 16h502q9 0 13-5z"/><glyph glyph-name="tcaron" unicode="ť" horiz-adv-x="329" d="M299 590l2 8 60 152q5 13 20 13h88q14 0 14-11 0-3-2-9l-79-153q-6-12-21-12h-67q-15 0-15 12zM197-13q-75 0-118.5 39.5T35 144q0 23 5 56l75 429q3 16 19 16h99q18 0 16-18l-6-119h81q8 0 12.5-5.5T339 489l-16-91q-2-16-18-16h-82l-34-194q-2-14-2-21 0-48 51-48h31q8 0 11-4.5t1-12.5L265 9q-3-15-17-17-25-5-51-5z"/><glyph glyph-name="Tbar" unicode="Ŧ" horiz-adv-x="570" d="M591 570H419l-35-196h103q8 0 12.5-5.5T502 355l-10-62q-3-15-19-15H367L321 16q-3-16-19-16H178q-8 0-12.5 5.5T163 19l46 259H108q-8 0-12 5t-3 14l11 61q3 16 19 16h102l35 196H90q-9 0-13.5 5.5T74 589l20 110q1 7 5.5 11.5T112 715h502q8 0 12-5t3-14l-20-111q-1-15-18-15z"/><glyph glyph-name="tbar" unicode="ŧ" horiz-adv-x="342" d="M208-12q-75 0-118.5 39.5T46 144q0 32 5 57l5 29H23q-9 0-13 5t-2 14l9 46q1 7 5.5 11.5T35 311h35l56 317q3 16 19 16h99q18 0 16-18l-6-120h82q8 0 12.5-5.5T351 487l-16-91q-1-7-5.5-11.5T317 380h-83l-13-69h60q9 0 13.5-5.5T297 292l-9-46q-3-16-18-16h-63l-8-41q-2-14-2-19 0-50 52-50l26 1h3q9 0 12.5-4.5T292 103l-17-93q-1-7-5-11.5T259-7q-25-5-51-5z"/><glyph glyph-name="Umacron" unicode="Ū" horiz-adv-x="665" d="M497.5 55.5Q419-12 287-12q-106 0-165.5 59.5T62 213q0 34 6 71l74 415q3 16 18 16h126q9 0 13.5-5.5T302 696l-77-430q-3-19-3-37 0-46 23-70t65-24q51 0 84.5 31.5T439 259l76 440q3 16 18 16h126q8 0 12.5-5.5T675 696l-78-449q-21-124-99.5-191.5zm-231 736Q262 797 264 805l14 74q3 16 18 16h284q8 0 12.5-5.5T595 876l-14-74q-2-16-18-16H279q-8 0-12.5 5.5z"/><glyph glyph-name="umacron" unicode="ū" horiz-adv-x="541" d="M532 502L451 45q-3-13-15-18-46-18-99.5-28.5T235-12q-95 0-146 48.5T38 169q0 23 5 55l50 281q3 15 18 15h116q8 0 12-5t3-13l-50-293q-3-15-3-29 0-62 64-62 36 0 62 11l67 376q2 15 18 15h117q18 0 15-18zM202.5 691.5Q207 696 215 696h263q8 0 12.5-5.5T493 677l-13-69q-3-16-18-16H200q-9 0-13.5 5.5T184 611l13 69q1 7 5.5 11.5z"/><glyph glyph-name="Uring" unicode="Ů" horiz-adv-x="665" d="M520 781q-41-28-106-28-49 0-82 27.5T299 850q0 6 2 20 11 51 52.5 79T461 977q48 0 80.5-28.5T574 879q0-5-2-19-11-51-52-79zm-121.5 52q10.5-8 30.5-8 24 0 40 13.5t16 35.5q0 14-10.5 22t-29.5 8q-25 0-41-13t-16-36q0-14 10.5-22zm99-777.5Q419-12 287-12q-106 0-165.5 59.5T62 213q0 34 6 71l74 415q3 16 18 16h126q9 0 13.5-5.5T302 696l-77-430q-3-19-3-37 0-46 23-70t65-24q51 0 84.5 31.5T439 259l76 440q3 16 18 16h126q8 0 12.5-5.5T675 696l-78-449q-21-124-99.5-191.5z"/><glyph glyph-name="uring" unicode="ů" horiz-adv-x="541" d="M413 592.5Q374 564 316 564q-44 0-75 26t-31 63q0 5 2 17 9 50 48.5 78.5T360 777q44 0 74.5-26.5T465 686q0-6-2-16-11-49-50-77.5zM301.5 638q10.5-9 27.5-9 24 0 39 14.5t15 37.5q0 30-38 30-23 0-38.5-13.5T291 661q0-14 10.5-23zM532 502L451 45q-3-13-15-18-46-18-99.5-28.5T235-12q-95 0-146 48.5T38 169q0 23 5 55l50 281q3 15 18 15h116q8 0 12-5t3-13l-50-293q-3-15-3-29 0-62 64-62 36 0 62 11l67 376q2 15 18 15h117q18 0 15-18z"/><glyph glyph-name="Uhungarumlaut" unicode="Ű" horiz-adv-x="665" d="M497.5 55.5Q419-12 287-12q-106 0-165.5 59.5T62 213q0 34 6 71l74 415q3 16 18 16h126q9 0 13.5-5.5T302 696l-77-430q-3-19-3-37 0-46 23-70t65-24q51 0 84.5 31.5T439 259l76 440q3 16 18 16h126q8 0 12.5-5.5T675 696l-78-449q-21-124-99.5-191.5zM240 783q0 6 5 11l113 132q7 10 21 10h107q7 0 11-2.5t4-7.5q0-6-6-12L358 782q-9-9-21-9h-82q-15 0-15 10zm216 0q0 7 5 12l123 131q9 10 22 10h110q15 0 15-10 0-6-7-12L578 781q-9-8-22-8h-85q-15 0-15 10z"/><glyph glyph-name="uhungarumlaut" unicode="ű" horiz-adv-x="541" d="M532 502L451 45q-3-13-15-18-46-18-99.5-28.5T235-12q-95 0-146 48.5T38 169q0 23 5 55l50 281q3 15 18 15h116q8 0 12-5t3-13l-50-293q-3-15-3-29 0-62 64-62 36 0 62 11l67 376q2 15 18 15h117q18 0 15-18zm-349 76q-4 3-4 7 0 6 4 11l88 131q8 11 21 11h78q15 0 15-10 0-5-5-12L271 585q-7-10-21-10h-56q-7 0-11 3zm177 0q-4 3-4 8t4 10l92 131q9 11 21 11h78q15 0 15-10 0-5-5-12L448 584q-8-9-22-9h-55q-7 0-11 3z"/><glyph glyph-name="Uogonek" unicode="Ų" horiz-adv-x="663" d="M326-204q-45 0-71.5 21T228-125q0 6 2 20 4 24 22.5 49T301-12h-16q-106 0-165 56.5T61 206q0 37 7 75l74 418q2 16 18 16h125q9 0 13.5-5.5T301 696l-76-430q-4-19-4-38 0-45 23.5-68t64.5-23q51 0 85 31t44 91l76 440q3 16 18 16h125q9 0 13.5-5.5T673 696l-78-451q-15-85-54.5-141T434 16q-39-18-64-43.5T345-72q0-22 31-22 14 0 38 6 3 1 8 1 11 0 12-13l6-56v-3q0-12-12-18-49-27-102-27z"/><glyph glyph-name="uogonek" unicode="ų" horiz-adv-x="535" d="M282-202q-46 0-72 20.5T184-124q0 7 2 19 4 25 26 51t58 46v1q-22-5-38-5-92 0-143 47T38 168q0 32 5 57l49 280q3 15 18 15h115q9 0 13.5-5t2.5-13l-51-292q-3-16-3-29 0-61 62-61 35 0 61 11l67 374q3 15 18 15h116q18 0 15-18L444 46q-3-14-16-18-53-19-90.5-46.5T300-72q0-22 32-22 14 0 38 6 3 1 8 1 12 0 13-13l5-56v-3q0-12-12-18-50-25-102-25z"/><glyph glyph-name="Wcircumflex" unicode="Ŵ" horiz-adv-x="948" d="M142 16L82 697v2q0 7 4.5 11.5T99 715h128q8 0 13-4.5t5-12.5l10-226q3-66 3-184l-1-109h5q20 65 50.5 152.5T367 479l86 212q6 14 20 14h141q17 0 18-16l17-221q3-51 5.5-138t2.5-151h6q21 69 51.5 161.5T766 488l83 213q6 14 20 14h134q7 0 11.5-3.5t4.5-8.5q0-2-2-8L719 13q-6-13-21-13H553q-16 0-17 16l-13 197q-5 89-7 251v36h-6q-12-49-34.5-115.5T428 257L325 14q-6-14-20-14H160q-17 0-18 16zm240 750q-4 3-4 7 0 6 6 12l134 132q9 9 21 9h93q14 0 21-11l85-131q3-6 3-10 0-11-14-11H627q-14 0-21 12l-35 64-59-66q-10-10-21-10h-98q-7 0-11 3z"/><glyph glyph-name="wcircumflex" unicode="ŵ" horiz-adv-x="742" d="M96 16L52 502v2q0 16 17 16h115q18 0 18-17l4-164q2-88 2-168h4q30 95 58 167l64 162q6 13 20 13h119q17 0 17-16l8-160q4-107 3-166h4q13 43 49 140l11 30 61 166q6 13 20 13h115q15 0 15-11 0-5-2-8L560 13q-6-13-21-13H414q-16 0-18 17l-7 166-3 147h-3q-10-33-24.5-73.5T331 183L260 14q-5-14-19-14H114Q97 0 96 16zm500 570q0-11-15-11h-85q-16 0-21 12l-37 65-63-68q-9-9-22-9h-90q-15 0-15 10 0 5 6 11l133 133q9 9 21 9h81q14 0 21-12l83-130q3-6 3-10z"/><glyph glyph-name="Ycircumflex" unicode="Ŷ" horiz-adv-x="582" d="M170 5q-4 5-3 14l44 238L78 696q-1 2-1 6 0 6 4 9.5t11 3.5h130q15 0 18-15l73-295h2l170 298q8 12 20 12h138q14 0 14-11 0-4-3-10L371 254 326 16q-3-16-18-16H183q-9 0-13 5zm26 771q-4 3-4 7 0 6 6 12l134 132q9 9 21 9h93q14 0 21-11l85-131q3-6 3-10 0-11-14-11H441q-14 0-21 12l-35 64-59-66q-10-10-21-10h-98q-7 0-11 3z"/><glyph glyph-name="ycircumflex" unicode="ŷ" horiz-adv-x="539" d="M396 520h115q8 0 12.5-5t3.5-13L447 49q-16-91-48.5-145.5t-86-80T176-202q-59 0-102.5 14.5T-4-144q-6 4-6 12 0 7 4 12l62 79q5 8 13 8 7 0 12-4 45-32 107-32 48 0 73.5 23T295 29q-45-15-85-15-80 0-125.5 47.5T39 189q0 27 4 51l48 265q2 15 18 15h115q9 0 13.5-5t2.5-13l-50-276q-3-13-3-26 0-29 16.5-43.5T249 142q39 0 67 17l61 346q3 15 19 15zm104 69q0-11-15-11h-85q-16 0-21 12l-37 65-63-68q-9-9-22-9h-90q-15 0-15 10 0 5 6 11l133 133q9 9 21 9h81q14 0 21-12l83-130q3-6 3-10z"/><glyph glyph-name="Ydieresis" unicode="Ÿ" horiz-adv-x="582" d="M170 5q-4 5-3 14l44 238L78 696q-1 2-1 6 0 6 4 9.5t11 3.5h130q15 0 18-15l73-295h2l170 298q8 12 20 12h138q14 0 14-11 0-4-3-10L371 254 326 16q-3-16-18-16H183q-9 0-13 5zm156 790q-23-20-55-20-30 0-46 17.5T209 837q0 37 24.5 61.5T294 923q29 0 45.5-17.5T356 862q0-9-1-14-6-33-29-53zm217.5 4Q519 775 483 775q-30 0-46 17t-16 43q0 39 24 63.5t61 24.5q29 0 45.5-17.5T568 861q0-38-24.5-62z"/><glyph glyph-name="Zacute" unicode="Ź" horiz-adv-x="593" d="M-7.5 5.5Q-12 11-10 19l16 85q2 9 10 20l377 448H125q-8 0-12.5 5.5T110 591l19 108q3 16 18 16h464q9 0 13.5-5.5T627 696l-16-82q-3-12-9-21L231 143h289q8 0 12-5t3-14L516 16q-3-16-19-16H6Q-3 0-7.5 5.5zM306 783q0 5 5 12l115 131q9 10 21 10h112q7 0 11-2.5t4-7.5q0-6-6-12L426 781q-10-8-20-8h-85q-15 0-15 10z"/><glyph glyph-name="zacute" unicode="ź" horiz-adv-x="480" d="M-10 5q-4 5-3 14l12 65q3 11 10 20l253 288H85q-8 0-12 5t-3 13l18 95q2 15 18 15h365q8 0 12-5t3-13l-10-61q-3-11-10-20L213 130h196q8 0 12-5t3-14l-18-95q-1-7-5.5-11.5T388 0H3q-9 0-13 5zm233 580q0 4 5 11l107 132q9 10 22 10h104q7 0 11-2.5t4-7.5q0-6-6-12L337 584q-8-9-21-9h-78q-15 0-15 10z"/><glyph glyph-name="Zdotaccent" unicode="Ż" horiz-adv-x="593" d="M-7.5 5.5Q-12 11-10 19l16 85q2 9 10 20l377 448H125q-8 0-12.5 5.5T110 591l19 108q3 16 18 16h464q9 0 13.5-5.5T627 696l-16-82q-3-12-9-21L231 143h289q8 0 12-5t3-14L516 16q-3-16-19-16H6Q-3 0-7.5 5.5zm464 793Q430 772 385 772q-34 0-53.5 20T312 843q0 39 27 66t67 27q35 0 56-20.5t21-51.5q0-39-26.5-65.5z"/><glyph glyph-name="zdotaccent" unicode="ż" horiz-adv-x="480" d="M-10 5q-4 5-3 14l12 65q3 11 10 20l253 288H85q-8 0-12 5t-3 13l18 95q2 15 18 15h365q8 0 12-5t3-13l-10-61q-3-11-10-20L213 130h196q8 0 12-5t3-14l-18-95q-1-7-5.5-11.5T388 0H3q-9 0-13 5zm376 601q-25-27-65-27-30 0-49 18.5T233 645q0 38 26 63.5t64 25.5q30 0 49-17.5t19-45.5q0-38-25-65z"/><glyph glyph-name="Zcaron" unicode="Ž" horiz-adv-x="593" d="M585 933q4-3 4-7 0-6-6-12L449 782q-9-9-21-9h-93q-14 0-21 11l-85 131q-3 6-3 10 0 11 14 11h100q14 0 21-12l35-64 59 66q10 10 21 10h98q7 0 11-3zM-7.5 5.5Q-12 11-10 19l16 85q2 9 10 20l377 448H125q-8 0-12.5 5.5T110 591l19 108q3 16 18 16h464q9 0 13.5-5.5T627 696l-16-82q-3-12-9-21L231 143h289q8 0 12-5t3-14L516 16q-3-16-19-16H6Q-3 0-7.5 5.5z"/><glyph glyph-name="zcaron" unicode="ž" horiz-adv-x="480" d="M158 726q0 11 15 11h85q16 0 21-12l37-65 63 68q9 9 22 9h90q15 0 15-10 0-5-6-11L367 583q-9-9-21-9h-81q-14 0-21 12l-83 130q-3 6-3 10zM-10 5q-4 5-3 14l12 65q3 11 10 20l253 288H85q-8 0-12 5t-3 13l18 95q2 15 18 15h365q8 0 12-5t3-13l-10-61q-3-11-10-20L213 130h196q8 0 12-5t3-14l-18-95q-1-7-5.5-11.5T388 0H3q-9 0-13 5z"/><glyph glyph-name="florin" unicode="ƒ" horiz-adv-x="453" d="M133.5-84.5Q85-128 11-128q-35 0-62 11-12 4-12 14 0 2 2 8l38 90q6 15 19 12 8-1 20-1 22 0 35.5 12T75 61l76 224H86q-9 0-13 5.5T71 305l22 101q3 16 18 16h86l50 156q21 63 65.5 106.5T432 728q39 0 75-9 8-2 11.5-8t.5-14l-30-84q-2-7-7.5-10t-13.5-1q-12 3-24 3-53 0-73-59l-38-124h78q8 0 12.5-5.5T426 402l-22-101q-3-16-18-16h-98L208 35q-26-76-74.5-119.5z"/><glyph glyph-name="uni0218" unicode="Ș" horiz-adv-x="600" d="M455 32.5Q375-13 263-13q-75 0-134.5 24.5T15 84q-7 7-7 13 0 5 5 12l72 89q6 7 13 7 5 0 12-5 42-33 83.5-49.5T280 134q46 0 78.5 18t38.5 52q1 3 1 10 0 29-28.5 46T280 295Q96 349 96 492q0 12 4 42 17 100 89.5 147T370 728q70 0 125.5-18.5T604 652q8-5 8-12 0-5-5-12l-70-90q-6-7-13-7-6 0-11 4-35 22-77 35.5T352 584q-40 0-65-17.5T256 518q-1-4-1-11 0-28 24-43t75-30q56-17 99.5-38.5t76-61.5T562 233q0-19-5-47Q535 78 455 32.5zm-333-275q-4 4.5-1 12.5l73 154q4 12 22 12h103q7 0 11.5-2.5T335-73t-3-8l-95-155q-7-11-23-11h-78q-10 0-14 4.5z"/><glyph glyph-name="uni0219" unicode="ș" horiz-adv-x="482" d="M361 26q-61-39-158-39Q82-13 0 54q-7 6-7 13 0 6 4 11l57 78q6 8 13 8 3 0 11-4 58-43 130-43 39 0 58.5 12t19.5 34q0 16-17 24t-52 16q-71 15-114.5 53T59 355q0 19 4 35 15 74 73.5 109T289 534q51 0 93-11t83-35q9-4 9-13 0-4-5-11l-59-79q-6-8-13-8-5 0-11 3-47 27-111 27-29 0-45-7.5T211 374q-4-21 13.5-30.5T285 324q64-14 109.5-50T440 174q0-15-3-32-15-77-76-116zM67-236.5q-4 4.5 0 12.5l71 149q8 13 22 13h92q8 0 12.5-3t4.5-7-3-8l-91-150q-7-11-22-11H82q-11 0-15 4.5z"/><glyph glyph-name="uni021A" unicode="Ț" horiz-adv-x="562" d="M623 710q4-5 3-14l-20-110q-2-16-18-16H415L317 16q-3-16-18-16H174q-8 0-12.5 5.5T159 19l98 551H86q-9 0-13 5t-3 14l20 110q3 16 18 16h502q9 0 13-5zM82.5-239q-4.5 5-1.5 13l76 157q4 12 22 12h108q8 0 12.5-2.5T304-66t-3-8l-99-158q-9-12-24-12H97q-10 0-14.5 5z"/><glyph glyph-name="uni021B" unicode="ț" horiz-adv-x="328" d="M187 188q-2-14-2-21 0-48 51-48h30q17 0 13-17L263 9q-3-16-17-17-25-5-51-5-74 0-117.5 39.5T34 143q0 32 5 57l75 429q3 16 19 16h98q9 0 13.5-5t3.5-13l-6-119h80q9 0 13.5-5.5T338 489l-16-92q-3-16-19-16h-82zM0-223L72-74q7 12 22 12h93q8 0 12.5-3t4.5-7-3-8l-92-149q-8-11-22-11H16q-22 0-16 17z"/><glyph glyph-name="uni0237" unicode="ȷ" horiz-adv-x="266" d="M92-157q-55-45-138-45-21 0-47 4-16 3-13 21l18 102q3 15 15 15l27-1q52 0 65 78l85 488q3 15 19 15h116q8 0 12-5t3-13L167-1q-20-111-75-156z"/><glyph glyph-name="circumflex" unicode="ˆ" horiz-adv-x="348" d="M409 606q0-11-15-11h-85q-16 0-21 12l-37 65-63-68q-9-9-22-9H76q-15 0-15 10 0 5 6 11l133 133q9 9 21 9h81q14 0 21-12l83-130q3-6 3-10z"/><glyph glyph-name="caron" unicode="ˇ" horiz-adv-x="347" d="M85 746q0 11 15 11h85q16 0 21-12l37-65 63 68q9 9 22 9h90q15 0 15-10 0-5-6-11L294 603q-9-9-21-9h-81q-14 0-21 12L88 736q-3 6-3 10z"/><glyph glyph-name="breve" unicode="˘" horiz-adv-x="325" d="M344 625q-44-33-123-33-41 0-72 18t-48 48.5T84 723q0 20 16 23l72 12h4q11 0 14-16 4-46 50-46 48 0 66 49 5 15 21 13l68-12q8-2 11.5-7t1.5-12q-20-69-64-102z"/><glyph glyph-name="dotaccent" unicode="˙" horiz-adv-x="155" d="M205 626q-25-27-65-27-30 0-49 18.5T72 665q0 38 26 63.5t64 25.5q30 0 49-17.5t19-45.5q0-38-25-65z"/><glyph glyph-name="ring" unicode="˚" horiz-adv-x="229" d="M273.5 616.5Q235 584 178 584q-43 0-74 30.5T73 687q0 7 2 19 9 57 48 89.5t99 32.5q43 0 73-30.5t30-72.5q0-7-2-19-11-57-49.5-89.5zm-110 52.5q10.5-10 27.5-10 24 0 38.5 17t14.5 43q0 34-37 34-23 0-38.5-15.5T153 696q0-17 10.5-27z"/><glyph glyph-name="ogonek" unicode="˛" horiz-adv-x="290" d="M61-204q-47 0-72 22t-25 58q0 32 23.5 66T52-5q10 5 22 5h50q13 0 13-5t-10-11q-21-12-33-27T82-73q0-21 34-21 18 0 38 6 3 1 9 1 11 0 12-14l3-56v-3q0-12-11-18-54-26-106-26z"/><glyph glyph-name="tilde" unicode="˜" horiz-adv-x="368" d="M390 619q-29-25-64-25-30 0-76 23-16 7-29.5 11.5T197 633q-23 0-42-22-8-8-15-8-4 0-9 3l-47 31q-9 6-9 15 0 6 2 9 21 34 50.5 58.5T195 744q29 0 73-22 18-9 30-13t22-4q19 0 39 22 6 8 14 8 3 0 11-4l47-32q9-4 9-13 0-5-2-8-19-34-48-59z"/><glyph glyph-name="hungarumlaut" unicode="˝" horiz-adv-x="362" d="M64 598q-4 3-4 7 0 6 4 11l88 131q8 11 21 11h78q15 0 15-10 0-5-5-12L152 605q-7-10-21-10H75q-7 0-11 3zm177 0q-4 3-4 8t4 10l92 131q9 11 21 11h78q15 0 15-10 0-5-5-12L329 604q-8-9-22-9h-55q-7 0-11 3z"/><glyph glyph-name="gravecomb" unicode="̀" d="M46 606q0-11-14-11h-69q-14 0-21 11l-85 131q-4 5-4 10t4 8 11 3h93q13 0 20-13l63-130q2-3 2-9z"/><glyph glyph-name="acutecomb" unicode="́" d="M-179 605q0 4 5 11l107 132q9 10 22 10H59q7 0 11-2.5t4-7.5q0-6-6-12L-65 604q-8-9-21-9h-78q-15 0-15 10z"/><glyph glyph-name="uni0302" unicode="̂" d="M52 606q0-11-15-11h-85q-16 0-21 12l-37 65-63-68q-9-9-22-9h-90q-15 0-15 10 0 5 6 11l133 133q9 9 21 9h81q14 0 21-12l83-130q3-6 3-10z"/><glyph glyph-name="tildecomb" unicode="̃" d="M21 619q-29-25-64-25-30 0-76 23-16 7-29.5 11.5T-172 633q-23 0-42-22-8-8-15-8-4 0-9 3l-47 31q-9 6-9 15 0 6 2 9 21 34 50.5 58.5T-174 744q29 0 73-22 18-9 30-13t22-4q19 0 39 22 6 8 14 8 3 0 11-4l47-32q9-4 9-13 0-5-2-8-19-34-48-59z"/><glyph glyph-name="uni0304" unicode="̄" d="M-211.5 711.5q4.5 4.5 12.5 4.5H64q8 0 12.5-5.5T79 697l-13-69q-3-16-18-16h-262q-9 0-13.5 5.5T-230 631l13 69q1 7 5.5 11.5z"/><glyph glyph-name="uni0306" unicode="̆" d="M17 625q-44-33-123-33-41 0-72 18t-48 48.5-17 64.5q0 20 16 23l72 12h4q11 0 14-16 4-46 50-46 48 0 66 49 5 15 21 13l68-12q8-2 11.5-7t1.5-12q-20-69-64-102z"/><glyph glyph-name="uni0307" unicode="̇" d="M43 626q-25-27-65-27-30 0-49 18.5T-90 665q0 38 26 63.5T0 754q30 0 49-17.5T68 691q0-38-25-65z"/><glyph glyph-name="uni0308" unicode="̈" d="M-159.5 619q-21.5-19-52.5-19-27 0-43.5 16.5T-272 660q0 39 23.5 62.5T-189 746q26 0 42.5-16t16.5-42q0-5-2-17-6-33-27.5-52zM49 619q-21-19-52-19-27 0-44 16.5T-64 660q0 39 23.5 62.5T19 746q26 0 42.5-16T78 688q0-5-2-17-6-33-27-52z"/><glyph glyph-name="uni030A" unicode="̊" d="M39.5 616.5Q1 584-56 584q-43 0-74 30.5t-31 72.5q0 7 2 19 9 57 48 89.5t99 32.5q43 0 73-30.5T91 725q0-7-2-19-11-57-49.5-89.5zm-110 52.5Q-60 659-43 659q24 0 38.5 17T10 719q0 34-37 34-23 0-38.5-15.5T-81 696q0-17 10.5-27z"/><glyph glyph-name="uni030B" unicode="̋" d="M-303 598q-4 3-4 7 0 6 4 11l88 131q8 11 21 11h78q15 0 15-10 0-5-5-12l-109-131q-7-10-21-10h-56q-7 0-11 3zm177 0q-4 3-4 8t4 10l92 131q9 11 21 11h78q15 0 15-10 0-5-5-12L-38 604q-8-9-22-9h-55q-7 0-11 3z"/><glyph glyph-name="uni030C" unicode="̌" d="M-279 746q0 11 15 11h85q16 0 21-12l37-65 63 68q9 9 22 9h90q15 0 15-10 0-5-6-11L-70 603q-9-9-21-9h-81q-14 0-21 12l-83 130q-3 6-3 10z"/><glyph glyph-name="uni0312" unicode="̒" d="M-114 606q0 5 3 9l82 167q8 12 21 12h64q15 0 15-12l-2-8L4 608q-5-13-20-13h-83q-15 0-15 11z"/><glyph glyph-name="uni0326" unicode="̦" d="M-273-258l65 166q6 14 20 14h83q15 0 15-11 0-6-2-9l-83-167q-6-12-20-12h-64q-20 0-14 19z"/><glyph glyph-name="uni0327" unicode="̧" d="M-87.5-185.5Q-124-210-190-210q-35 0-59 8-15 3-13 20l4 33q3 16 21 11 14-3 28-3 56 0 56 34 0 9-7.5 14.5T-186-85q-15 2-21 13v1q0 2 6 13l28 51q6 12 21 12h35q15 0 15-12 0-5-3-9l-18-29q32-3 52-22t20-48q0-46-36.5-70.5z"/><glyph glyph-name="uni0328" unicode="̨" d="M-229-204q-47 0-72 22t-25 58q0 32 23.5 66T-238-5q10 5 22 5h50q13 0 13-5t-10-11q-21-12-33-27t-12-30q0-21 34-21 18 0 38 6 3 1 9 1 11 0 12-14l3-56v-3q0-12-11-18-54-26-106-26z"/><glyph glyph-name="uni0335" unicode="̵" d="M-276.5 571.5Q-281 577-279 585l12 68q1 7 5.5 11.5t12.5 4.5H54q8 0 12.5-5.5T70 650l-12-68q-3-16-19-16h-303q-8 0-12.5 5.5z"/><glyph glyph-name="uni0336" unicode="̶" d="M-493 317H-8q8 0 12.5-5.5T7 298l-12-68q-3-15-18-15h-485q-18 0-15 19l12 67q1 16 18 16z"/><glyph glyph-name="uni0337" unicode="̷" d="M50 596q5 0 7-4.5t1-12.5l-16-93q-3-12-12-20l-304-242q-7-5-11-5-5 0-7.5 4.5T-294 236l17 93q3 12 12 20L38 591q7 5 12 5z"/><glyph glyph-name="uni0338" unicode="̸" d="M-616-42q0 4 3 9l528 784q8 11 22 11H52q15 0 15-12 0-4-3-9L-464-42q-8-12-22-12h-115q-15 0-15 12z"/><glyph glyph-name="tonos" unicode="΄" horiz-adv-x="250" d="M84 605q0 4 5 11l107 132q9 10 22 10h104q7 0 11-2.5t4-7.5q0-6-6-12L198 604q-8-9-21-9H99q-15 0-15 10z"/><glyph glyph-name="dieresistonos" unicode="΅" horiz-adv-x="460" d="M212 606q0 5 3 9l71 131q6 12 21 12h91q7 0 11-2.5t4-7.5q0-6-4-11l-93-132q-6-10-21-10h-68q-15 0-15 11zm-20 21.5Q170 605 139 605q-25 0-39.5 13.5T85 657q0 9 1 14 6 31 26.5 49t49.5 18q25 0 38.5-14t13.5-39q0-35-22-57.5zm318 .5q-21-23-54-23-24 0-38.5 14T403 657q0 37 22.5 59t55.5 22q23 0 36.5-13.5T531 687q0-36-21-59z"/><glyph glyph-name="Alphatonos" unicode="Ά" horiz-adv-x="720" d="M55 562q0 4 5 11l107 132q9 10 22 10h104q7 0 11-2.5t4-7.5q0-6-6-12L169 561q-8-9-21-9H70q-15 0-15 10zM516 16l-14 117H277L223 13q-4-13-20-13H66Q51 0 51 11q0 4 3 10l333 681q6 13 20 13h146q16 0 19-16L675 18v-4q0-14-16-14H534q-17 0-18 16zm-78 484q-62-147-98-225h146l-27 266h-4z"/><glyph glyph-name="Epsilontonos" unicode="Έ" horiz-adv-x="783" d="M47 562q0 4 5 11l107 132q9 10 22 10h104q7 0 11-2.5t4-7.5q0-6-6-12L161 561q-8-9-21-9H62q-15 0-15 10zm721 10H496l-25-139h238q8 0 12-5t3-14l-19-105q-3-16-18-16H446l-26-149h283q8 0 12.5-5.5T719 125L701 16q-3-16-19-16H255q-9 0-13 5t-3 14l121 680q3 16 18 16h411q9 0 13.5-5.5T805 696l-19-108q-3-16-18-16z"/><glyph glyph-name="Etatonos" unicode="Ή" horiz-adv-x="888" d="M47 562q0 4 5 11l107 132q9 10 22 10h104q7 0 11-2.5t4-7.5q0-6-6-12L161 561q-8-9-21-9H62q-15 0-15 10zm694.5 148.5Q746 715 754 715h124q8 0 12.5-5.5T894 696L773 16q-2-16-18-16H631q-8 0-12.5 5.5T616 19l48 270H457L409 16q-3-16-19-16H267q-9 0-13.5 5.5T251 19l120 680q3 16 18 16h124q9 0 13-5t3-14l-46-262h206l47 265q1 7 5.5 11.5z"/><glyph glyph-name="Iotatonos" unicode="Ί" horiz-adv-x="509" d="M47 562q0 4 5 11l107 132q9 10 22 10h104q7 0 11-2.5t4-7.5q0-6-6-12L161 561q-8-9-21-9H62q-15 0-15 10zM377 0H253q-8 0-12.5 5.5T237 19l120 680q3 16 19 16h123q9 0 13.5-5.5T515 696L395 16q-3-16-18-16z"/><glyph glyph-name="Omicrontonos" unicode="Ό" horiz-adv-x="816" d="M48 562q0 4 5 11l107 132q9 10 22 10h104q7 0 11-2.5t4-7.5q0-6-6-12L162 561q-8-9-21-9H63q-15 0-15 10zM660 57q-85-70-220-70-110 0-171.5 63.5T207 221q0 32 6 68l31 177q22 123 107 192.5T567 728q111 0 174-61.5T804 498q0-31-6-66l-31-177Q745 127 660 57zM369 235q0-47 24-74.5t70-27.5q58 0 95 34.5t48 96.5l32 183q3 20 3 36 0 46-24 72.5T546 582q-58 0-94-33.5T405 452l-33-181q-3-19-3-36z"/><glyph glyph-name="Upsilontonos" unicode="Ύ" horiz-adv-x="877" d="M67 562q0 4 5 11l107 132q9 10 22 10h104q7 0 11-2.5t4-7.5q0-6-6-12L181 561q-8-9-21-9H82q-15 0-15 10zM465 5q-4 5-3 14l44 238-133 439q-1 2-1 6 0 6 4 9.5t11 3.5h130q15 0 18-15l73-295h2l170 298q8 12 20 12h138q14 0 14-11 0-4-3-10L666 254 621 16q-3-16-18-16H478q-9 0-13 5z"/><glyph glyph-name="Omegatonos" unicode="Ώ" horiz-adv-x="825" d="M152.5 5.5Q148 11 150 19l18 103q3 15 18 15h58q-31 57-31 134 0 26 5 59l19 116q24 137 112 209.5T564 728q107 0 171-62t64-169q0-35-5-61l-20-115q-8-48-33-97t-61-87h54q8 0 12.5-5t3.5-14L731 16q-1-16-18-16H489q-9 0-13.5 5.5T473 19l16 95q1 13 16 19 80 29 105 168l23 142q5 30 5 48 0 48-24.5 69T541 582q-118 0-144-142l-23-140q-7-36-7-68 0-75 46-98 12-9 11-22l-16-96q-3-16-19-16H166q-9 0-13.5 5.5zM49 562q0 4 5 11l107 132q9 10 22 10h104q7 0 11-2.5t4-7.5q0-6-6-12L163 561q-8-9-21-9H64q-15 0-15 10z"/><glyph glyph-name="iotadieresistonos" unicode="ΐ" horiz-adv-x="259" d="M107 603q0 5 3 9l72 130q6 12 21 12h85q7 0 11-2.5t4-7.5q0-6-4-11l-93-131q-6-10-21-10h-63q-15 0-15 11zm-17 22q-21-22-54-22-24 0-38.5 13T-17 653q0 37 22.5 59T60 734q24 0 37.5-13.5T111 683q0-36-21-58zm306.5 0Q375 603 343 603q-25 0-39.5 13.5T289 654q0 9 1 14 6 30 27 48t50 18q24 0 37.5-13.5T418 682q0-35-21.5-57zM13.5 5.5Q9 11 11 19l86 486q3 15 18 15h117q8 0 12-5t3-13L161 16q-3-16-19-16H27q-9 0-13.5 5.5z"/><glyph glyph-name="Alpha" unicode="Α" horiz-adv-x="630" d="M426 16l-14 117H187L133 13q-4-13-20-13H-24q-15 0-15 11 0 4 3 10l333 681q6 13 20 13h146q16 0 19-16L585 18v-4q0-14-16-14H444q-17 0-18 16zm-78 484q-62-147-98-225h146l-27 266h-4z"/><glyph glyph-name="Beta" unicode="Β" horiz-adv-x="623" d="M30.5 5.5Q26 11 28 19l120 680q3 16 18 16h246q91 0 142-47t51-122q0-18-3-38-8-44-31.5-77.5T511 378q35-18 53.5-50t18.5-76q0-17-3-37-18-105-88.5-160T296 0H44q-9 0-13.5 5.5zM352 436q38 0 61.5 19.5T443 510q2 12 2 18 0 50-68 50h-92l-25-142h92zm-39-295q43 0 72 22.5t36 66.5q1 6 1 16 0 61-77 61H236l-29-166h106z"/><glyph glyph-name="Gamma" unicode="Γ" horiz-adv-x="509" d="M31.5 5.5Q27 11 28 19l120 680q3 16 18 16h391q9 0 13.5-5.5T573 696l-20-113q-1-15-18-15H288L190 16q-3-16-18-16H44q-8 0-12.5 5.5z"/><glyph glyph-name="uni0394" unicode="Δ" horiz-adv-x="640" d="M493 699L595 18v-4q0-14-16-14H-25q-15 0-15 11 0 4 3 10l342 681q6 13 20 13h149q16 0 19-16zm-72-560l-24 185q-12 101-22 212h-5q-54-129-87-203l-93-194h231z"/><glyph glyph-name="Epsilon" unicode="Ε" horiz-adv-x="572" d="M557 572H285l-25-139h238q8 0 12-5t3-14l-19-105q-3-16-18-16H235l-26-149h283q8 0 12.5-5.5T508 125L490 16q-3-16-19-16H44q-9 0-13 5t-3 14l121 680q3 16 18 16h411q9 0 13.5-5.5T594 696l-19-108q-3-16-18-16z"/><glyph glyph-name="Zeta" unicode="Ζ" horiz-adv-x="593" d="M-7.5 5.5Q-12 11-10 19l16 85q2 9 10 20l377 448H125q-8 0-12.5 5.5T110 591l19 108q3 16 18 16h464q9 0 13.5-5.5T627 696l-16-82q-3-12-9-21L231 143h289q8 0 12-5t3-14L516 16q-3-16-19-16H6Q-3 0-7.5 5.5z"/><glyph glyph-name="Eta" unicode="Η" horiz-adv-x="665" d="M518.5 710.5Q523 715 531 715h124q8 0 12.5-5.5T671 696L550 16q-2-16-18-16H408q-8 0-12.5 5.5T393 19l48 270H234L186 16q-3-16-19-16H44q-9 0-13.5 5.5T28 19l120 680q3 16 18 16h124q9 0 13-5t3-14l-46-262h206l47 265q1 7 5.5 11.5z"/><glyph glyph-name="Theta" unicode="Θ" horiz-adv-x="656" d="M500 57q-85-70-220-70-110 0-171.5 63.5T47 221q0 32 6 68l31 177q22 123 107 192.5T407 728q111 0 174-61.5T644 498q0-31-6-66l-31-177Q585 127 500 57zM209 235q0-47 24-74.5t70-27.5q58 0 95 34.5t48 96.5l32 183q3 20 3 36 0 46-24 72.5T386 582q-58 0-94-33.5T245 452l-33-181q-3-19-3-36zm78 187h133q8 0 12.5-5.5T435 403l-15-89q-3-16-19-16H268q-9 0-13 5t-2 14l16 89q1 16 18 16z"/><glyph glyph-name="Iota" unicode="Ι" horiz-adv-x="300" d="M168 0H44q-8 0-12.5 5.5T28 19l120 680q3 16 19 16h123q9 0 13.5-5.5T306 696L186 16q-3-16-18-16z"/><glyph glyph-name="Kappa" unicode="Κ" horiz-adv-x="627" d="M685 705q0-7-5-12L397 393 588 21q2-3 2-9 0-12-15-12H434q-16 0-20 13L283 283l-60-58-37-209q-3-16-19-16H44q-9 0-13.5 5.5T28 19l120 680q3 16 19 16h123q9 0 13-5t3-14l-44-248 226 257q8 10 21 10h161q15 0 15-10z"/><glyph glyph-name="Lambda" unicode="Λ" horiz-adv-x="640" d="M-40 11q0 4 3 10l342 681q6 13 20 13h149q16 0 19-16L595 18v-2q0-16-17-16H452q-17 0-18 16l-38 308q-14 127-21 212h-5l-28-66q-46-110-59-137L134 13q-4-13-21-13H-25q-15 0-15 11z"/><glyph glyph-name="Mu" unicode="Μ" horiz-adv-x="840" d="M30.5 5.5Q26 11 28 19l119 680q3 16 18 16h141q16 0 20-15l50-171q36-139 50-205h3q75 133 122 207l112 173q7 11 21 11h146q9 0 13.5-5.5T846 696L727 16q-3-16-19-16H586q-8 0-12.5 5.5T570 19l22 127q17 100 63 317l-5 1q-39-74-118-203l-64-100q-7-12-20-12h-91q-15 0-20 15l-30 102-9 36q-32 118-39 157h-5q-13-105-46-310L185 16q-1-16-19-16H44q-9 0-13.5 5.5z"/><glyph glyph-name="Nu" unicode="Ν" horiz-adv-x="684" d="M30.5 5.5Q26 11 28 19l120 680q1 7 5.5 11.5T166 715h132q17 0 20-14l79-237q34-109 62-215l5 1q15 129 40 277l30 172q3 16 18 16h122q9 0 13.5-5.5T690 696L570 16q-3-16-19-16H420q-14 0-20 14l-79 212q-20 51-39.5 120.5T252 464l-4-2q-18-185-38-296L184 16q-3-16-18-16H43q-8 0-12.5 5.5z"/><glyph glyph-name="Xi" unicode="Ξ" horiz-adv-x="596" d="M113 575q-4 5-3 14l21 110q3 16 19 16h455q9 0 13-5t3-14l-21-111q-3-15-18-15H126q-9 0-13 5zM96.5 297q-4.5 5-3.5 14l20 107q3 16 19 16h392q8 0 12.5-5.5T539 415l-19-108q-1-15-18-15H109q-8 0-12.5 5zM0 5q-4 5-3 14l19 111q3 15 19 15h484q8 0 12-5t3-14L514 16q-3-16-19-16H12Q4 0 0 5z"/><glyph glyph-name="Omicron" unicode="Ο" horiz-adv-x="656" d="M500 57q-85-70-220-70-110 0-171.5 63.5T47 221q0 32 6 68l31 177q22 123 107 192.5T407 728q111 0 174-61.5T644 498q0-31-6-66l-31-177Q585 127 500 57zM209 235q0-47 24-74.5t70-27.5q58 0 95 34.5t48 96.5l32 183q3 20 3 36 0 46-24 72.5T386 582q-58 0-94-33.5T245 452l-33-181q-3-19-3-36z"/><glyph glyph-name="Pi" unicode="Π" horiz-adv-x="664" d="M29.5 5.5Q25 11 27 19l123 680q1 16 18 16h488q8 0 12.5-5.5T671 696L548 16q-1-16-18-16H406q-8 0-12.5 5.5T391 19l99 551H285L185 16q-3-16-19-16H42q-8 0-12.5 5.5z"/><glyph glyph-name="Rho" unicode="Ρ" horiz-adv-x="612" d="M563.5 658Q625 601 625 505q0-33-5-58-20-109-94.5-171.5T332 213H221L186 16q-3-16-19-16H43q-8 0-12.5 5.5T28 19l120 680q1 7 5.5 11.5T166 715h227q109 0 170.5-57zM420 382.5q32 26.5 40 77.5 2 10 2 27 0 41-23.5 62.5T371 571h-87l-38-215h89q53 0 85 26.5z"/><glyph glyph-name="Sigma" unicode="Σ" horiz-adv-x="581" d="M-3.5 5Q-8 10-7 18L5 89q1 11 9 20l218 260-124 251q-6 10-4 22l10 57q3 16 19 16h468q9 0 13-5t2-14l-20-109q-3-15-18-15H305q7-12 69-137 7-16 26-54 2-4 2-11 0-8-4-13L225 145h276q8 0 12.5-5.5T516 126L495 16q-2-16-18-16H9Q1 0-3.5 5z"/><glyph glyph-name="Tau" unicode="Τ" horiz-adv-x="562" d="M623 710q4-5 3-14l-20-110q-2-16-18-16H415L317 16q-3-16-18-16H174q-8 0-12.5 5.5T159 19l98 551H86q-9 0-13 5t-3 14l20 110q3 16 18 16h502q9 0 13-5z"/><glyph glyph-name="Upsilon" unicode="Υ" horiz-adv-x="582" d="M170 5q-4 5-3 14l44 238L78 696q-1 2-1 6 0 6 4 9.5t11 3.5h130q15 0 18-15l73-295h2l170 298q8 12 20 12h138q14 0 14-11 0-4-3-10L371 254 326 16q-3-16-18-16H183q-9 0-13 5z"/><glyph glyph-name="Phi" unicode="Φ" horiz-adv-x="849" d="M731.5 666.5Q779 640 806 592t27-112q0-24-5-56l-23-138Q782 155 703 87T508 19h-48l-13-70q-1-7-5.5-11.5T429-67H306q-9 0-13 5t-3 14l12 67h-45q-60 0-107.5 26.5t-75 76T47 236q0 23 5 55l25 138q23 129 102 196.5T374 693h48l11 66q3 15 19 15h123q8 0 12.5-5t3.5-13l-11-63h44q60 0 107.5-26.5zM208 248q0-39 22-58t60-19h39l66 370h-37q-46 0-78-26.5T238 433l-27-156q-3-15-3-29zm465 217q0 39-22 57.5T592 541h-39l-66-370h37q45 0 77.5 27.5T643 280l27 156q3 17 3 29z"/><glyph glyph-name="Chi" unicode="Χ" horiz-adv-x="605" d="M658 712.5q4-2.5 4-7.5 0-6-4-11L416 356 551 20q1-3 1-7 0-13-15-13H403q-14 0-19 14l-81 227L153 12q-7-12-21-12H-18q-7 0-11 3t-4 8 4 10l249 338-119 336q-1 3-1 7 0 6 4 9.5t11 3.5h130q15 0 20-14l69-227 148 229q8 12 21 12h144q7 0 11-2.5z"/><glyph glyph-name="Psi" unicode="Ψ" horiz-adv-x="830" d="M720 715h122q8 0 12.5-5.5T857 696l-51-290q-23-128-103-193.5T499 147h-27L449 16q-3-16-19-16H309q-8 0-12.5 5.5T293 19l23 128h-25q-63 0-113.5 27.5t-79 77T70 363q0 25 4 46l51 290q3 16 19 16h121q8 0 12.5-5.5T280 696l-50-293q-3-16-3-30 0-81 96-81h19l72 407q2 16 18 16h121q9 0 13-5t3-14l-71-404h19q53 0 88.5 28t45.5 85l51 294q3 16 18 16z"/><glyph glyph-name="uni03A9" unicode="Ω" horiz-adv-x="681" d="M8.5 5.5Q4 11 6 19l18 103q3 15 18 15h58q-31 57-31 134 0 26 5 59l19 116q24 137 112 209.5T420 728q107 0 171-62t64-169q0-35-5-61l-20-115q-8-48-33-97t-61-87h54q8 0 12.5-5t3.5-14L587 16q-1-16-18-16H345q-9 0-13.5 5.5T329 19l16 95q1 13 16 19 80 29 105 168l23 142q5 30 5 48 0 48-24.5 69T397 582q-118 0-144-142l-23-140q-7-36-7-68 0-75 46-98 12-9 11-22l-16-96q-3-16-19-16H22Q13 0 8.5 5.5z"/><glyph glyph-name="Iotadieresis" unicode="Ϊ" horiz-adv-x="300" d="M198 785q-23-20-55-20-30 0-46 17.5T81 827q0 37 24.5 61.5T166 913q29 0 45.5-17.5T228 852q0-9-1-14-6-33-29-53zm206 4.5Q380 765 343 765q-30 0-46 17.5T281 827q0 9 1 13 6 33 29 53t55 20q29 0 45.5-17t16.5-43q0-39-24-63.5zM168 0H44q-8 0-12.5 5.5T28 19l120 680q3 16 19 16h123q9 0 13.5-5.5T306 696L186 16q-3-16-18-16z"/><glyph glyph-name="Upsilondieresis" unicode="Ϋ" horiz-adv-x="582" d="M319 795q-23-20-55-20-30 0-46 17.5T202 837q0 37 24.5 61.5T287 923q29 0 45.5-17.5T349 862q0-9-1-14-6-33-29-53zm217.5 4Q512 775 476 775q-30 0-46 17t-16 43q0 39 24 63.5t61 24.5q29 0 45.5-17.5T561 861q0-38-24.5-62zM170 5q-4 5-3 14l44 238L78 696q-1 2-1 6 0 6 4 9.5t11 3.5h130q15 0 18-15l73-295h2l170 298q8 12 20 12h138q14 0 14-11 0-4-3-10L371 254 326 16q-3-16-18-16H183q-9 0-13 5z"/><glyph glyph-name="alphatonos" unicode="ά" horiz-adv-x="537" d="M255 4q-38-16-80-16-68 0-110 46.5T23 158q0 21 5 51l20 112q19 102 94 157t178 55q42 0 92.5-10t97.5-27q14-6 12-21L440 16q-2-16-18-16h-81q-16 0-19 16l-2 32q-27-28-65-44zm-79 165q0-24 13-37t39-13q22 0 46 11t41 28l42 234q-25 9-57 9-38 0-64.5-20.5T202 323l-24-134q-2-14-2-20zm80 436q0 4 5 11l107 132q9 10 22 10h104q7 0 11-2.5t4-7.5q0-6-6-12L370 604q-8-9-21-9h-78q-15 0-15 10z"/><glyph glyph-name="epsilontonos" unicode="έ" horiz-adv-x="490" d="M334.5 7Q277-13 206-13q-58 0-102.5 20t-68 54.5T12 138q0 8 2 24 14 83 98 115-20 16-31.5 40T69 368q0 16 2 24 12 67 72.5 104.5T303 534q57 0 104-18t81-49q6-6 6-12t-5-13l-63-69q-6-6-12-6t-13 5q-43 40-107 40-40 0-60.5-15.5T213 356q0-39 64-39h60q9 0 13-5t2-14l-11-68q-3-16-19-16h-66q-43 0-67.5-15T164 152q0-41 70-41 36 0 71.5 13t65.5 35q7 5 12 5 7 0 13-9l42-68q3-6 3-10 0-8-7-14-42-36-99.5-56zM229 595q0 4 5 11l107 132q9 10 22 10h104q7 0 11-2.5t4-7.5q0-6-6-12L343 594q-8-9-21-9h-78q-15 0-15 10z"/><glyph glyph-name="etatonos" unicode="ή" horiz-adv-x="546" d="M234 606q0 4 5 11l107 132q9 10 22 10h104q7 0 11-2.5t4-7.5q0-6-6-12L348 605q-8-9-21-9h-78q-15 0-15 10zM12.5 5.5Q8 11 10 19l82 457q3 13 15 18 48 18 101.5 29T310 534q96 0 147.5-49T509 351q0-23-5-55L454 16q-3-16-19-16H320q-8 0-12.5 5.5T304 19l50 292q3 17 3 30 0 62-66 62-38 0-64-12L161 16q-3-16-19-16H26q-9 0-13.5 5.5z"/><glyph glyph-name="iotatonos" unicode="ί" horiz-adv-x="259" d="M118 590q0 4 5 11l107 132q9 10 22 10h104q7 0 11-2.5t4-7.5q0-6-6-12L232 589q-8-9-21-9h-78q-15 0-15 10zM14.5 5.5Q10 11 11 19l86 486q3 15 19 15h116q8 0 12.5-5t3.5-13L161 16q-3-16-18-16H27q-8 0-12.5 5.5z"/><glyph glyph-name="upsilondieresistonos" unicode="ΰ" horiz-adv-x="543" d="M399 40.5Q334-12 224-12q-55 0-98.5 24T58 77t-24 91q0 12 4 38l55 299q2 15 18 15h115q8 0 12-5t3-13l-55-310q-2-14-2-18 0-27 16-41t46-14q33 0 56.5 21.5T332 198l56 307q3 15 18 15h116q8 0 12-5t3-13l-56-312q-17-97-82-149.5zM247 596q0 5 3 9l71 131q6 12 21 12h91q7 0 11-2.5t4-7.5q0-6-4-11l-93-132q-6-10-21-10h-68q-15 0-15 11zm-20 21.5Q205 595 174 595q-25 0-39.5 13.5T120 647q0 9 1 14 6 31 26.5 49t49.5 18q25 0 38.5-14t13.5-39q0-35-22-57.5zm318 .5q-21-23-54-23-24 0-38.5 14T438 647q0 37 22.5 59t55.5 22q23 0 36.5-13.5T566 677q0-36-21-59z"/><glyph glyph-name="alpha" unicode="α" horiz-adv-x="537" d="M255 4q-38-16-80-16-68 0-110 46.5T23 158q0 21 5 51l20 112q19 102 94 157t178 55q42 0 92.5-10t97.5-27q14-6 12-21L440 16q-2-16-18-16h-81q-16 0-19 16l-2 32q-27-28-65-44zm-79 165q0-24 13-37t39-13q22 0 46 11t41 28l42 234q-25 9-57 9-38 0-64.5-20.5T202 323l-24-134q-2-14-2-20z"/><glyph glyph-name="beta" unicode="β" horiz-adv-x="545" d="M-19.5-185.5Q-24-180-22-172L98 509q18 104 85.5 161.5T344 728q55 0 98.5-23t67.5-63.5 24-92.5q0-12-4-40-8-44-35.5-80T430 371q34-20 53.5-56t19.5-85q0-23-4-43-17-97-80.5-148.5T257-13q-46 0-98 20l-32-182q-3-16-19-16H-6q-9 0-13.5 5.5zM245 124q90 0 106 88 2 16 2 22 0 62-76 62h-16q-12 0-10 16l17 95q3 14 14 14h18q30 0 52.5 25.5T382 514q2 9 2 24 0 29-14.5 44T329 597q-32 0-53.5-23.5T248 509l-66-373q25-12 63-12z"/><glyph glyph-name="gamma" unicode="γ" horiz-adv-x="513" d="M107.5-185.5Q103-180 105-172l33 190-90 484v4q0 14 15 14h120q17 0 18-16l18-130 3-26q15-118 17-176h3q43 116 84 204l62 132q4 12 21 12h127q15 0 15-11 0-4-3-9L289 16l-34-191q-3-16-19-16H120q-8 0-12.5 5.5z"/><glyph glyph-name="delta" unicode="δ" horiz-adv-x="527" d="M390 37.5Q320-13 217-13q-87 0-141.5 46.5T21 160q0 23 4 43l14 79q11 57 47.5 100t83.5 64q-55 51-55 111 0 16 3 32 12 63 71 101t158 38q96 0 169-48 8-5 8-13 0-5-3-11l-61-87q-6-8-13-8-3 0-11 4-52 33-107 33-30 0-48-9.5T259 561q-4-26 29-49.5t94-51.5q112-54 112-166 0-24-4-45l-11-63q-19-98-89-148.5zM175 177q0-30 17-44t44-14q35 0 60.5 20.5T330 202l10 59q2 14 2 21 0 30-16 50t-42 25q-35-2-62-26.5T187 260l-10-61q-2-8-2-22z"/><glyph glyph-name="epsilon" unicode="ε" horiz-adv-x="490" d="M334.5 7Q277-13 206-13q-58 0-102.5 20t-68 54.5T12 138q0 8 2 24 14 83 98 115-20 16-31.5 40T69 368q0 16 2 24 12 67 72.5 104.5T303 534q57 0 104-18t81-49q6-6 6-12t-5-13l-63-69q-6-6-12-6t-13 5q-43 40-107 40-40 0-60.5-15.5T213 356q0-39 64-39h60q9 0 13-5t2-14l-11-68q-3-16-19-16h-66q-43 0-67.5-15T164 152q0-41 70-41 36 0 71.5 13t65.5 35q7 5 12 5 7 0 13-9l42-68q3-6 3-10 0-8-7-14-42-36-99.5-56z"/><glyph glyph-name="zeta" unicode="ζ" horiz-adv-x="466" d="M255-199q-7 0-13 6l-67 62q-6 6-6 12t7 12q17 17 30.5 35.5T223-39q5 18-10.5 31.5T161 25q-42 23-69 42.5t-47.5 53T24 202q0 22 4 42 17 95 98.5 188.5T325 584v1q-38-2-63-2H129q-9 0-13 5t-3 14l18 97q1 7 5.5 11.5T149 715h377q9 0 13.5-5.5T542 696l-12-70q-1-10-14-20-144-84-232-177.5T181 252q-2-8-2-24 0-42 26-67t76-53q47-27 71-49.5T376-1q0-44-31.5-96.5T266-193q-4-6-11-6z"/><glyph glyph-name="eta" unicode="η" horiz-adv-x="546" d="M12.5 5.5Q8 11 10 19l82 457q3 13 15 18 48 18 101.5 29T310 534q96 0 147.5-49T509 351q0-23-5-55L454 16q-3-16-19-16H320q-8 0-12.5 5.5T304 19l50 292q3 17 3 30 0 62-66 62-38 0-64-12L161 16q-3-16-19-16H26q-9 0-13.5 5.5z"/><glyph glyph-name="theta" unicode="θ" horiz-adv-x="572" d="M425 46q-71-59-188-59-89 0-144 54T38 184q0 21 5 51l47 266q19 107 90.5 167T366 728q90 0 145.5-53.5T567 533q0-21-5-51l-47-268q-19-109-90-168zm-26 377l13 75q3 15 3 28 0 36-19 54t-52 18q-39 0-68-27t-37-76l-13-72h173zM189 189q0-35 18-53t52-18q42 0 69.5 26t35.5 74l15 82H206l-15-85q-2-18-2-26z"/><glyph glyph-name="iota" unicode="ι" horiz-adv-x="259" d="M14.5 5.5Q10 11 11 19l86 486q3 15 19 15h116q8 0 12.5-5t3.5-13L161 16q-3-16-18-16H27q-8 0-12.5 5.5z"/><glyph glyph-name="kappa" unicode="κ" horiz-adv-x="502" d="M525.5 517.5q3.5-2.5 3.5-6.5t-5-11L334 290 460 20l2-8q0-12-16-12H320q-16 0-20 14l-74 182-42-43-25-137q-1-7-5.5-11.5T141 0H26q-8 0-12.5 5.5T11 19l85 486q2 15 18 15h115q9 0 13.5-5t2.5-13l-29-165 148 173q7 10 21 10h130q7 0 10.5-2.5z"/><glyph glyph-name="lambda" unicode="λ" horiz-adv-x="548" d="M235.5 712.5Q291 728 353 728q82 0 134-45.5T539 546q0-28-6-61L451 16q-3-16-19-16H316q-8 0-12.5 5.5T301 19l55 315q-29 13-64 13-78 0-93-87L156 16q-3-16-18-16H22Q13 0 8.5 5.5T6 19l44 252q19 103 80.5 156T291 480q48 0 89-13l8 46q2 9 2 25 0 30-16 43.5T325 595q-37 0-70-9.5T198 558q-5-4-11-4-7 0-13 9l-42 81q-3 6-3 10 0 7 7 13 44 30 99.5 45.5z"/><glyph glyph-name="uni03BC" unicode="μ" horiz-adv-x="556" d="M-20.5-185.5Q-25-180-23-172L97 505q2 15 18 15h116q8 0 12.5-5t3.5-13l-52-298q-2-8-2-23 0-28 15-44t43-16q34 0 59.5 23.5T341 203l54 302q2 15 18 15h116q18 0 16-18L459 16q-3-16-18-16h-74q-17 0-19 17l-3 39q-41-69-112-69-29 0-50 12.5T151 35q-9-69-10-78l-24-132q-3-16-18-16H-7q-9 0-13.5 5.5z"/><glyph glyph-name="nu" unicode="ν" horiz-adv-x="510" d="M126 16L49 502v2q0 16 17 16h116q17 0 18-16l24-215q7-63 12-132h2q14 36 22 53 13 35 32 80l95 217q7 13 21 13h124q15 0 15-11 0-4-3-9L297 13q-6-13-20-13H145q-18 0-19 16z"/><glyph glyph-name="xi" unicode="ξ" horiz-adv-x="457" d="M260-198q-5 0-11 6l-68 61q-6 6-6 11 0 7 6 13 50 53 50 73 0 14-15 26t-51 32q-43 24-72 44.5t-50 53T22 198q0 67 40.5 118T170 390q-37 28-54.5 58T98 516q0 17 3 36 15 82 80 129t159 47q52 0 100-15t81-44q7-7 7-13t-4-11l-61-78q-6-7-12-7-5 0-15 6-45 32-100 32-37 0-63-17.5T241 529q-1-5-1-14 0-33 27-52.5t74-19.5h48q9 0 13.5-5.5T405 424l-17-95q-3-16-19-16h-65q-53 0-89-26t-42-64l-1-10q0-30 22.5-49.5T266 115q37-20 59-35.5t37.5-38T378-11q0-38-25.5-81.5T273-191q-7-7-13-7z"/><glyph glyph-name="omicron" unicode="ο" horiz-adv-x="535" d="M398 38.5Q331-13 221-13q-58 0-102.5 24t-69 66T25 172q0 23 4 42l21 124q17 91 86 143.5T309 534q60 0 105-24.5t69.5-66.5 24.5-94q0-18-3-38l-23-126q-17-95-84-146.5zM177 178q0-28 15.5-44t45.5-16q39 0 62.5 19.5T330 193l23 128q2 12 2 18 0 29-16.5 46.5T292 403q-36 0-60-20.5T202 328l-23-129q-2-14-2-21z"/><glyph glyph-name="pi" unicode="π" horiz-adv-x="540" d="M529 502L441 16q-1-16-18-16H307q-8 0-12 5t-3 14l68 372H229L160 16q-1-16-18-16H26q-8 0-12.5 5.5T11 19l87 486q3 15 19 15h397q18 0 15-18z"/><glyph glyph-name="rho" unicode="ρ" horiz-adv-x="541" d="M-24-185q-4 5-3 14l86 488q39 217 259 217 56 0 100.5-22.5t70-65T514 347q0-24-4-44l-19-111Q473 91 408 39T236-13q-43 0-82 19l-31-181q-3-15-19-15H-12q-8 0-12 5zm265 309q39 0 65.5 21t33.5 61l19 106q2 9 2 25 0 60-62 60-36 0-60-22.5T207 307l-29-165q25-18 63-18z"/><glyph glyph-name="uni03C2" unicode="ς" horiz-adv-x="441" d="M184 215q0-30 22.5-51t66.5-46q50-29 76-54.5T375-2q0-6-2-20-7-41-32-79.5T266-192q-7-7-13-7-5 0-11 6l-68 62q-6 6-6 12t6 12q46 51 49 70 3 15-12 28t-49 33q-39 22-66 42.5T49 120t-20 79q0 21 4 40l18 103q17 92 85.5 142T299 534q92 0 157-46 8-5 8-12 0-5-5-12l-60-77q-6-8-14-8-4 0-10 3-37 21-83 21-35 0-59.5-21.5T201 320l-16-92q-1-4-1-13z"/><glyph glyph-name="sigma" unicode="σ" horiz-adv-x="569" d="M591 515q4-5 3-13l-17-97q-3-16-19-16h-76q19-34 19-82 0-19-3-37l-12-71Q468 98 398.5 42.5T230-13q-66 0-112 25T49 79t-23 92q0 19 3 38l16 97q38 214 267 214h267q8 0 12-5zM356 332q0 59-65 59-37 0-62.5-21T196 306l-19-109q-2-16-2-21 0-59 66-59 38 0 62.5 21t31.5 62l19 109q2 16 2 23z"/><glyph glyph-name="tau" unicode="τ" horiz-adv-x="446" d="M471 515q4-5 3-13l-17-96q-1-15-18-15H322L254 16q-3-16-19-16H119q-8 0-12.5 5.5T104 19l67 372H55q-8 0-12 5t-3 13l17 96q2 15 18 15h384q8 0 12-5z"/><glyph glyph-name="upsilon" unicode="υ" horiz-adv-x="543" d="M399 40.5Q334-12 224-12q-55 0-98.5 24T58 77t-24 91q0 12 4 38l55 299q2 15 18 15h115q8 0 12-5t3-13l-55-310q-2-14-2-18 0-27 16-41t46-14q33 0 56.5 21.5T332 198l56 307q3 15 18 15h116q8 0 12-5t3-13l-56-312q-17-97-82-149.5z"/><glyph glyph-name="phi" unicode="φ" horiz-adv-x="752" d="M227.5-185.5Q223-180 225-172L255-1h-46q-47 0-89 23.5t-67.5 66T27 185q0 19 3 38l15 82q20 110 89 162.5T296 520h52l32 179q2 16 18 16h113q8 0 12.5-5.5T526 696l-31-176h45q52 0 94-22t66.5-63 24.5-97q0-23-4-44l-15-82q-20-108-86.5-160.5T447-1h-44l-32-174q-1-7-5.5-11.5T353-191H240q-8 0-12.5 5.5zM178 195q0-64 63-64h37l46 259h-38q-36 0-59.5-22T195 304l-14-79q-3-16-3-30zm286-64q79 0 95 94l14 79q3 17 3 29 0 57-61 57h-43l-46-259h38z"/><glyph glyph-name="chi" unicode="χ" horiz-adv-x="491" d="M511 517.5q4-2.5 4-7.5t-4-10L341 259l93-239q2-6 2-8 0-5-4.5-8.5T420 0H297q-14 0-19 15l-45 145L133 12q-7-12-21-12H-18q-7 0-11.5 3t-4.5 8 4 10l183 249-85 231q-1 3-1 7 0 12 14 12h121q15 0 19-14l40-149 93 152q6 11 20 11h126q7 0 11-2.5z"/><glyph glyph-name="psi" unicode="ψ" horiz-adv-x="753" d="M227.5-185.5Q223-180 225-172L256 0h-29q-48 0-92 19T63.5 77.5 36 174q0 20 5 48l51 283q3 15 18 15h112q18 0 15-18l-51-284q-3-16-3-28 0-32 18.5-46t59.5-14h18l68 375q3 15 18 15h112q8 0 12-5t3-13l-67-372h17q46 0 72.5 22t35.5 69l51 284q3 15 18 15h112q18 0 15-18l-53-300Q674 98 601 49T434 0h-32l-32-175q-1-16-18-16H241q-9 0-13.5 5.5z"/><glyph glyph-name="omega" unicode="ω" horiz-adv-x="760" d="M601 531q62-14 98-56t36-107q0-25-4-46l-25-143q-17-93-82-142.5T467-13 345 60q-54-73-146-73-49 0-89.5 21.5T46 68.5 23 156q0 13 4 39l25 142q15 76 69 127t129 66q2 1 6 1 12 0 14-15l12-93v-3q0-12-14-17-26-6-45.5-25.5T199 330l-26-147q-2-12-2-17 0-24 15-36t37-12q26 0 45 17.5t25 51.5l23 130q3 16 18 16h113q8 0 12.5-5.5T462 314l-23-130q-2-14-2-18 0-24 13-36t34-12q26 0 47 17t26 47l27 146q3 12 3 23 0 39-36 54-16 8-11 21l39 93q5 15 22 12z"/><glyph glyph-name="iotadieresis" unicode="ϊ" horiz-adv-x="259" d="M143.5 597Q122 578 91 578q-27 0-43.5 16.5T31 638q0 39 23.5 62.5T114 724q26 0 42.5-16t16.5-42q0-5-2-17-6-33-27.5-52zm197.5 0q-21-19-52-19-27 0-44 16.5T228 638q0 39 23.5 62.5T311 724q26 0 42.5-16t16.5-42q0-5-2-17-6-33-27-52zM14.5 5.5Q10 11 11 19l86 486q3 15 19 15h116q8 0 12.5-5t3.5-13L161 16q-3-16-18-16H27q-8 0-12.5 5.5z"/><glyph glyph-name="upsilondieresis" unicode="ϋ" horiz-adv-x="543" d="M399 40.5Q334-12 224-12q-55 0-98.5 24T58 77t-24 91q0 12 4 38l55 299q2 15 18 15h115q8 0 12-5t3-13l-55-310q-2-14-2-18 0-27 16-41t46-14q33 0 56.5 21.5T332 198l56 307q3 15 18 15h116q8 0 12-5t3-13l-56-312q-17-97-82-149.5zM279.5 600Q258 581 227 581q-27 0-43.5 16.5T167 641q0 39 23.5 62.5T250 727q26 0 42.5-16t16.5-42q0-5-2-17-6-33-27.5-52zm208.5 0q-21-19-52-19-27 0-44 16.5T375 641q0 39 23.5 62.5T458 727q26 0 42.5-16t16.5-42q0-5-2-17-6-33-27-52z"/><glyph glyph-name="omicrontonos" unicode="ό" horiz-adv-x="535" d="M243 600q0 4 5 11l107 132q9 10 22 10h104q7 0 11-2.5t4-7.5q0-6-6-12L357 599q-8-9-21-9h-78q-15 0-15 10zM398 38.5Q331-13 221-13q-58 0-102.5 24t-69 66T25 172q0 23 4 42l21 124q17 91 86 143.5T309 534q60 0 105-24.5t69.5-66.5 24.5-94q0-18-3-38l-23-126q-17-95-84-146.5zM177 178q0-28 15.5-44t45.5-16q39 0 62.5 19.5T330 193l23 128q2 12 2 18 0 29-16.5 46.5T292 403q-36 0-60-20.5T202 328l-23-129q-2-14-2-21z"/><glyph glyph-name="upsilontonos" unicode="ύ" horiz-adv-x="543" d="M399 40.5Q334-12 224-12q-55 0-98.5 24T58 77t-24 91q0 12 4 38l55 299q2 15 18 15h115q8 0 12-5t3-13l-55-310q-2-14-2-18 0-27 16-41t46-14q33 0 56.5 21.5T332 198l56 307q3 15 18 15h116q8 0 12-5t3-13l-56-312q-17-97-82-149.5zM252 585q0 4 5 11l107 132q9 10 22 10h104q7 0 11-2.5t4-7.5q0-6-6-12L366 584q-8-9-21-9h-78q-15 0-15 10z"/><glyph glyph-name="omegatonos" unicode="ώ" horiz-adv-x="760" d="M601 531q62-14 98-56t36-107q0-25-4-46l-25-143q-17-93-82-142.5T467-13 345 60q-54-73-146-73-49 0-89.5 21.5T46 68.5 23 156q0 13 4 39l25 142q15 76 69 127t129 66q2 1 6 1 12 0 14-15l12-93v-3q0-12-14-17-26-6-45.5-25.5T199 330l-26-147q-2-12-2-17 0-24 15-36t37-12q26 0 45 17.5t25 51.5l23 130q3 16 18 16h113q8 0 12.5-5.5T462 314l-23-130q-2-14-2-18 0-24 13-36t34-12q26 0 47 17t26 47l27 146q3 12 3 23 0 39-36 54-16 8-11 21l39 93q5 15 22 12zm-244 67q0 4 5 11l107 132q9 10 22 10h104q7 0 11-2.5t4-7.5q0-6-6-12L471 597q-8-9-21-9h-78q-15 0-15 10z"/><glyph glyph-name="uni0401" unicode="Ё" horiz-adv-x="571" d="M331.5 794Q310 775 279 775q-27 0-43.5 16.5T219 835q0 39 23.5 62.5T302 921q26 0 42.5-16t16.5-42q0-5-2-17-6-33-27.5-52zm208.5 0q-21-19-52-19-27 0-44 16.5T427 835q0 39 23.5 62.5T510 921q26 0 42.5-16t16.5-42q0-5-2-17-6-33-27-52zm16-222H284l-25-139h238q8 0 12-5t3-14l-19-105q-3-16-18-16H234l-26-149h283q8 0 12.5-5.5T507 125L489 16q-3-16-19-16H43q-9 0-13 5t-3 14l121 680q3 16 18 16h411q9 0 13.5-5.5T593 696l-19-108q-3-16-18-16z"/><glyph glyph-name="uni0402" unicode="Ђ" horiz-adv-x="687" d="M489 496q78 0 124-47t46-123q0-25-4-45l-15-91Q623 87 575 37T439-13q-17 0-41 4-16 1-13 20l18 103q3 15 14 15 6-1 17-1 47 0 57 73l11 74q2 9 2 24 0 56-63 56-38 0-66-15L317 16q-3-16-18-16H178q-8 0-12.5 5.5T163 19l98 551H85q-8 0-12.5 5.5T70 589l20 110q1 7 5.5 11.5T108 715h508q9 0 13.5-5.5T632 696l-20-110q-3-16-18-16H417l-16-87q37 13 88 13z"/><glyph glyph-name="uni0403" unicode="Ѓ" horiz-adv-x="509" d="M31.5 5.5Q27 11 28 19l120 680q3 16 18 16h391q9 0 13.5-5.5T573 696l-20-113q-1-15-18-15H288L190 16q-3-16-18-16H44q-8 0-12.5 5.5zM282 773q0 5 5 12l115 131q9 10 21 10h112q7 0 11-2.5t4-7.5q0-6-6-12L402 771q-10-8-20-8h-85q-15 0-15 10z"/><glyph glyph-name="uni0404" unicode="Є" horiz-adv-x="574" d="M283-13q-110 0-174 59T45 210q0 30 6 63l36 203q21 122 105 187t208 65q57 0 108-18t89-50q7-4 7-12 0-5-5-12l-72-86q-6-7-13-7-6 0-11 4-52 36-117 36-59 0-95-33t-45-90l-7-36h180q9 0 13-5t3-14l-18-99q-3-15-18-15H217l-6-33q-2-10-2-29 0-96 104-96 34 0 71.5 11.5T453 177q6 3 10 3 8 0 14-10l47-98q3-6 3-10 0-8-10-14-103-61-234-61z"/><glyph glyph-name="uni0405" unicode="Ѕ" horiz-adv-x="602" d="M456 32.5Q376-13 264-13q-75 0-134.5 24.5T16 84q-7 7-7 13 0 5 5 12l72 89q6 7 13 7 5 0 12-5 42-33 83.5-49.5T281 134q46 0 78.5 18t38.5 52q1 3 1 10 0 29-28.5 46T281 295Q97 349 97 492q0 12 4 42 17 100 89.5 147T371 728q70 0 125.5-18.5T605 652q8-5 8-12 0-5-5-12l-70-90q-6-7-13-7-6 0-11 4-35 22-77 35.5T353 584q-40 0-65-17.5T257 518q-1-4-1-11 0-28 24-43t75-30q56-17 99.5-38.5t76-61.5T563 233q0-19-5-47Q536 78 456 32.5z"/><glyph glyph-name="uni0406" unicode="І" horiz-adv-x="300" d="M168 0H44q-8 0-12.5 5.5T28 19l120 680q3 16 19 16h123q9 0 13.5-5.5T306 696L186 16q-3-16-18-16z"/><glyph glyph-name="uni0407" unicode="Ї" horiz-adv-x="300" d="M198 785q-23-20-55-20-30 0-46 17.5T81 827q0 37 24.5 61.5T166 913q29 0 45.5-17.5T228 852q0-9-1-14-6-33-29-53zm206 4.5Q380 765 343 765q-30 0-46 17.5T281 827q0 9 1 13 6 33 29 53t55 20q29 0 45.5-17t16.5-43q0-39-24-63.5zM168 0H44q-8 0-12.5 5.5T28 19l120 680q3 16 19 16h123q9 0 13.5-5.5T306 696L186 16q-3-16-18-16z"/><glyph glyph-name="uni0408" unicode="Ј" horiz-adv-x="519" d="M353.5 50Q280-12 168-12 109-12 63 5t-86 52q-7 7-7 13 0 5 5 12l68 88q6 7 13 7t12-4q48-39 114-39 42 0 69 25t36 73l82 467q3 16 19 16h124q8 0 12.5-5.5T528 696l-81-470q-20-114-93.5-176z"/><glyph glyph-name="uni0409" unicode="Љ" horiz-adv-x="999" d="M877 451.5q47-24.5 73-68.5t26-102q0-14-4-44Q932 0 690 0H433q-8 0-12.5 5.5T417 19l98 551H364q-48-232-94-351.5t-111-170T-12-5q-18 0-15 18l18 118q3 14 18 16 49 5 80.5 51T151 351.5 234 699q4 16 19 16h428q8 0 12.5-5.5T697 696l-39-220h109q63 0 110-24.5zM811 245q2 16 2 23 0 63-77 63H632l-33-186h105q89 0 107 100z"/><glyph glyph-name="uni040A" unicode="Њ" horiz-adv-x="949" d="M870 402.5Q926 355 926 273q0-14-4-42-21-116-92.5-173.5T646 0H399q-9 0-13 5t-2 14l50 282H236L185 16q-3-16-19-16H42q-8 0-12.5 5.5T27 19l121 680q3 16 19 16h124q8 0 12.5-5.5T306 696l-44-249h199l45 252q1 16 18 16h125q8 0 12.5-5.5T664 696l-44-246h96q98 0 154-47.5zM762 230q2 14 2 18 0 57-72 57h-98l-28-156h98q82 0 98 81z"/><glyph glyph-name="uni040B" unicode="Ћ" horiz-adv-x="703" d="M490 487q86 0 134-40.5T672 327q0-20-5-52L620 16q-1-16-18-16H477q-9 0-13 5t-3 14l48 260q2 9 2 24 0 57-65 57-35 0-62-18L326 16q-3-16-19-16H181q-9 0-13.5 5.5T165 19l98 551H85q-8 0-12.5 5.5T70 589l20 110q1 7 5.5 11.5T108 715h520q8 0 12.5-5.5T643 696l-20-110q-3-16-18-16H425l-18-98q39 15 83 15z"/><glyph glyph-name="uni040C" unicode="Ќ" horiz-adv-x="627" d="M333 773q0 5 5 12l115 131q9 10 21 10h112q7 0 11-2.5t4-7.5q0-6-6-12L453 771q-10-8-20-8h-85q-15 0-15 10zm352-68q0-7-5-12L397 393 588 21q2-3 2-9 0-12-15-12H434q-16 0-20 13L283 283l-60-58-37-209q-3-16-19-16H44q-9 0-13.5 5.5T28 19l120 680q3 16 19 16h123q9 0 13-5t3-14l-44-248 226 257q8 10 21 10h161q15 0 15-10z"/><glyph glyph-name="uni040E" unicode="Ў" horiz-adv-x="570" d="M74 11q0 4 3 10l123 210L78 696q-1 2-1 5 0 14 16 14h129q16 0 19-15l65-300h3l160 302q6 13 20 13h136q15 0 15-12 0-6-2-9L248 12q-7-12-21-12H88Q74 0 74 11zm407 782q-52-36-125-36-72 0-110.5 36T206 890q0 14 16 19l84 19h4q11 0 15-15 5-40 52-40 48 0 68 43 7 15 22 12l74-19q8-2 11.5-7t.5-12q-20-61-72-97z"/><glyph glyph-name="uni040F" unicode="Џ" horiz-adv-x="660" d="M663.5 709.5Q668 704 666 696L546 16q-3-16-18-16H362l-20-115q-3-16-19-16H205q-9 0-13 5t-2 14L209 0H43q-9 0-13.5 5.5T27 19l121 680q2 16 18 16h124q8 0 12.5-5.5T305 696l-96-551h201l98 554q3 16 18 16h124q9 0 13.5-5.5z"/><glyph glyph-name="uni0410" unicode="А" horiz-adv-x="630" d="M426 16l-14 117H187L133 13q-4-13-20-13H-24q-15 0-15 11 0 4 3 10l333 681q6 13 20 13h146q16 0 19-16L585 18v-4q0-14-16-14H444q-17 0-18 16zm-78 484q-62-147-98-225h146l-27 266h-4z"/><glyph glyph-name="uni0411" unicode="Б" horiz-adv-x="623" d="M581 572H284l-22-125h114q103 0 158-45t55-129q0-21-5-51-20-115-87.5-168.5T304 0H43q-8 0-12.5 5.5T28 19l119 680q3 16 19 16h436q9 0 13.5-5.5T618 696l-19-108q-3-16-18-16zM426 251q0 29-17.5 42.5T352 307H237l-29-163h110q92 0 106 85 2 16 2 22z"/><glyph glyph-name="uni0412" unicode="В" horiz-adv-x="623" d="M30.5 5.5Q26 11 28 19l120 680q3 16 18 16h246q91 0 142-47t51-122q0-18-3-38-8-44-31.5-77.5T511 378q35-18 53.5-50t18.5-76q0-17-3-37-18-105-88.5-160T296 0H44q-9 0-13.5 5.5zM352 436q38 0 61.5 19.5T443 510q2 12 2 18 0 50-68 50h-92l-25-142h92zm-39-295q43 0 72 22.5t36 66.5q1 6 1 16 0 61-77 61H236l-29-166h106z"/><glyph glyph-name="uni0413" unicode="Г" horiz-adv-x="509" d="M31.5 5.5Q27 11 28 19l120 680q3 16 18 16h391q9 0 13.5-5.5T573 696l-20-113q-1-15-18-15H288L190 16q-3-16-18-16H44q-8 0-12.5 5.5z"/><glyph glyph-name="uni0414" unicode="Д" horiz-adv-x="720" d="M-50-128q-4 5-3 14l44 244q3 16 19 16h24q35 17 65.5 71t66 168.5T247 699q3 16 19 16h411q9 0 13.5-5.5T693 696l-96-551h45q9 0 13-5t3-14l-44-243q-3-16-19-16H475q-9 0-13.5 5.5T459-114L479 0H123l-21-117q-2-16-18-16H-37q-9 0-13 5zm271 273h218l75 426H374q-74-340-153-426z"/><glyph glyph-name="uni0415" unicode="Е" horiz-adv-x="571" d="M556 572H284l-25-139h238q8 0 12-5t3-14l-19-105q-3-16-18-16H234l-26-149h283q8 0 12.5-5.5T507 125L489 16q-3-16-19-16H43q-9 0-13 5t-3 14l121 680q3 16 18 16h411q9 0 13.5-5.5T593 696l-19-108q-3-16-18-16z"/><glyph glyph-name="uni0416" unicode="Ж" horiz-adv-x="892" d="M954 705q0-7-5-12L672 396 842 20l2-8q0-12-15-12H677q-14 0-19 14L558 271l-42-45-36-210q-3-16-19-16H342q-8 0-12.5 5.5T327 19l36 207-26 46L151 11q-8-11-21-11H-24q-14 0-14 10 0 6 4 11l298 380L97 694q-3 5-3 9 0 5 4 8.5t11 3.5h155q14 0 20-13l118-258 44 255q3 16 18 16h119q8 0 12.5-5.5T598 696l-44-253 211 262q7 10 21 10h154q14 0 14-10z"/><glyph glyph-name="uni0417" unicode="З" horiz-adv-x="587" d="M471 703q49-25 74-66.5t25-89.5q0-19-2-29-7-45-37.5-84T461 378q38-19 59-55.5t21-82.5q0-18-3-36-20-112-99.5-164.5T235-13Q81-13-5 83q-5 5-5 11 0 8 5 13l73 86q6 7 12 7 7 0 13-6 66-61 160-61 52 0 85.5 25t40.5 67q1 5 1 15 0 32-25 47.5T274 303h-73q-8 0-12.5 5.5T186 322l16 93q1 16 18 16h71q51 0 83 22t38 59q1 4 1 12 0 29-21.5 45T325 585q-84 0-156-53-7-5-12-5-7 0-13 10l-44 91-2 8q0 7 8 15 49 36 111.5 56.5T353 728q69 0 118-25z"/><glyph glyph-name="uni0418" unicode="И" horiz-adv-x="679" d="M31 5q-4 5-3 14l120 681q3 15 18 15h122q18 0 16-19l-32-177q-28-149-61-277l3-1q24 46 64 113.5T354 474l167 230q8 11 20 11h128q8 0 12-5t3-14L566 16q-3-16-19-16H426q-9 0-13 5t-3 14l26 145q23 135 72 305h-3q-25-53-70-128.5T349 212L193 10q-7-10-21-10H44q-9 0-13 5z"/><glyph glyph-name="uni0419" unicode="Й" horiz-adv-x="679" d="M31 5q-4 5-3 14l120 681q3 15 18 15h122q18 0 16-19l-32-177q-28-149-61-277l3-1q24 46 64 113.5T354 474l167 230q8 11 20 11h128q8 0 12-5t3-14L566 16q-3-16-19-16H426q-9 0-13 5t-3 14l26 145q23 135 72 305h-3q-25-53-70-128.5T349 212L193 10q-7-10-21-10H44q-9 0-13 5zm517 789q-52-36-125-36-72 0-110.5 36T273 891q0 14 16 19l84 19h4q11 0 15-15 5-40 52-40 48 0 68 43 7 15 22 12l74-19q8-2 11.5-7t.5-12q-20-61-72-97z"/><glyph glyph-name="uni041A" unicode="К" horiz-adv-x="627" d="M685 705q0-7-5-12L397 393 588 21q2-3 2-9 0-12-15-12H434q-16 0-20 13L283 283l-60-58-37-209q-3-16-19-16H44q-9 0-13.5 5.5T28 19l120 680q3 16 19 16h123q9 0 13-5t3-14l-44-248 226 257q8 10 21 10h161q15 0 15-10z"/><glyph glyph-name="uni041B" unicode="Л" horiz-adv-x="691" d="M271 218.5Q225 99 160 48.5T-11-5q-18 0-15 18l18 118q3 14 18 16 49 5 80.5 51T152 351.5 235 699q4 16 19 16h427q8 0 12.5-5.5T697 696L577 16q-3-16-18-16H434q-8 0-12.5 5.5T419 19l97 551H365q-48-232-94-351.5z"/><glyph glyph-name="uni041C" unicode="М" horiz-adv-x="840" d="M30.5 5.5Q26 11 28 19l119 680q3 16 18 16h141q16 0 20-15l50-171q36-139 50-205h3q75 133 122 207l112 173q7 11 21 11h146q9 0 13.5-5.5T846 696L727 16q-3-16-19-16H586q-8 0-12.5 5.5T570 19l22 127q17 100 63 317l-5 1q-39-74-118-203l-64-100q-7-12-20-12h-91q-15 0-20 15l-30 102-9 36q-32 118-39 157h-5q-13-105-46-310L185 16q-1-16-19-16H44q-9 0-13.5 5.5z"/><glyph glyph-name="uni041D" unicode="Н" horiz-adv-x="664" d="M518.5 710.5Q523 715 531 715h124q8 0 12.5-5.5T671 696L550 16q-2-16-18-16H408q-8 0-12.5 5.5T393 19l48 270H234L186 16q-3-16-19-16H44q-9 0-13.5 5.5T28 19l120 680q3 16 18 16h124q9 0 13-5t3-14l-46-262h206l47 265q1 7 5.5 11.5z"/><glyph glyph-name="uni041E" unicode="О" horiz-adv-x="656" d="M500 57q-85-70-220-70-110 0-171.5 63.5T47 221q0 32 6 68l31 177q22 123 107 192.5T407 728q111 0 174-61.5T644 498q0-31-6-66l-31-177Q585 127 500 57zM209 235q0-47 24-74.5t70-27.5q58 0 95 34.5t48 96.5l32 183q3 20 3 36 0 46-24 72.5T386 582q-58 0-94-33.5T245 452l-33-181q-3-19-3-36z"/><glyph glyph-name="uni041F" unicode="П" horiz-adv-x="662" d="M28.5 5.5Q24 11 26 19l123 680q1 16 18 16h488q8 0 12.5-5.5T670 696L547 16q-1-16-18-16H405q-8 0-12.5 5.5T390 19l99 551H284L184 16q-3-16-19-16H41q-8 0-12.5 5.5z"/><glyph glyph-name="uni0420" unicode="Р" horiz-adv-x="612" d="M563.5 658Q625 601 625 505q0-33-5-58-20-109-94.5-171.5T332 213H221L186 16q-3-16-19-16H43q-8 0-12.5 5.5T28 19l120 680q1 7 5.5 11.5T166 715h227q109 0 170.5-57zM420 382.5q32 26.5 40 77.5 2 10 2 27 0 41-23.5 62.5T371 571h-87l-38-215h89q53 0 85 26.5z"/><glyph glyph-name="uni0421" unicode="С" horiz-adv-x="570" d="M284-13q-110 0-174 59T46 210q0 30 6 63l35 203q21 122 105 187t209 65q57 0 108-18t89-50q7-4 7-12 0-5-5-12l-73-86q-4-7-12-7-7 0-12 4-52 36-116 36-59 0-95-33t-45-90l-35-202q-3-16-3-31 0-46 26.5-70t77.5-24q35 0 72.5 11.5T454 177q6 3 10 3 8 0 14-10l47-98q3-7 3-11 0-7-6-10-107-64-238-64z"/><glyph glyph-name="uni0422" unicode="Т" horiz-adv-x="562" d="M623 710q4-5 3-14l-20-110q-2-16-18-16H415L317 16q-3-16-18-16H174q-8 0-12.5 5.5T159 19l98 551H86q-9 0-13 5t-3 14l20 110q3 16 18 16h502q9 0 13-5z"/><glyph glyph-name="uni0423" unicode="У" horiz-adv-x="570" d="M74 11q0 4 3 10l123 210L78 696q-1 2-1 5 0 14 16 14h129q16 0 19-15l65-300h3l160 302q6 13 20 13h136q15 0 15-12 0-6-2-9L248 12q-7-12-21-12H88Q74 0 74 11z"/><glyph glyph-name="uni0424" unicode="Ф" horiz-adv-x="849" d="M731.5 666.5Q779 640 806 592t27-112q0-24-5-56l-23-138Q782 155 703 87T508 19h-48l-13-70q-1-7-5.5-11.5T429-67H306q-9 0-13 5t-3 14l12 67h-45q-60 0-107.5 26.5t-75 76T47 236q0 23 5 55l25 138q23 129 102 196.5T374 693h48l11 66q3 15 19 15h123q8 0 12.5-5t3.5-13l-11-63h44q60 0 107.5-26.5zM208 248q0-39 22-58t60-19h39l66 370h-37q-46 0-78-26.5T238 433l-27-156q-3-15-3-29zm465 217q0 39-22 57.5T592 541h-39l-66-370h37q45 0 77.5 27.5T643 280l27 156q3 17 3 29z"/><glyph glyph-name="uni0425" unicode="Х" horiz-adv-x="605" d="M658 712.5q4-2.5 4-7.5 0-6-4-11L416 356 551 20q1-3 1-7 0-13-15-13H403q-14 0-19 14l-81 227L153 12q-7-12-21-12H-18q-7 0-11 3t-4 8 4 10l249 338-119 336q-1 3-1 7 0 6 4 9.5t11 3.5h130q15 0 20-14l69-227 148 229q8 12 21 12h144q7 0 11-2.5z"/><glyph glyph-name="uni0426" unicode="Ц" horiz-adv-x="690" d="M662.5 709.5Q667 704 665 696l-97-551h43q9 0 13.5-5.5T627 126l-43-241q-3-16-19-16H446q-9 0-13.5 5.5T430-112L450 0H43q-8 0-12.5 5.5T28 19l120 680q1 7 5.5 11.5T166 715h127q8 0 12.5-5.5T308 696l-97-551h196l98 554q1 7 5.5 11.5T523 715h127q8 0 12.5-5.5z"/><glyph glyph-name="uni0427" unicode="Ч" horiz-adv-x="624" d="M491 715h123q9 0 13.5-5.5T630 696L511 16q-3-16-19-16H369q-9 0-13.5 5.5T353 19l40 229q-53-25-123-25-53 0-97.5 25T101 320.5 74 431q0 23 5 55l39 213q1 7 5.5 11.5T136 715h124q9 0 13.5-5.5T276 696l-39-217q-3-16-3-30 0-41 20.5-62.5T311 365q29 0 58.5 8.5T419 395l53 304q3 16 19 16z"/><glyph glyph-name="uni0428" unicode="Ш" horiz-adv-x="947" d="M814 715h124q8 0 12.5-5t3.5-14L832 16q-1-7-5.5-11.5T814 0H42q-8 0-12.5 5.5T27 19l121 680q2 16 18 16h123q9 0 13-5t3-14l-98-551h166l99 554q1 7 5.5 11.5T490 715h124q8 0 12-5t3-14l-98-551h166l99 554q3 16 18 16z"/><glyph glyph-name="uni0429" unicode="Щ" horiz-adv-x="967" d="M939.5 709.5Q944 704 942 696l-97-551h43q9 0 13.5-5.5T904 126l-43-241q-3-16-18-16H723q-8 0-12.5 5.5T708-112L728 0H43q-8 0-12.5 5.5T28 19l120 680q1 7 5.5 11.5T166 715h123q9 0 13.5-5.5T305 696l-97-551h160l98 554q3 16 19 16h123q8 0 12.5-5.5T623 696l-97-551h161l98 554q1 7 5.5 11.5T803 715h124q8 0 12.5-5.5z"/><glyph glyph-name="uni042A" unicode="Ъ" horiz-adv-x="695" d="M571.5 452.5Q620 427 646 382t26-102q0-25-4-45Q627 0 386 0H124q-9 0-13.5 5.5T108 19l101 551H87q-8 0-12 5t-3 13l19 111q3 16 19 16h267q9 0 13.5-5.5T393 696l-39-218h104q65 0 113.5-25.5zM506 245q3 14 3 24 0 63-78 63H328l-35-186h107q88 0 106 99z"/><glyph glyph-name="uni042B" unicode="Ы" horiz-adv-x="907" d="M485.5 452.5q47.5-26.5 73.5-73T585 277q0-14-4-42Q540 0 299 0H41q-8 0-12.5 5.5T26 19l123 680q3 16 18 16h124q8 0 12.5-5.5T306 696l-38-217h108q62 0 109.5-26.5zM384.5 170q27.5 25 35.5 75 2 16 2 24 0 65-77 65H242l-35-189h107q43 0 70.5 25zM775 0H651q-8 0-12.5 5.5T635 19l120 680q3 16 19 16h123q9 0 13.5-5.5T913 696L793 16q-3-16-18-16z"/><glyph glyph-name="uni042C" unicode="Ь" horiz-adv-x="608" d="M485.5 452.5q47.5-26.5 73.5-73T585 277q0-14-4-42Q540 0 299 0H41q-8 0-12.5 5.5T26 19l123 680q3 16 18 16h124q8 0 12.5-5.5T306 696l-38-217h108q62 0 109.5-26.5zM384.5 170q27.5 25 35.5 75 2 16 2 24 0 65-77 65H242l-35-189h107q43 0 70.5 25z"/><glyph glyph-name="uni042D" unicode="Э" horiz-adv-x="581" d="M332 728q110 0 174-59t64-164q0-30-6-63l-36-203Q506 117 422 52T213-13Q148-13 90.5 8.5T-9 67q-6 6-6 13 0 5 5 12l73 90q6 7 12 7t12-6q30-24 66.5-37t74.5-13q58 0 94.5 33t46.5 89l7 44H176q-8 0-12 5t-3 13l18 99q2 16 18 16h202l4 25q3 18 3 33 0 46-26.5 70.5T303 585q-70 0-129-34-4-3-10-3-9 0-13 10l-45 89q-4 10-4 12 0 6 6 9 101 60 224 60z"/><glyph glyph-name="uni042E" unicode="Ю" horiz-adv-x="930" d="M772.5 56.5Q687-12 561-12q-105 0-169 59.5T328 212q0 28 4 52l1 22h-96L188 16q-3-16-19-16H42q-9 0-13 5t-2 14l121 680q1 16 18 16h128q8 0 12.5-5.5T309 696l-46-260h97l6 23q24 131 109.5 199.5T685 727q105 0 169.5-58.5T919 505q0-31-6-66l-32-184Q858 125 772.5 56.5zM496 231q0-45 22.5-68t63.5-23q51 0 87 33.5t47 93.5l32 185q3 20 3 37 0 44-22.5 65.5T666 576q-51 0-86.5-31.5T532 452l-33-185q-3-19-3-36z"/><glyph glyph-name="uni042F" unicode="Я" horiz-adv-x="631" d="M-25 10q0 4 5 11l195 239q-44 24-68 67T83 429q0 29 6 60 18 102 94.5 164T374 715h249q8 0 12.5-5.5T638 696L516 16q-1-16-18-16H373q-8 0-12.5 5.5T358 19l38 214h-66L163 11q-7-11-21-11H-10q-15 0-15 10zm270 440q0-35 21.5-55.5T328 374h94l35 194h-91q-48 0-78.5-24.5T248 475q-3-13-3-25z"/><glyph glyph-name="uni0430" unicode="а" horiz-adv-x="505" d="M198-13q-91 0-142.5 42T4 141q0 17 3 35 25 140 227 140 45 0 85-8l2 16q2 9 2 24 0 26-16 39t-54 13q-33 0-64.5-6T134 377q-6-3-10-3-8 0-13 11l-31 82q-2 8-2 10 0 8 5 10 36 22 90 34.5T287 534q88 0 136.5-47.5T472 354q0-28-6-60L421 41q-3-15-15-19-100-35-208-35zm19 125q33 0 69 8l14 87q-33 7-64 7-81 0-81-58 0-44 62-44z"/><glyph glyph-name="uni0431" unicode="б" horiz-adv-x="535" d="M338 491q74 0 120.5-47.5T505 321q0-13-4-41l-16-93q-17-99-88-149.5T225-13q-81 0-135.5 45T35 160q0 19 5 47l51 293q18 104 87.5 156T338 722q91 12 143 35 6 3 10 3 9 0 13-12l34-84q2-6 2-9 0-8-10-15-69-33-167-52-54-10-84-31t-39-68l-3-18q42 20 101 20zm14-177q0 55-60 55-44 0-75-21l-29-161q-1-6-1-16 0-26 15.5-38.5T244 120q33 0 58 18t31 52l16 100q3 14 3 24z"/><glyph glyph-name="uni0432" unicode="в" horiz-adv-x="523" d="M14.5 5.5Q10 11 12 19l85 486q3 15 19 15h206q81 0 127-34.5t46-91.5q0-41-19.5-71T422 273q52-26 52-88 0-15-3-32Q444 0 244 0H27q-8 0-12.5 5.5zM282 317q29 0 47 14t18 39q0 35-48 35h-71l-16-88h70zm-30-201q31 0 50 13t23 38q1 3 1 9 0 19-13.5 27.5T271 212h-78l-16-96h75z"/><glyph glyph-name="uni0433" unicode="г" horiz-adv-x="405" d="M14 5q-4 5-3 14l87 486q2 15 18 15h303q8 0 12-5t3-13l-17-97q-3-16-19-16H228L161 16q-1-7-5.5-11.5T143 0H27q-9 0-13 5z"/><glyph glyph-name="uni0434" unicode="д" horiz-adv-x="611" d="M-52-114l41 225q2 16 18 16h30q37 25 76.5 121.5T183 504q3 16 19 16h349q8 0 12.5-5t3.5-13l-66-375h41q8 0 12.5-5.5T557 108l-39-225q-3-16-19-16H388q-8 0-12.5 5.5T372-114L393 0H114L92-117q-1-7-5.5-11.5T74-133H-37q-18 0-15 19zm305.5 344Q227 161 197 127h154l47 267h-99q-19-95-45.5-164z"/><glyph glyph-name="uni0435" unicode="е" horiz-adv-x="519" d="M139.5 485Q208 534 303 534q89 0 143-42t54-124q0-19-5-49l-17-97q-3-15-18-15H182l-3-14q-2-16-2-22 0-57 71-57 63 0 130 40 5 4 11 4 8 0 12-9l41-77q2-8 2-10 0-10-8-14-89-61-209-61-90 0-146.5 46T24 158q0 11 4 39l26 145q17 94 85.5 143zM353 349q0 26-16 42t-47 16q-33 0-55.5-19T205 334l-5-27h146l5 25q2 12 2 17z"/><glyph glyph-name="uni0436" unicode="ж" horiz-adv-x="733" d="M756 511q0-6-5-11L572 292 681 20q1-3 1-7 0-13-15-13H543q-14 0-19 14l-60 181-41-42-24-137q-3-16-19-16H268q-8 0-12.5 5.5T253 19l23 136-24 40L129 12q-7-12-21-12H-24q-7 0-11 3t-4 7 5 11l207 286L73 500q-2 3-2 9 0 11 15 11h127q14 0 20-13l26-48q14-35 47-131l32 177q2 15 18 15h113q8 0 12-5t3-13l-31-174 28 40q45 65 65 91l44 51q7 10 21 10h130q15 0 15-9z"/><glyph glyph-name="uni0437" unicode="з" horiz-adv-x="484" d="M405 496.5q49-37.5 49-98.5 0-84-76-125 57-30 57-95 0-13-3-28-13-75-75-119T189-13Q120-13 71.5 4.5T-12 60q-5 7-5 12t5 12l66 70q7 7 12 7t11-6q48-42 119-42 38 0 60.5 13.5T284 166q1 3 1 8 0 40-75 40h-64q-8 0-12.5 5.5T131 233l11 68q3 16 19 16h63q35 0 56 12.5t26 36.5q1 3 1 9 0 35-63 35t-119-41q-8-4-11-4-9 0-13 10l-38 73q-3 5-3 10 0 9 9 13 44 30 98 46.5T275 534q81 0 130-37.5z"/><glyph glyph-name="uni0438" unicode="и" horiz-adv-x="551" d="M11 19l87 486q2 15 18 15h109q8 0 12-5t3-13l-27-152q-6-40-27-128l2-1q45 74 87 132l110 156q7 11 22 11h117q9 0 13.5-5t2.5-13L453 16q-3-16-18-16H325q-18 0-16 19l27 149q5 27 10 49.5t9 39.5l9 40-2 1q-52-85-96-144L163 11q-8-11-21-11H27Q9 0 11 19z"/><glyph glyph-name="uni0439" unicode="й" horiz-adv-x="551" d="M11 19l87 486q2 15 18 15h109q8 0 12-5t3-13l-27-152q-6-40-27-128l2-1q45 74 87 132l110 156q7 11 22 11h117q9 0 13.5-5t2.5-13L453 16q-3-16-18-16H325q-18 0-16 19l27 149q5 27 10 49.5t9 39.5l9 40-2 1q-52-85-96-144L163 11q-8-11-21-11H27Q9 0 11 19zm428 586q-44-33-123-33-41 0-72 18t-48 48.5-17 64.5q0 20 16 23l72 12h4q11 0 14-16 4-46 50-46 48 0 66 49 5 15 21 13l68-12q8-2 11.5-7t1.5-12q-20-69-64-102z"/><glyph glyph-name="uni043A" unicode="к" horiz-adv-x="503" d="M526.5 517.5q3.5-2.5 3.5-6.5t-5-11L335 290 461 20l2-8q0-12-16-12H321q-16 0-20 14l-74 182-42-43-25-137q-1-7-5.5-11.5T142 0H27q-8 0-12.5 5.5T12 19l85 486q2 15 18 15h115q9 0 13.5-5t2.5-13l-29-165 148 173q7 10 21 10h130q7 0 10.5-2.5z"/><glyph glyph-name="uni043B" unicode="л" horiz-adv-x="554" d="M208.5 159.5Q173 77 121 40T-13-1q-9 0-13 5t-2 14l17 102q3 14 18 17 30 6 53 39.5t46.5 111T156 504q3 16 19 16h352q9 0 13.5-5t2.5-13L455 16q-1-16-18-16H321q-8 0-12 5t-3 14l67 371h-99q-30-148-65.5-230.5z"/><glyph glyph-name="uni043C" unicode="м" horiz-adv-x="672" d="M14.5 5.5Q10 11 12 19l85 486q3 15 19 15h129q15 0 19-15l31-113q18-67 34-145h3q55 92 89 145l73 117q7 11 21 11h130q9 0 13.5-5t2.5-13L575 16q-1-7-5.5-11.5T557 0H444q-9 0-13.5 5.5T428 19l22 117q11 55 33 155h-2q-24-44-72-121l-49-76q-8-11-21-11h-69q-16 0-19 15l-21 82-26 111h-3q-12-104-22-157L158 16q-1-16-18-16H28q-9 0-13.5 5.5z"/><glyph glyph-name="uni043D" unicode="н" horiz-adv-x="540" d="M398 520h116q8 0 12-5t3-13L442 16q-3-16-19-16H307q-8 0-12.5 5.5T292 19l32 181H194L160 16q-1-16-18-16H27q-9 0-13.5 5.5T11 19l88 486q2 15 18 15h116q8 0 12-5t3-13l-30-172h130l31 175q3 15 19 15z"/><glyph glyph-name="uni043E" unicode="о" horiz-adv-x="535" d="M398 38.5Q331-13 221-13q-58 0-102.5 24t-69 66T25 172q0 23 4 42l21 124q17 91 86 143.5T309 534q60 0 105-24.5t69.5-66.5 24.5-94q0-18-3-38l-23-126q-17-95-84-146.5zM177 178q0-28 15.5-44t45.5-16q39 0 62.5 19.5T330 193l23 128q2 12 2 18 0 29-16.5 46.5T292 403q-36 0-60-20.5T202 328l-23-129q-2-14-2-21z"/><glyph glyph-name="uni043F" unicode="п" horiz-adv-x="540" d="M529 502L441 16q-1-16-18-16H307q-8 0-12 5t-3 14l68 372H229L160 16q-1-16-18-16H26q-8 0-12.5 5.5T11 19l87 486q3 15 19 15h397q18 0 15-18z"/><glyph glyph-name="uni0440" unicode="р" horiz-adv-x="539" d="M202 522q54 11 105 11 95 0 150-52t55-136q0-24-4-44l-20-115q-15-89-78.5-144T257-13q-58 0-97 22l-33-183q-1-7-5.5-11.5T109-190H-7q-9 0-13 5t-2 14L91 474q3 13 14 18 43 19 97 30zm158-179q0 31-16.5 45T293 402q-38 0-66-15l-45-254q12-9 29-14t35-5q77 0 93 92l18 106q3 18 3 31z"/><glyph glyph-name="uni0441" unicode="с" horiz-adv-x="451" d="M223-13q-90 0-143 49.5T27 170q0 26 4 49l22 124q16 92 83.5 141.5T302 534q86 0 152-48 7-4 7-13 0-6-4-11l-59-76q-6-7-13-7-6 0-11 4-36 21-77 21-39 0-63-20t-31-57l-21-118q-3-15-3-27 0-32 18-48.5t49-16.5q45 0 94 29 6 3 11 3 9 0 13-9l39-86q3-4 3-10 0-8-11-14-77-43-172-43z"/><glyph glyph-name="uni0442" unicode="т" horiz-adv-x="446" d="M471 515q4-5 3-13l-17-96q-1-15-18-15H322L254 16q-3-16-19-16H119q-8 0-12.5 5.5T104 19l67 372H55q-8 0-12 5t-3 13l17 96q2 15 18 15h384q8 0 12-5z"/><glyph glyph-name="uni0443" unicode="у" horiz-adv-x="540" d="M396 520h115q8 0 12.5-5t3.5-13L447 49q-16-91-48.5-145.5t-86-80T176-202q-59 0-102.5 14.5T-4-144q-6 4-6 12 0 7 4 12l62 79q5 8 13 8 7 0 12-4 45-32 107-32 48 0 73.5 23T295 29q-45-15-85-15-80 0-125.5 47.5T39 189q0 27 4 51l48 265q2 15 18 15h115q9 0 13.5-5t2.5-13l-50-276q-3-13-3-26 0-29 16.5-43.5T249 142q39 0 67 17l61 346q3 15 19 15z"/><glyph glyph-name="uni0444" unicode="ф" horiz-adv-x="752" d="M227.5-185.5Q223-180 225-172L255-1h-46q-47 0-89 23.5t-67.5 66T27 185q0 19 3 38l15 82q20 110 89 162.5T296 520h52l32 179q2 16 18 16h113q8 0 12.5-5.5T526 696l-31-176h45q52 0 94-22t66.5-63 24.5-97q0-23-4-44l-15-82q-20-108-86.5-160.5T447-1h-44l-32-174q-1-7-5.5-11.5T353-191H240q-8 0-12.5 5.5zM178 195q0-64 63-64h37l46 259h-38q-36 0-59.5-22T195 304l-14-79q-3-16-3-30zm286-64q79 0 95 94l14 79q3 17 3 29 0 57-61 57h-43l-46-259h38z"/><glyph glyph-name="uni0445" unicode="х" horiz-adv-x="491" d="M511 517.5q4-2.5 4-7.5t-4-10L341 259l93-239q2-6 2-8 0-5-4.5-8.5T420 0H297q-14 0-19 15l-45 145L133 12q-7-12-21-12H-18q-7 0-11.5 3t-4.5 8 4 10l183 249-85 231q-1 3-1 7 0 12 14 12h121q15 0 19-14l40-149 93 152q6 11 20 11h126q7 0 11-2.5z"/><glyph glyph-name="uni0446" unicode="ц" horiz-adv-x="569" d="M338.5-125.5Q334-120 336-112L356 0H26q-8 0-12.5 5.5T11 19l87 486q3 15 19 15h115q18 0 15-18l-66-371h128l67 374q2 15 18 15h115q9 0 13.5-5t2.5-13l-66-371h41q8 0 12.5-5.5T515 112l-41-227q-3-16-18-16H351q-8 0-12.5 5.5z"/><glyph glyph-name="uni0447" unicode="ч" horiz-adv-x="515" d="M374 520h115q8 0 12-5t3-13L417 16q-3-16-18-16H282q-8 0-12 5t-3 14l27 151q-38-13-78-13-76 0-122 44T48 325q0 22 5 54l23 126q3 15 18 15h117q8 0 12-5t3-13l-23-129q-3-19-3-33 0-32 13.5-43.5T253 285q33 0 64 11l38 209q3 15 19 15z"/><glyph glyph-name="uni0448" unicode="ш" horiz-adv-x="768" d="M629 520h112q8 0 12.5-5t3.5-13L670 16q-2-16-18-16H27q-8 0-12.5 5.5T12 19l85 486q3 15 19 15h111q9 0 13.5-5t2.5-13l-65-371h110l66 374q3 15 19 15h110q9 0 13.5-5t2.5-13l-65-371h110l67 374q2 15 18 15z"/><glyph glyph-name="uni0449" unicode="щ" horiz-adv-x="803" d="M572.5-125.5Q568-120 570-112L590 0H27q-9 0-13.5 5.5T11 19l88 486q2 15 18 15h112q8 0 12-5t3-13l-66-371h110l68 374q2 15 18 15h111q8 0 12-5t3-13l-66-371h110l68 374q2 15 18 15h112q8 0 12-5t3-13l-67-371h45q8 0 12.5-5.5T750 112l-41-227q-1-16-18-16H585q-8 0-12.5 5.5z"/><glyph glyph-name="uni044A" unicode="ъ" horiz-adv-x="574" d="M497.5 314Q543 273 543 207q0-18-3-36-15-88-71.5-129.5T316 0H103q-8 0-12.5 5.5T87 19l67 374H56q-9 0-13.5 5.5T40 412l17 93q2 15 18 15h232q18 0 16-18l-26-147h80q75 0 120.5-41zm-132-176.5Q386 152 390 180q2 12 2 16 0 39-58 39h-58l-21-112h57q33 0 53.5 14.5z"/><glyph glyph-name="uni044B" unicode="ы" horiz-adv-x="755" d="M421.5 314Q467 273 467 206q0-17-3-35-15-88-71.5-129.5T240 0H27q-8 0-12.5 5T11 19l87 486q2 15 18 15h115q18 0 16-18l-26-147h80q75 0 120.5-41zM289 137.5q20 14.5 25 42.5 1 5 1 15 0 40-57 40h-59l-20-112h57q33 0 53 14.5zm221.5-132Q506 11 507 19l86 486q3 15 19 15h116q8 0 12.5-5t3.5-13L657 16q-3-16-18-16H523q-8 0-12.5 5.5z"/><glyph glyph-name="uni044C" unicode="ь" horiz-adv-x="498" d="M421.5 314Q467 273 467 206q0-17-3-35-15-88-71.5-129.5T240 0H27q-8 0-12.5 5T11 19l87 486q2 15 18 15h115q18 0 16-18l-26-147h80q75 0 120.5-41zM289 137.5q20 14.5 25 42.5 1 5 1 15 0 40-57 40h-59l-20-112h57q33 0 53 14.5z"/><glyph glyph-name="uni044D" unicode="э" horiz-adv-x="453" d="M229 534q90 0 143-49.5T425 352q0-26-4-47l-22-127q-15-90-83.5-140.5T152-13Q59-13-10 41q-7 5-7 12 0 5 5 12l60 77q6 7 12 7 7 0 12-4 39-28 86-28 80 0 94 76l4 22H125q-9 0-13 5.5t-2 13.5l12 63q3 16 19 16h133v3q2 16 2 23 0 31-17.5 47.5T210 403q-40 0-87-28-5-4-11-4-9 0-13 10l-38 82q-3 6-3 10 0 9 12 16 75 45 159 45z"/><glyph glyph-name="uni044E" unicode="ю" horiz-adv-x="768" d="M376.5 481Q441 534 545 534q59 0 103.5-24t69-66 24.5-93q0-12-4-40l-22-126q-17-95-84-146.5T455-13q-87 0-136.5 51T269 173q0 17 1 25h-77L161 16q-3-16-19-16H27Q9 0 11 19l87 486q2 15 18 15h116q8 0 12.5-5t3.5-13l-31-172h76q19 98 83.5 151zM589 339q0 29-16.5 46.5T527 403q-35 0-59-20.5T438 328l-23-129q-2-14-2-21 0-28 15.5-44t44.5-16q38 0 61 19.5t30 55.5l23 128q2 12 2 18z"/><glyph glyph-name="uni044F" unicode="я" horiz-adv-x="528" d="M-30 11q0 5 4 10l150 180q-32 20-50 52.5T56 327q0 17 3 35 12 71 73 114.5T279 520h222q8 0 12-5t3-14L430 16q-3-16-19-16H296q-9 0-13 5t-3 14l27 152h-50L141 11q-5-11-21-11H-15q-15 0-15 11zm250.5 290q13.5-12 40.5-12h68l19 107h-65q-76 0-76-61 0-22 13.5-34z"/><glyph glyph-name="uni0451" unicode="ё" horiz-adv-x="519" d="M263.5 598Q242 579 211 579q-27 0-43.5 16.5T151 639q0 39 23.5 62.5T234 725q26 0 42.5-16t16.5-42q0-5-2-17-6-33-27.5-52zm208.5 0q-21-19-52-19-27 0-44 16.5T359 639q0 39 23.5 62.5T442 725q26 0 42.5-16t16.5-42q0-5-2-17-6-33-27-52zM139.5 485Q208 534 303 534q89 0 143-42t54-124q0-19-5-49l-17-97q-3-15-18-15H182l-3-14q-2-16-2-22 0-57 71-57 63 0 130 40 5 4 11 4 8 0 12-9l41-77q2-8 2-10 0-10-8-14-89-61-209-61-90 0-146.5 46T24 158q0 11 4 39l26 145q17 94 85.5 143zM353 349q0 26-16 42t-47 16q-33 0-55.5-19T205 334l-5-27h146l5 25q2 12 2 17z"/><glyph glyph-name="uni0452" unicode="ђ" horiz-adv-x="545" d="M343 509q75 0 118.5-46.5T505 334q0-29-6-62L450 0q-20-111-75-156.5T238-202q-22 0-48 4-16 3-13 21l18 102q3 15 16 15l26-1q51 0 66 78l49 273q3 15 3 27 0 61-65 61-37 0-70-19L160 16q-1-7-5.5-11.5T142 0H27q-9 0-13.5 5.5T11 19l97 553H54q-9 0-13 5t-2 14l9 44q2 15 18 15h56l9 49q3 16 18 16h115q9 0 13-5t2-14l-7-46h105q18 0 16-18l-9-44q-3-16-18-16H258l-15-85q46 22 100 22z"/><glyph glyph-name="uni0453" unicode="ѓ" horiz-adv-x="405" d="M14 5q-4 5-3 14l87 486q2 15 18 15h303q8 0 12-5t3-13l-17-97q-3-16-19-16H228L161 16q-1-7-5.5-11.5T143 0H27q-9 0-13 5zm188 583q0 4 5 11l107 132q9 10 22 10h104q7 0 11-2.5t4-7.5q0-6-6-12L316 587q-8-9-21-9h-78q-15 0-15 10z"/><glyph glyph-name="uni0454" unicode="є" horiz-adv-x="456" d="M223-13q-90 0-143 49.5T27 169q0 26 4 47l22 127q15 90 84 140.5T300 534q88 0 154-48 8-5 8-12 0-5-5-12l-58-76q-6-7-13-7-5 0-11 3-38 22-81 22-39 0-63-20t-31-57l-2-14h130q9 0 13-5.5t2-13.5l-12-64q-3-15-19-15H180l-2-11q-2-16-2-22 0-31 17.5-48t48.5-17q48 0 99 30 5 3 10 3 9 0 13-10l40-84q2-8 2-10 0-8-9-14-79-45-174-45z"/><glyph glyph-name="uni0455" unicode="ѕ" horiz-adv-x="482" d="M361 26q-61-39-158-39Q82-13 0 54q-7 6-7 13 0 6 4 11l57 78q6 8 13 8 3 0 11-4 58-43 130-43 39 0 58.5 12t19.5 34q0 16-17 24t-52 16q-71 15-114.5 53T59 355q0 19 4 35 15 74 73.5 109T289 534q51 0 93-11t83-35q9-4 9-13 0-4-5-11l-59-79q-6-8-13-8-5 0-11 3-47 27-111 27-29 0-45-7.5T211 374q-4-21 13.5-30.5T285 324q64-14 109.5-50T440 174q0-15-3-32-15-77-76-116z"/><glyph glyph-name="uni0456" unicode="і" horiz-adv-x="258" d="M256.5 619.5Q231 593 192 593q-33 0-54 21t-21 53q0 40 25.5 66t64.5 26q34 0 54.5-21t20.5-54q0-38-25.5-64.5zm-243-614Q9 11 11 19l86 486q2 15 18 15h116q9 0 13.5-5t2.5-13L161 16q-3-16-19-16H26q-8 0-12.5 5.5z"/><glyph glyph-name="uni0457" unicode="ї" horiz-adv-x="258" d="M143.5 597Q122 578 91 578q-27 0-43.5 16.5T31 638q0 39 23.5 62.5T114 724q26 0 42.5-16t16.5-42q0-5-2-17-6-33-27.5-52zm197.5 0q-21-19-52-19-27 0-44 16.5T228 638q0 39 23.5 62.5T311 724q26 0 42.5-16t16.5-42q0-5-2-17-6-33-27-52zM14.5 5.5Q10 11 11 19l86 486q3 15 19 15h116q8 0 12.5-5t3.5-13L161 16q-3-16-18-16H27q-8 0-12.5 5.5z"/><glyph glyph-name="uni0458" unicode="ј" horiz-adv-x="266" d="M263.5 619.5Q238 593 199 593q-33 0-54 21t-21 53q0 40 25.5 66t64.5 26q34 0 54.5-21t20.5-54q0-38-25.5-64.5zM92-157q-55-45-138-45-21 0-47 4-16 3-13 21l18 102q3 15 15 15l27-1q52 0 65 78l85 488q3 15 19 15h116q8 0 12-5t3-13L167-1q-20-111-75-156z"/><glyph glyph-name="uni0459" unicode="љ" horiz-adv-x="789" d="M712.5 311.5Q758 271 758 204q0-16-3-34-15-87-71.5-128.5T532 0H319q-8 0-12.5 5.5T304 19l67 371h-97q-30-148-65.5-230.5T121 40-13-1q-9 0-13 5t-2 14l17 102q3 14 18 17 30 6 53 39.5t46.5 111T156 504q3 16 19 16h350q9 0 13.5-5t2.5-13l-27-150h78q75 0 120.5-40.5zM580 136.5q20 14.5 25 42.5 1 5 1 14 0 40-56 40h-57l-21-111h55q33 0 53 14.5z"/><glyph glyph-name="uni045A" unicode="њ" horiz-adv-x="777" d="M13.5 5.5Q9 11 11 19l88 486q2 15 18 15h116q8 0 12-5t3-13l-28-160h127l30 163q2 15 18 15h116q18 0 15-18l-28-158h81q75 0 121-40.5T746 198q0-15-3-33-16-85-72.5-125T518 0H305q-9 0-13 5t-2 14l36 195H198L160 16q-1-16-18-16H27q-9 0-13.5 5.5zM514 122q37 0 58 17t21 49q0 37-56 37h-60l-19-103h56z"/><glyph glyph-name="uni045B" unicode="ћ" horiz-adv-x="546" d="M345 509q75 0 118.5-46T507 335q0-29-6-62L453 16q-3-16-18-16H319q-8 0-12.5 5.5T304 19l49 271q3 17 3 29 0 59-64 59-19 0-38-5t-33-14L161 16q-3-16-19-16H27q-9 0-13 5t-3 14l98 553H55q-9 0-13.5 5.5T39 591l9 44q3 15 18 15h57l8 49q3 16 19 16h114q9 0 13.5-5.5T280 696l-8-46h105q18 0 16-18l-9-44q-1-16-18-16H258l-15-85q42 22 102 22z"/><glyph glyph-name="uni045C" unicode="ќ" horiz-adv-x="503" d="M526.5 517.5q3.5-2.5 3.5-6.5t-5-11L335 290 461 20l2-8q0-12-16-12H321q-16 0-20 14l-74 182-42-43-25-137q-1-7-5.5-11.5T142 0H27q-8 0-12.5 5.5T12 19l85 486q2 15 18 15h115q9 0 13.5-5t2.5-13l-29-165 148 173q7 10 21 10h130q7 0 10.5-2.5zM240 585q0 4 5 11l107 132q9 10 22 10h104q7 0 11-2.5t4-7.5q0-6-6-12L354 584q-8-9-21-9h-78q-15 0-15 10z"/><glyph glyph-name="uni045D" unicode="ѝ" horiz-adv-x="551" d="M11 19l87 486q2 15 18 15h109q8 0 12-5t3-13l-27-152q-6-40-27-128l2-1q45 74 87 132l110 156q7 11 22 11h117q9 0 13.5-5t2.5-13L453 16q-3-16-18-16H325q-18 0-16 19l27 149q5 27 10 49.5t9 39.5l9 40-2 1q-52-85-96-144L163 11q-8-11-21-11H27Q9 0 11 19zm377 567q0-11-14-11h-69q-14 0-21 11l-85 131q-4 5-4 10t4 8 11 3h93q13 0 20-13l63-130q2-3 2-9z"/><glyph glyph-name="uni045E" unicode="ў" horiz-adv-x="540" d="M433 605q-44-33-123-33-41 0-72 18t-48 48.5-17 64.5q0 20 16 23l72 12h4q11 0 14-16 4-46 50-46 48 0 66 49 5 15 21 13l68-12q8-2 11.5-7t1.5-12q-20-69-64-102zm-37-85h115q8 0 12.5-5t3.5-13L447 49q-16-91-48.5-145.5t-86-80T176-202q-59 0-102.5 14.5T-4-144q-6 4-6 12 0 7 4 12l62 79q5 8 13 8 7 0 12-4 45-32 107-32 48 0 73.5 23T295 29q-45-15-85-15-80 0-125.5 47.5T39 189q0 27 4 51l48 265q2 15 18 15h115q9 0 13.5-5t2.5-13l-50-276q-3-13-3-26 0-29 16.5-43.5T249 142q39 0 67 17l61 346q3 15 19 15z"/><glyph glyph-name="uni045F" unicode="џ" horiz-adv-x="538" d="M137-126q-4 5-3 14L155 0H26q-8 0-12 5t-3 14l88 486q2 15 18 15h116q8 0 12-5t3-13l-66-371h128l68 374q2 15 18 15h116q8 0 12-5t3-13L439 16q-1-16-18-16H295l-22-115q-3-16-18-16H150q-9 0-13 5z"/><glyph glyph-name="uni0490" unicode="Ґ" horiz-adv-x="504" d="M30.5 5.5Q26 11 28 19l120 680q2 16 18 16h262l27 143q1 16 18 16h108q8 0 12.5-5.5T596 855l-48-272q-3-15-18-15H284L185 16q-2-16-18-16H44q-9 0-13.5 5.5z"/><glyph glyph-name="uni0491" unicode="ґ" horiz-adv-x="396" d="M14.5 5.5Q10 11 12 19l85 486q3 15 18 15h183l20 109q3 16 18 16h97q8 0 12.5-5.5T448 626l-42-221q-2-16-18-16H221L157 16q-1-7-5.5-11.5T139 0H27q-8 0-12.5 5.5z"/><glyph glyph-name="Wgrave" unicode="Ẁ" horiz-adv-x="948" d="M142 16L82 697v2q0 7 4.5 11.5T99 715h128q8 0 13-4.5t5-12.5l10-226q3-66 3-184l-1-109h5q20 65 50.5 152.5T367 479l86 212q6 14 20 14h141q17 0 18-16l17-221q3-51 5.5-138t2.5-151h6q21 69 51.5 161.5T766 488l83 213q6 14 20 14h134q7 0 11.5-3.5t4.5-8.5q0-2-2-8L719 13q-6-13-21-13H553q-16 0-17 16l-13 197q-5 89-7 251v36h-6q-12-49-34.5-115.5T428 257L325 14q-6-14-20-14H160q-17 0-18 16zm372 757l-93 132q-5 7-5 11t4 7 11 3h106q15 0 21-12l71-130q3-4 3-9t-4-8.5-11-3.5h-82q-14 0-21 10z"/><glyph glyph-name="wgrave" unicode="ẁ" horiz-adv-x="742" d="M96 16L52 502v2q0 16 17 16h115q18 0 18-17l4-164q2-88 2-168h4q30 95 58 167l64 162q6 13 20 13h119q17 0 17-16l8-160q4-107 3-166h4q13 43 49 140l11 30 61 166q6 13 20 13h115q15 0 15-11 0-5-2-8L560 13q-6-13-21-13H414q-16 0-18 17l-7 166-3 147h-3q-10-33-24.5-73.5T331 183L260 14q-5-14-19-14H114Q97 0 96 16zm379 571q0-11-14-11h-69q-14 0-21 11l-85 131q-4 5-4 10t4 8 11 3h93q13 0 20-13l63-130q2-3 2-9z"/><glyph glyph-name="Wacute" unicode="Ẃ" horiz-adv-x="948" d="M142 16L82 697v2q0 7 4.5 11.5T99 715h128q8 0 13-4.5t5-12.5l10-226q3-66 3-184l-1-109h5q20 65 50.5 152.5T367 479l86 212q6 14 20 14h141q17 0 18-16l17-221q3-51 5.5-138t2.5-151h6q21 69 51.5 161.5T766 488l83 213q6 14 20 14h134q7 0 11.5-3.5t4.5-8.5q0-2-2-8L719 13q-6-13-21-13H553q-16 0-17 16l-13 197q-5 89-7 251v36h-6q-12-49-34.5-115.5T428 257L325 14q-6-14-20-14H160q-17 0-18 16zm336 758q0 5 5 12l115 131q9 10 21 10h112q7 0 11-2.5t4-7.5q0-6-6-12L598 772q-10-8-20-8h-85q-15 0-15 10z"/><glyph glyph-name="wacute" unicode="ẃ" horiz-adv-x="742" d="M96 16L52 502v2q0 16 17 16h115q18 0 18-17l4-164q2-88 2-168h4q30 95 58 167l64 162q6 13 20 13h119q17 0 17-16l8-160q4-107 3-166h4q13 43 49 140l11 30 61 166q6 13 20 13h115q15 0 15-11 0-5-2-8L560 13q-6-13-21-13H414q-16 0-18 17l-7 166-3 147h-3q-10-33-24.5-73.5T331 183L260 14q-5-14-19-14H114Q97 0 96 16zm247 569q0 4 5 11l107 132q9 10 22 10h104q7 0 11-2.5t4-7.5q0-6-6-12L457 584q-8-9-21-9h-78q-15 0-15 10z"/><glyph glyph-name="Wdieresis" unicode="Ẅ" horiz-adv-x="948" d="M498 798.5Q473 773 437 773q-30 0-47 18t-17 45q0 38 25.5 64t61.5 26q30 0 46.5-17.5T523 864q0-40-25-65.5zm237.5-4.5Q712 773 679 773q-30 0-46.5 17.5T616 836q0 39 25 64.5t61 25.5q30 0 47-17.5t17-44.5q0-10-1-15-6-34-29.5-55zM142 16L82 697v2q0 7 4.5 11.5T99 715h128q8 0 13-4.5t5-12.5l10-226q3-66 3-184l-1-109h5q20 65 50.5 152.5T367 479l86 212q6 14 20 14h141q17 0 18-16l17-221q3-51 5.5-138t2.5-151h6q21 69 51.5 161.5T766 488l83 213q6 14 20 14h134q7 0 11.5-3.5t4.5-8.5q0-2-2-8L719 13q-6-13-21-13H553q-16 0-17 16l-13 197q-5 89-7 251v36h-6q-12-49-34.5-115.5T428 257L325 14q-6-14-20-14H160q-17 0-18 16z"/><glyph glyph-name="wdieresis" unicode="ẅ" horiz-adv-x="742" d="M357.5 597Q336 578 305 578q-27 0-43.5 16.5T245 638q0 39 23.5 62.5T328 724q26 0 42.5-16t16.5-42q0-5-2-17-6-33-27.5-52zm227 0Q563 578 532 578q-27 0-43.5 16.5T472 638q0 39 23.5 62.5T555 724q26 0 42.5-16t16.5-42q0-5-2-17-6-33-27.5-52zM96 16L52 502v2q0 16 17 16h115q18 0 18-17l4-164q2-88 2-168h4q30 95 58 167l64 162q6 13 20 13h119q17 0 17-16l8-160q4-107 3-166h4q13 43 49 140l11 30 61 166q6 13 20 13h115q15 0 15-11 0-5-2-8L560 13q-6-13-21-13H414q-16 0-18 17l-7 166-3 147h-3q-10-33-24.5-73.5T331 183L260 14q-5-14-19-14H114Q97 0 96 16z"/><glyph glyph-name="Ygrave" unicode="Ỳ" horiz-adv-x="582" d="M170 5q-4 5-3 14l44 238L78 696q-1 2-1 6 0 6 4 9.5t11 3.5h130q15 0 18-15l73-295h2l170 298q8 12 20 12h138q14 0 14-11 0-4-3-10L371 254 326 16q-3-16-18-16H183q-9 0-13 5zm153 768l-93 132q-5 7-5 11t4 7 11 3h106q15 0 21-12l71-130q3-4 3-9t-4-8.5-11-3.5h-82q-14 0-21 10z"/><glyph glyph-name="ygrave" unicode="ỳ" horiz-adv-x="539" d="M396 520h115q8 0 12.5-5t3.5-13L447 49q-16-91-48.5-145.5t-86-80T176-202q-59 0-102.5 14.5T-4-144q-6 4-6 12 0 7 4 12l62 79q5 8 13 8 7 0 12-4 45-32 107-32 48 0 73.5 23T295 29q-45-15-85-15-80 0-125.5 47.5T39 189q0 27 4 51l48 265q2 15 18 15h115q9 0 13.5-5t2.5-13l-50-276q-3-13-3-26 0-29 16.5-43.5T249 142q39 0 67 17l61 346q3 15 19 15zm-15 66q0-11-14-11h-69q-14 0-21 11l-85 131q-4 5-4 10t4 8 11 3h93q13 0 20-13l63-130q2-3 2-9z"/><glyph glyph-name="endash" unicode="–" horiz-adv-x="582" d="M507 231H67q-8 0-12.5 5.5T52 250l18 102q3 16 18 16h440q8 0 12.5-5.5T543 349l-18-103q-1-15-18-15z"/><glyph glyph-name="emdash" unicode="—" horiz-adv-x="960" d="M885 231H67q-8 0-12.5 5.5T52 250l18 102q3 16 18 16h818q8 0 12.5-5.5T921 349l-18-103q-3-15-18-15z"/><glyph glyph-name="quoteleft" unicode="‘" horiz-adv-x="255" d="M205 715h86q7 0 11-3.5t4-8.5l-2-8-102-252q-6-13-20-13H77q-15 0-15 11 0 6 2 9l121 252q6 13 20 13z"/><glyph glyph-name="quoteright" unicode="’" horiz-adv-x="253" d="M166 430H81q-7 0-11.5 3.5T65 442q0 2 2 8l103 251q5 14 20 14h104q16 0 16-12 0-3-2-9L186 443q-6-13-20-13z"/><glyph glyph-name="quotesinglbase" unicode="‚" horiz-adv-x="243" d="M39-140h-85q-10 0-13.5 5.5T-60-120L42 132q7 13 20 13h105q15 0 15-11 0-6-2-9L59-127q-6-13-20-13z"/><glyph glyph-name="quotedblleft" unicode="“" horiz-adv-x="458" d="M61 443q0 3 2 9l123 250q7 13 21 13h83q7 0 11-3.5t4-8.5l-2-8-103-250q-5-13-20-13H76q-15 0-15 11zm204 1l2 8 123 250q6 13 20 13h84q7 0 11-3.5t4-8.5l-2-8-102-250q-6-13-20-13H280q-15 0-15 12z"/><glyph glyph-name="quotedblright" unicode="”" horiz-adv-x="457" d="M69 433.5q-4 3.5-4 8.5l2 8 102 251q6 14 20 14h105q15 0 15-11 0-4-3-10L185 442q-5-12-20-12H80q-7 0-11 3.5zm202.5 2Q268 441 271 450l103 251q5 14 19 14h105q15 0 15-12 0-6-2-9L390 442q-5-12-20-12h-85q-10 0-13.5 5.5z"/><glyph glyph-name="quotedblbase" unicode="„" horiz-adv-x="448" d="M-57-136.5q-4 3.5-4 8.5l2 8L42 132q7 13 20 13h105q15 0 15-11 0-6-2-9L59-127q-6-13-20-13h-85q-7 0-11 3.5zm202.5 2Q142-129 145-120l102 252q7 13 20 13h105q15 0 15-11 0-6-2-9L264-127q-7-13-21-13h-84q-10 0-13.5 5.5z"/><glyph glyph-name="dagger" unicode="†" horiz-adv-x="518" d="M124.5-133.5Q120-128 122-120l90 514H85q-9 0-13.5 5.5T69 413l18 100q3 16 19 16h131l35 200q3 16 18 16h107q9 0 13.5-5.5T413 726l-34-197h125q9 0 13.5-5.5T520 510l-18-100q-3-16-19-16H354l-90-517q-3-16-19-16H138q-9 0-13.5 5.5z"/><glyph glyph-name="daggerdbl" unicode="‡" horiz-adv-x="518" d="M120.5-133.5Q116-128 118-120l35 202H26q-9 0-13 5t-3 14l19 101q2 15 18 15h130l31 177H81q-9 0-13.5 5.5T65 413l18 100q3 16 19 16h131l35 200q3 16 18 16h107q9 0 13.5-5.5T409 726l-34-197h125q9 0 13.5-5.5T516 510l-18-100q-3-16-19-16H350l-31-177h126q18 0 15-19L443 98q-3-16-19-16H295l-35-205q-3-16-19-16H134q-9 0-13.5 5.5z"/><glyph glyph-name="bullet" unicode="•" horiz-adv-x="392" d="M105 230.5Q71 264 71 317q0 15 3 30 10 56 52 91.5t97 35.5 88.5-33 33.5-86q0-44-20.5-80.5t-55-57T194 197q-55 0-89 33.5z"/><glyph glyph-name="ellipsis" unicode="…" horiz-adv-x="761" d="M149 18q-27-28-69-28-34 0-55.5 22.5T3 70q0 43 26.5 70.5T97 168q36 0 57.5-22T176 88q0-42-27-70zm260 0q-27-28-69-28-34 0-55.5 22.5T263 70q0 43 26.5 70.5T357 168q36 0 57.5-22T436 88q0-42-27-70zm259 .5Q641-10 600-10q-35 0-56.5 22.5T522 70q0 43 26.5 70.5T617 168q35 0 56.5-22T695 89q0-42-27-70.5z"/><glyph glyph-name="perthousand" unicode="‰" horiz-adv-x="1154" d="M295.5 369Q252 333 186 333q-53 0-87.5 33T64 451q0 14 3 29l18 98q13 70 58 106.5T253 721q52 0 86-33t34-85q0-13-3-28l-18-98q-13-72-56.5-108zM93 3q-4 3-4 7t5 11l535 677q9 10 21 10h89q7 0 11-3t4-7-5-11L214 10q-9-10-21-10h-89q-7 0-11 3zm75 458q0-16 9-24t23-8q18 0 31 12.5t17 35.5l20 103q1 5 1 13 0 16-8 24t-23 8q-18 0-32-12.5T188 577l-19-103q-1-5-1-13zM704.5 29Q661-7 595-7q-53 0-87.5 33.5T473 112q0 13 3 28l18 98q12 69 57 105.5T661 380q53 0 87-33t34-85q0-13-3-27l-18-98q-13-72-56.5-108zm342 0Q1003-7 937-7q-53 0-87.5 33T815 111q0 14 3 29l18 98q13 69 58 105.5t110 36.5q52 0 86-33t34-84q0-13-3-28l-18-98q-13-72-56.5-108zM577 122q0-16 9-24.5t23-8.5q18 0 31.5 12.5T658 137l19 103q1 5 1 13 0 16-8 24t-23 8q-18 0-32-12.5T597 237l-19-103q-1-4-1-12zm342 0q0-16 9-24.5t23-8.5q18 0 31 12.5t18 35.5l19 103q1 5 1 13 0 16-8 24t-23 8q-18 0-32-12.5T939 237l-19-103q-1-4-1-12z"/><glyph glyph-name="guilsinglleft" unicode="‹" horiz-adv-x="333" d="M126 84L35 278q-3 6-3 11 0 6 5 13l162 199q8 10 21 10h110q15 0 15-10 0-7-5-12L174 291l94-199q2-6 2-9 0-12-16-12H147q-14 0-21 13z"/><glyph glyph-name="guilsinglright" unicode="›" horiz-adv-x="332" d="M217 499l91-194q3-6 3-11 0-6-5-13L144 82q-8-10-21-10H13Q-2 72-2 82q0 7 5 12l166 198-94 199q-2 6-2 9 0 12 16 12h107q14 0 21-13z"/><glyph glyph-name="fraction" unicode="⁄" horiz-adv-x="224" d="M-103 0h-69q-7 0-11 3t-4 7q0 6 4 11l524 683q8 11 21 11h68q7 0 11-2.5t4-7.5q0-6-4-11L-82 11q-8-11-21-11z"/><glyph glyph-name="zero.sups" unicode="⁰" horiz-adv-x="347" d="M311.5 441.5Q266 405 198 405q-55 0-88 30t-33 83q0 16 3 34l20 111q12 67 58.5 103.5T270 803q56 0 89.5-31t33.5-84q0-14-3-31l-20-110q-13-69-58.5-105.5zM178 533q0-16 10.5-24t26.5-8q20 0 34.5 12t18.5 34l21 115q1 4 1 11 0 17-9.5 25.5T254 707q-20 0-34.5-11.5T201 662l-21-116q-2-10-2-13z"/><glyph glyph-name="four.sups" unicode="⁴" horiz-adv-x="346" d="M381 561.5q4-5.5 2-13.5l-11-57q-3-16-19-16h-21l-9-49q-3-16-18-16h-66q-9 0-13 5t-3 14l8 46H72q-9 0-13 5t-3 14l9 52q3 12 9 21l148 220q8 11 22 11h69q15 0 15-11 0-2-4-10L183 567h66l16 59q3 14 19 14h59q8 0 12.5-5.5T358 621l-9-54h20q8 0 12-5.5z"/><glyph glyph-name="five.sups" unicode="⁵" horiz-adv-x="337" d="M308 438q-46-33-119-33-84 0-127 50-5 7-5 10 0 6 7 13l41 42q5 5 12 5t12-5q29-24 76-24 24 0 41 12.5t20 33.5q1 4 1 12 0 16-11 25t-31 9q-30 0-60-16-11-7-23-4l-40 11q-8 2-11 8.5T90 601l41 182q5 15 20 15h223q8 0 12.5-5.5T389 779l-10-55q-2-16-19-16H204l-13-56q22 11 63 11 54 0 84-26t30-73q0-15-3-30-11-63-57-96z"/><glyph glyph-name="six.sups" unicode="⁶" horiz-adv-x="336" d="M311 440.5Q267 405 200 405q-56 0-90 32.5T76 520q0 17 2 26l21 121q12 62 60 99t111 37q60 0 110-36 8-5 8-12 0-5-5-13l-41-45q-6-7-13-7-5 0-11 3-23 17-59 17-25 0-42-12.5T196 663l-5-24q23 18 66 18 49 0 80-26t31-70q0-7-2-23-11-62-55-97.5zM214 500q47 0 54 41 1 3 1 9 0 29-40 29-25 0-40.5-12.5T173 531q0-31 41-31z"/><glyph glyph-name="seven.sups" unicode="⁷" horiz-adv-x="310" d="M78 421q0 4 3 10l168 275H111q-8 0-12 5t-3 13l10 58q3 16 19 16h246q8 0 12.5-5.5T386 779l-7-42q-1-10-7-20L191 422q-7-12-21-12H93q-15 0-15 11z"/><glyph glyph-name="eight.sups" unicode="⁸" horiz-adv-x="342" d="M310 436.5Q265 405 197 405q-60 0-95 26.5T67 504q0 37 19.5 68t53.5 45q-14 10-22.5 26t-8.5 35q0 5 2 17 8 50 50 79t106 29q56 0 88-24.5t32-66.5q0-7-2-21-4-24-19-44t-39-33q19-8 29.5-25.5T367 547q0-6-2-22-10-57-55-88.5zM208.5 655q10.5-8 30.5-8 26 0 41.5 12.5T296 694q0 27-42 27-26 0-41-12t-15-31q0-15 10.5-23zm-36-155.5Q184 489 209 489q29 0 46 13t17 36q0 31-46 31-27 0-42.5-10.5T164 529q-3-19 8.5-29.5z"/><glyph glyph-name="nine.sups" unicode="⁹" horiz-adv-x="335" d="M144 767q44 36 111 36 57 0 91-31.5t34-80.5q0-14-3-28l-21-122q-12-62-60-99t-110-37q-53 0-110 36-8 5-8 12 0 6 6 13l40 46q6 7 13 7 6 0 11-4 27-17 58-17 26 0 42 12.5t21 34.5l5 25q-22-18-65-18-50 0-81 27t-31 70q0 5 2 19 11 63 55 99zm138-89q0 31-40 31-22 0-36-10.5T189 668q-1-3-1-10 0-28 38-28 23 0 37 10.5t18 29.5z"/><glyph glyph-name="zero.sinf" unicode="₀" horiz-adv-x="347" d="M220.5-68.5Q175-105 108-105q-56 0-89 30T-14 8q0 16 3 34L9 153q12 67 58.5 103.5T179 293q56 0 89.5-30.5T302 179q0-15-3-32L279 37q-13-69-58.5-105.5zM87 23Q87 7 97.5-1T125-9q19 0 34 12t19 34l20 115q1 4 1 12 0 33-36 33-20 0-34.5-11.5T110 152L89 36q-2-10-2-13z"/><glyph glyph-name="one.sinf" unicode="₁" horiz-adv-x="240" d="M42.5-94.5Q38-89 40-81l44 249-37-23q-6-3-11-3-8 0-13 9l-24 50q-2 3-2 9 0 9 8 14l96 58q11 6 21 6h64q8 0 12.5-5.5T201 269L138-84q-2-16-18-16H56q-9 0-13.5 5.5z"/><glyph glyph-name="two.sinf" unicode="₂" horiz-adv-x="320" d="M-38.5-94.5Q-43-89-41-81l9 54q3 12 12 20l124 98q36 29 53.5 50.5T175 180q0 22-29 22-34 0-74-27-7-5-12-5-9 0-13 10l-23 43q-2 8-2 10 0 9 8 14 64 46 134 46 54 0 84-28.5t30-72.5q0-38-21-70t-73-80q-33-28-64-47h111q9 0 13-5t3-14l-11-60q-3-16-19-16H-25q-9 0-13.5 5.5z"/><glyph glyph-name="three.sinf" unicode="₃" horiz-adv-x="328" d="M208.5-71Q163-105 94-105q-82 0-129 55-5 7-5 11 0 7 6 13L8 19q6 6 12 6t13-7Q62-9 102-9q27 0 43.5 12.5T167 39q1 3 1 9 0 16-12.5 24.5T121 81q-8 0-24-2h-5q-13 0-16 13l-5 20-1 5q0 10 9 17l77 66H39q-8 0-12 5t-3 14l10 53q2 16 18 16h226q9 0 13-5t3-14l-6-36q-2-11-13-20l-92-76q10 0 21-2 29-7 46-28.5T267 50q0-17-2-26-11-61-56.5-95z"/><glyph glyph-name="four.sinf" unicode="₄" horiz-adv-x="346" d="M291 51.5q4-5.5 2-13.5l-11-57q-1-16-19-16h-21l-9-49q-1-16-18-16h-66q-9 0-13 5t-3 14l8 46H-18q-8 0-12.5 5.5T-34-16l9 52q3 12 9 21l148 220q8 11 22 11h69q7 0 11-2.5t4-7.5q0-6-4-11L93 57h66l16 59q3 14 19 14h59q8 0 12.5-5.5T268 111l-9-54h20q8 0 12-5.5z"/><glyph glyph-name="five.sinf" unicode="₅" horiz-adv-x="337" d="M218-72q-46-33-120-33-44 0-76 13.5T-28-55q-5 7-5 10 0 6 7 13l41 42q5 6 11 6t13-6q29-24 76-24 24 0 41 12.5T176 32q1 4 1 12 0 16-11 25t-31 9q-32 0-60-16-8-5-16-5-5 0-8 1L12 69q-7 2-11 8t-2 14l42 182q3 15 19 15h223q9 0 13.5-5.5T299 269l-10-55q-3-16-19-16H113l-12-56q22 11 63 11 53 0 83.5-26.5T278 52q0-13-3-28-11-63-57-96z"/><glyph glyph-name="six.sinf" unicode="₆" horiz-adv-x="336" d="M221.5-69.5Q177-105 111-105q-56 0-90.5 33T-14 11q0 16 2 25l22 121q11 62 59 99t111 37q61 0 111-36 7-4 7-12 0-7-5-13l-40-45q-7-7-14-7-5 0-11 3-23 17-59 17-25 0-41.5-12.5T106 153l-5-24q25 18 67 18 49 0 80-26.5T279 49q0-7-2-21-11-62-55.5-97.5zM124-10q47 0 54 41 1 3 1 9 0 29-39 29-25 0-41-12.5T83 21q0-31 41-31z"/><glyph glyph-name="seven.sinf" unicode="₇" horiz-adv-x="310" d="M-12-89q0 4 3 10l167 275H21q-8 0-12 5t-3 13l10 58q3 16 19 16h246q8 0 12.5-5.5T296 269l-7-42q-1-10-7-20L101-88q-7-12-21-12H3q-15 0-15 11z"/><glyph glyph-name="eight.sinf" unicode="₈" horiz-adv-x="342" d="M220-73.5Q175-105 107-105q-60 0-95 26.5T-23-6q0 37 19.5 68T51 107q-15 10-23.5 26T19 168q0 5 2 17 9 50 50.5 79T177 293q56 0 88.5-25t32.5-67q0-30-16.5-56T237 104q19-8 29.5-25.5T277 37q0-6-2-22-10-57-55-88.5zM118.5 145q10.5-8 30.5-8 24 0 38.5 10.5T206 177q2 16-8.5 25t-33.5 9q-26 0-41-12t-15-31q0-15 10.5-23zm-36-155.5Q94-21 119-21q29 0 46 13t17 36q0 31-46 31-26 0-42-10.5T74 19q-3-19 8.5-29.5z"/><glyph glyph-name="nine.sinf" unicode="₉" horiz-adv-x="335" d="M54 257q44 36 111 36 57 0 90.5-31.5T289 179q0-17-2-26L265 31q-11-61-62.5-98.5T88-105q-53 0-110 36-8 5-8 12 0 5 6 13L16 2q6 7 13 7 6 0 11-4 26-17 58-17 26 0 46.5 13T169 35l5 25q-22-18-66-18-49 0-80 27t-31 70q0 5 2 19 11 63 55 99zm138-89q0 31-40 31-22 0-36-10.5T99 158q-1-4-1-10 0-28 38-28 23 0 37 10.5t18 29.5z"/><glyph glyph-name="Euro" unicode="€" horiz-adv-x="644" d="M340-13q-107 0-170.5 58.5T106 208q0 11 2 33H49q-9 0-13 5t-3 14l10 55q1 16 18 16h61l8 47H73q-9 0-13.5 5.5T57 397l10 55q3 16 18 16h60l2 9q27 123 108 187t202 64q57 0 108-18t89-50q7-4 7-11 0-6-5-13l-72-83q-6-7-13-7-6 0-11 4-50 36-117 36-56 0-91.5-31T304 468h146q9 0 13.5-5.5T466 449l-10-55q-3-16-18-16H289l-8-47h145q8 0 12.5-5.5T442 312l-10-55q-3-16-19-16H267l-1-15q0-48 26.5-72.5T370 129q34 0 71.5 11.5T510 173q8 4 11 4 7 0 13-10l47-95q3-4 3-10 0-8-10-14-105-61-234-61z"/><glyph glyph-name="uni20BD" unicode="₽" horiz-adv-x="649" d="M597 659q62-56 62-154 0-28-6-60-20-109-96-170.5T361 213H247l-9-50h145q8 0 12.5-5.5T399 144l-11-62q-3-16-19-16H221l-9-50q-3-16-18-16H72q-8 0-12.5 5.5T56 19l8 47H18q-8 0-12.5 5T2 85l12 63q3 15 18 15h50l93 536q3 16 19 16h230q111 0 173-56zM454.5 380.5Q488 409 497 465q3 17 3 30 0 80-97 80h-93l-39-223h94q56 0 89.5 28.5z"/><glyph glyph-name="uni2113" unicode="ℓ" horiz-adv-x="415" d="M276.5 1Q243-13 206-13q-68 0-105 39T64 134q0 26 4 47l2 12q-24-10-36-14l-8-2q-6 0-8.5 4.5T16 194l13 87q3 13 15 19 12 4 48 20l36 198q18 105 68 157.5T318 728q59 0 91.5-39.5T442 580q0-28-6-60-14-83-73-147.5T199 255l-8-41q-4-24-4-46 0-59 38-59 34 0 69 29 5 4 11 4 8 0 12-9l33-63q2-6 2-9 0-9-9-17-33-29-66.5-43zm11 443.5Q311 477 320 529q3 23 3 39 0 43-24 43-21 0-33.5-22T246 522l-25-134q43 24 66.5 56.5z"/><glyph glyph-name="uni2116" unicode="№" horiz-adv-x="1114" d="M1030 313q-63-51-156-51-82 0-128 41t-46 112q0 12 4 40l14 81q15 89 78.5 140.5T954 728q80 0 125-42.5t45-113.5q0-18-3-39l-13-81q-15-88-78-139zM28.5 5.5Q24 11 26 19l119 680q3 16 19 16h139q16 0 20-14l85-258q23-73 53-207l4 2q18 171 39 287l30 174q3 16 19 16h123q9 0 13.5-5.5T692 696L573 16q-3-16-19-16H414q-14 0-20 14l-89 234q-13 38-30.5 107.5T247 475l-5-2q-9-175-32-305L183 16q-2-16-18-16H41q-8 0-12.5 5.5zM837 439q0-50 55-50 33 0 54.5 19t27.5 53l12 68q2 16 2 21 0 25-14 38t-41 13q-33 0-54-19t-27-56l-13-68q-2-14-2-19zM674.5 117.5Q670 123 672 131l13 75q2 15 18 15h323q9 0 13.5-5t2.5-13l-13-75q-1-7-5.5-11.5T1011 112H687q-8 0-12.5 5.5z"/><glyph glyph-name="trademark" unicode="™" horiz-adv-x="632" d="M142 418q-3 3-2 8l40 231h-72q-11 0-10 10l7 40q2 8 9 8h214q9 0 7-8l-7-43q-1-7-11-7h-75l-41-232q-1-10-10-10h-42q-4 0-7 3zm166 7l50 281q2 9 10 9h53q8 0 10-8l28-133 10-53 27 53 75 133q5 8 13 8h53q11 0 9-12l-50-278q-1-10-13-10h-34q-6 0-9 3t-2 8l17 98 23 102h-2l-36-68-55-93q-2-7-12-7h-29q-8 0-10 9l-23 91-13 68h-1l-14-102-17-101q-2-8-10-8h-40q-9 0-8 10z"/><glyph glyph-name="estimated" unicode="℮" horiz-adv-x="836" d="M325 78.5Q382 55 439 55q78 0 143 23.5t95 85.5q2 3 6 3h88q3 0 4-2t-1-4Q716 74 625.5 30.5T438-13q-103 0-190.5 48T109 165.5 58 346q0 104 51.5 191.5t138.5 139T438 728q104 0 191.5-51.5t138.5-139T819 346v-31q0-5-5-5H233V141q35-39 92-62.5zM439 661q-60 0-113.5-24T233 574V381h412v201q-89 79-206 79z"/><glyph glyph-name="uni2153" unicode="⅓" horiz-adv-x="859" d="M135 332q-4 5-2 14l44 249-38-23q-5-3-10-3-8 0-13 9l-24 50q-2 3-2 9 0 9 8 14l96 58q10 6 21 6h63q9 0 13.5-5.5T294 696l-63-353q-2-16-19-16h-64q-9 0-13 5zM176 0h-69q-7 0-11 3t-4 7q0 6 4 11l524 683q8 11 21 11h68q7 0 11-2.5t4-7.5q0-6-4-11L197 11q-8-11-21-11zm566.5 29Q697-5 628-5q-82 0-129 55-5 7-5 11 0 7 6 13l42 45q6 6 12 6t13-7q29-27 69-27 27 0 43.5 12.5T701 139q1 3 1 9 0 16-12.5 24.5T655 181q-8 0-24-2h-5q-13 0-16 13l-5 20-1 5q0 10 9 17l72 66H573q-8 0-12 5t-3 14l10 53q2 16 18 16h226q9 0 13-5t3-14l-6-36q-2-11-13-20l-92-76q10 0 21-2 29-7 46-28.5t17-56.5q0-17-2-26-11-61-56.5-95z"/><glyph glyph-name="uni2154" unicode="⅔" horiz-adv-x="916" d="M46.5 332.5Q42 338 44 346l9 54q3 12 12 20l124 98q36 29 53.5 50.5T260 607q0 22-29 22-34 0-74-27-7-5-12-5-9 0-13 10l-23 43q-2 8-2 10 0 9 8 14 64 46 134 46 54 0 84-28.5t30-72.5q0-38-21-70t-73-80q-33-28-64-47h111q9 0 13-5t3-14l-11-60q-3-16-19-16H60q-9 0-13.5 5.5zM238 0h-69q-7 0-11 3t-4 7q0 6 4 11l524 683q8 11 21 11h68q7 0 11-2.5t4-7.5q0-6-4-11L259 11q-8-11-21-11zm569.5 29Q762-5 693-5q-82 0-129 55-5 7-5 11 0 7 6 13l42 45q6 6 12 6t13-7q29-27 69-27 27 0 43.5 12.5T766 139q1 3 1 9 0 16-12.5 24.5T720 181q-8 0-24-2h-5q-13 0-16 13l-5 20-1 5q0 10 9 17l72 66H638q-8 0-12 5t-3 14l10 53q2 16 18 16h226q9 0 13-5t3-14l-6-36q-2-11-13-20l-92-76q10 0 21-2 29-7 46-28.5t17-56.5q0-17-2-26-11-61-56.5-95z"/><glyph glyph-name="oneeighth" unicode="⅛" horiz-adv-x="877" d="M135 332q-4 5-2 14l44 249-38-23q-5-3-10-3-8 0-13 9l-24 50q-2 3-2 9 0 9 8 14l96 58q10 6 21 6h63q9 0 13.5-5.5T294 696l-63-353q-2-16-19-16h-64q-9 0-13 5zM182 0h-69q-7 0-11 3t-4 7q0 6 4 11l524 683q8 11 21 11h68q7 0 11-2.5t4-7.5q0-6-4-11L203 11q-8-11-21-11zm579 26.5Q716-5 648-5q-60 0-94.5 27T519 95q0 37 19 67.5t53 44.5q-14 10-22.5 26t-8.5 35q0 5 2 17 9 50 50.5 79T718 393q56 0 88-25t32-67q0-30-16-55.5T778 204q19-8 29.5-25.5T818 137q0-6-2-22-10-57-55-88.5zM659.5 245q10.5-8 30.5-8 26 0 41.5 12.5T747 283q0 14-11 21t-31 7q-26 0-41-12t-15-31q0-15 10.5-23zm-36-155.5Q635 79 660 79q27 0 42.5 11t19.5 31q3 18-8.5 28T677 159q-27 0-42.5-10.5T615 119q-3-19 8.5-29.5z"/><glyph glyph-name="threeeighths" unicode="⅜" horiz-adv-x="967" d="M296.5 356.5Q251 322 182 322q-81 0-129 56-5 7-5 11 0 7 6 13l42 44q6 6 12 6 5 0 13-6 28-28 69-28 27 0 43.5 12.5T255 466q1 3 1 9 0 33-47 33-16 0-24-2h-5q-13 0-16 13l-5 20-1 5q0 9 9 18l72 66H127q-18 0-15 19l10 53q2 15 18 15h226q9 0 13-5t3-14l-6-35q-3-13-13-20l-92-76q10 0 21-3 29-7 46-28.5t17-55.5q0-17-2-26-11-61-56.5-95.5zM260 0h-69q-7 0-11 3t-4 7q0 6 4 11l524 683q8 11 21 11h68q7 0 11-2.5t4-7.5q0-6-4-11L281 11q-8-11-21-11zm597 26.5Q812-5 744-5q-60 0-94.5 27T615 95q0 37 19 67.5t53 44.5q-14 10-22.5 26t-8.5 35q0 5 2 17 9 50 50.5 79T814 393q56 0 88-25t32-67q0-30-16-55.5T874 204q19-8 29.5-25.5T914 137q0-6-2-22-10-57-55-88.5zM755.5 245q10.5-8 30.5-8 26 0 41.5 12.5T843 283q0 14-11 21t-31 7q-26 0-41-12t-15-31q0-15 10.5-23zm-36-155.5Q731 79 756 79q27 0 42.5 11t19.5 31q3 18-8.5 28T773 159q-27 0-42.5-10.5T711 119q-3-19 8.5-29.5z"/><glyph glyph-name="fiveeighths" unicode="⅝" horiz-adv-x="955" d="M301 355q-46-33-120-33-83 0-126 50-5 5-5 10 0 6 7 13l40 42q5 5 12 5 8 0 13-5 29-24 75-24 28 0 45.5 15.5T260 471q0 16-11 25t-31 9q-29 0-61-16-8-5-15-5-5 0-8 1l-40 11q-8 2-11 8.5T82 518l42 182q3 15 19 15h223q9 0 13.5-5.5T382 696l-10-55q-3-16-19-16H196l-13-56q24 11 64 11 53 0 83.5-26.5T361 479q0-13-3-28-11-63-57-96zM260 0h-69q-7 0-11 3t-4 7q0 6 4 11l524 683q8 11 21 11h68q7 0 11-2.5t4-7.5q0-6-4-11L281 11q-8-11-21-11zm587 26.5Q802-5 734-5q-60 0-94.5 27T605 95q0 37 19 67.5t53 44.5q-14 10-22.5 26t-8.5 35q0 5 2 17 9 50 50.5 79T804 393q56 0 88-25t32-67q0-30-16-55.5T864 204q19-8 29.5-25.5T904 137q0-6-2-22-10-57-55-88.5zM745.5 245q10.5-8 30.5-8 26 0 41.5 12.5T833 283q0 14-11 21t-31 7q-26 0-41-12t-15-31q0-15 10.5-23zm-36-155.5Q721 79 746 79q27 0 42.5 11t19.5 31q3 18-8.5 28T763 159q-27 0-42.5-10.5T701 119q-3-19 8.5-29.5z"/><glyph glyph-name="seveneighths" unicode="⅞" horiz-adv-x="935" d="M75 338q0 4 3 10l167 275H108q-9 0-13.5 5T92 641l11 58q3 16 19 16h245q9 0 13.5-5.5T383 696l-8-42q-1-8-6-20L187 339q-6-12-20-12H90q-15 0-15 11zM210 0h-69q-7 0-11 3t-4 7q0 6 4 11l524 683q8 11 21 11h68q7 0 11-2.5t4-7.5q0-6-4-11L231 11q-8-11-21-11zm615 26.5Q780-5 712-5q-60 0-94.5 27T583 95q0 37 19 67.5t53 44.5q-14 10-22.5 26t-8.5 35q0 5 2 17 9 50 50.5 79T782 393q56 0 88-25t32-67q0-30-16-55.5T842 204q19-8 29.5-25.5T882 137q0-6-2-22-10-57-55-88.5zM723.5 245q10.5-8 30.5-8 26 0 41.5 12.5T811 283q0 14-11 21t-31 7q-26 0-41-12t-15-31q0-15 10.5-23zm-36-155.5Q699 79 724 79q27 0 42.5 11t19.5 31q3 18-8.5 28T741 159q-27 0-42.5-10.5T679 119q-3-19 8.5-29.5z"/><glyph glyph-name="arrowleft" unicode="←" horiz-adv-x="623" d="M609.5 406.5Q614 401 612 393l-16-93q-1-15-18-15H203l64-77q5-7 5-12 0-6-7-12l-61-55q-5-5-11-5-7 0-13 7L53 298q-8 11-5 22l9 57q4 13 11 19l190 175q5 5 12 5 8 0 12-7l40-51q5-5 5-10 0-6-8-14l-94-82h372q8 0 12.5-5.5z"/><glyph glyph-name="arrowup" unicode="↑" horiz-adv-x="479" d="M490 456q0-5-7-12l-60-54q-5-5-12-5t-13 7l-62 80-70-395q-3-16-18-16h-86q-9 0-13 5t-3 14l69 392-90-80q-6-6-12-6-7 0-12 7l-39 51q-5 7-5 11 0 6 7 13l194 167q8 8 21 8h52q12 0 21-10l133-165q5-7 5-12z"/><glyph glyph-name="arrowright" unicode="→" horiz-adv-x="622" d="M462 576q7 0 13-7l126-166q9-11 6-23l-10-56q-1-11-10-20L396 129q-5-5-11-5t-13 7l-39 51q-5 7-5 11 0 6 7 13l94 82H58q-9 0-13 5t-3 14l16 93q3 16 19 16h374l-64 76q-5 7-5 11 0 7 7 14l61 54q5 5 12 5z"/><glyph glyph-name="arrowdown" unicode="↓" horiz-adv-x="479" d="M397 316q7 0 13-7l39-50q4-5 4-12 0-6-7-12L251 65q-9-8-22-8h-52q-12 0-21 11L24 231q-4 5-4 11 0 7 7 13l60 54q5 5 11 5 7 0 13-7l61-78 70 395q3 15 19 15h86q8 0 12.5-5.5T362 620l-69-391 92 82q5 5 12 5z"/><glyph glyph-name="arrowboth" unicode="↔" horiz-adv-x="771" d="M608 577q7 0 13-7l127-166q8-11 5-22l-10-57q-1-11-10-20L542 131q-5-5-11-5-7 0-13 7l-39 50q-5 7-5 12 0 6 7 13l94 82H205l65-80q4-5 4-12t-6-13l-61-54q-5-5-12-5-8 0-12 7L56 303q-7 11-6 22l10 57q1 11 10 20l191 170q5 5 11 5 7 0 13-7l40-50q5-7 5-11 0-7-8-13l-92-79h367l-63 77q-5 7-5 12 0 6 6 12l61 54q5 5 12 5z"/><glyph glyph-name="arrowupdn" unicode="↕" horiz-adv-x="495" d="M383 252q5 5 12 5 8 0 12-7l39-50q5-7 5-12t-7-12L249 7q-8-8-22-8h-52q-14 0-21 10L22 172q-5 7-5 12 0 6 7 12l60 54q5 5 12 5t13-7l61-78 67 376-91-81q-5-5-11-5-8 0-13 8l-39 49q-5 7-5 11 0 8 8 14l193 167q8 8 21 8h52q14 0 21-11l133-164q5-7 5-12 0-7-7-13l-60-54q-7-5-12-5-6 0-13 7l-61 81-67-376z"/><glyph glyph-name="uni2196" unicode="↖" horiz-adv-x="530" d="M487 184q0-6-6-12l-75-67q-5-5-11-5-7 0-13 7L166 384l-20-118q-3-16-19-16H60q-8 0-12.5 5T44 269l43 239q3 12 11 20l48 45q11 8 22 8h224q9 0 13.5-5.5T408 562l-13-73q-1-16-18-16H267l215-277q5-7 5-12z"/><glyph glyph-name="uni2197" unicode="↗" horiz-adv-x="533" d="M496 570l31-39q7-9 5-23l-42-242q-1-7-5.5-11.5T472 250h-68q-8 0-12.5 5.5T389 269l19 114L96 105q-5-5-12-5-8 0-12 7l-49 63q-5 7-5 12 0 6 7 12l314 279H234q-9 0-13 5t-3 14l13 73q3 16 18 16h226q13 0 21-11z"/><glyph glyph-name="uni2198" unicode="↘" horiz-adv-x="533" d="M416.5 421.5Q421 426 429 426h68q9 0 13-5t3-14l-41-236q-3-12-11-20l-50-45q-10-8-21-8H163q-9 0-13.5 5.5T147 117l13 73q3 16 19 16h111L75 483q-5 7-5 11 0 7 8 13l74 67q5 5 12 5 8 0 12-7l215-276 20 114q1 7 5.5 11.5z"/></font>
</defs>
</svg>
